<mxfile host="app.diagrams.net" modified="2024-05-29T12:46:26.046Z" agent="Mozilla/5.0 (Windows NT 10.0; Win64; x64) AppleWebKit/537.36 (KHTML, like Gecko) Chrome/125.0.0.0 Safari/537.36 Edg/125.0.0.0" etag="g6aTSqdP1CFwHtT3u2-F" version="24.4.8" type="device">
  <diagram name="Page-1" id="q8TtEJXlkn0c-FmrIIC7">
    <mxGraphModel dx="3622" dy="3702" grid="1" gridSize="10" guides="1" tooltips="1" connect="1" arrows="1" fold="1" page="1" pageScale="1" pageWidth="850" pageHeight="1100" math="0" shadow="0">
      <root>
        <mxCell id="0" />
        <mxCell id="1" parent="0" />
        <mxCell id="27qRcpsZxuToWlD_OpyJ-1" value="" style="endArrow=none;dashed=1;html=1;dashPattern=1 3;strokeWidth=2;rounded=0;" parent="1" edge="1">
          <mxGeometry width="50" height="50" relative="1" as="geometry">
            <mxPoint x="250" y="-838" as="sourcePoint" />
            <mxPoint x="250" y="1552" as="targetPoint" />
          </mxGeometry>
        </mxCell>
        <mxCell id="27qRcpsZxuToWlD_OpyJ-2" value="" style="endArrow=none;dashed=1;html=1;dashPattern=1 3;strokeWidth=2;rounded=0;" parent="1" edge="1">
          <mxGeometry width="50" height="50" relative="1" as="geometry">
            <mxPoint x="2430" y="-377.5" as="sourcePoint" />
            <mxPoint x="2440" y="1790" as="targetPoint" />
          </mxGeometry>
        </mxCell>
        <mxCell id="27qRcpsZxuToWlD_OpyJ-3" value="Controllers" style="text;html=1;align=center;verticalAlign=middle;whiteSpace=wrap;rounded=0;" parent="1" vertex="1">
          <mxGeometry x="-190" y="-975" width="60" height="30" as="geometry" />
        </mxCell>
        <mxCell id="27qRcpsZxuToWlD_OpyJ-4" value="RoutingComponent" style="text;html=1;align=center;verticalAlign=middle;whiteSpace=wrap;rounded=0;" parent="1" vertex="1">
          <mxGeometry x="1245" y="-975" width="60" height="30" as="geometry" />
        </mxCell>
        <mxCell id="27qRcpsZxuToWlD_OpyJ-33" value="APIGateway" style="text;html=1;align=center;verticalAlign=middle;whiteSpace=wrap;rounded=0;fontStyle=1" parent="1" vertex="1">
          <mxGeometry x="-630" y="-1170" width="180" height="30" as="geometry" />
        </mxCell>
        <mxCell id="27qRcpsZxuToWlD_OpyJ-34" value="" style="endArrow=classic;html=1;rounded=0;entryX=0.008;entryY=0.1;entryDx=0;entryDy=0;entryPerimeter=0;" parent="1" source="qbyrKcUKPjAhvGXzIgvA-13" target="qbyrKcUKPjAhvGXzIgvA-182" edge="1">
          <mxGeometry width="50" height="50" relative="1" as="geometry">
            <mxPoint x="135" y="266" as="sourcePoint" />
            <mxPoint x="380" y="266" as="targetPoint" />
          </mxGeometry>
        </mxCell>
        <mxCell id="27qRcpsZxuToWlD_OpyJ-52" value="" style="endArrow=classic;html=1;rounded=0;entryX=0.5;entryY=0;entryDx=0;entryDy=0;exitX=1;exitY=0.5;exitDx=0;exitDy=0;edgeStyle=orthogonalEdgeStyle;" parent="1" source="qbyrKcUKPjAhvGXzIgvA-148" target="qbyrKcUKPjAhvGXzIgvA-229" edge="1">
          <mxGeometry width="50" height="50" relative="1" as="geometry">
            <mxPoint x="1830" y="901.5" as="sourcePoint" />
            <mxPoint x="1895" y="911.5" as="targetPoint" />
          </mxGeometry>
        </mxCell>
        <mxCell id="27qRcpsZxuToWlD_OpyJ-125" value="LicenseProxyAPI" style="swimlane;fontStyle=1;align=center;verticalAlign=top;childLayout=stackLayout;horizontal=1;startSize=26;horizontalStack=0;resizeParent=1;resizeParentMax=0;resizeLast=0;collapsible=1;marginBottom=0;whiteSpace=wrap;html=1;" parent="1" vertex="1">
          <mxGeometry x="2577.5" y="716.5" width="160" height="86" as="geometry" />
        </mxCell>
        <mxCell id="27qRcpsZxuToWlD_OpyJ-126" value="+ field: type" style="text;align=left;verticalAlign=top;spacingLeft=4;spacingRight=4;overflow=hidden;rotatable=0;points=[[0,0.5],[1,0.5]];portConstraint=eastwest;whiteSpace=wrap;html=1;" parent="27qRcpsZxuToWlD_OpyJ-125" vertex="1">
          <mxGeometry y="26" width="160" height="26" as="geometry" />
        </mxCell>
        <mxCell id="27qRcpsZxuToWlD_OpyJ-127" value="" style="line;strokeWidth=1;align=left;verticalAlign=middle;spacingTop=-1;spacingLeft=3;spacingRight=3;rotatable=0;labelPosition=right;points=[];portConstraint=eastwest;" parent="27qRcpsZxuToWlD_OpyJ-125" vertex="1">
          <mxGeometry y="52" width="160" height="8" as="geometry" />
        </mxCell>
        <mxCell id="27qRcpsZxuToWlD_OpyJ-128" value="+ method(type): type" style="text;align=left;verticalAlign=top;spacingLeft=4;spacingRight=4;overflow=hidden;rotatable=0;points=[[0,0.5],[1,0.5]];portConstraint=eastwest;whiteSpace=wrap;html=1;" parent="27qRcpsZxuToWlD_OpyJ-125" vertex="1">
          <mxGeometry y="60" width="160" height="26" as="geometry" />
        </mxCell>
        <mxCell id="27qRcpsZxuToWlD_OpyJ-129" value="UserRouter" style="swimlane;fontStyle=1;align=center;verticalAlign=top;childLayout=stackLayout;horizontal=1;startSize=26;horizontalStack=0;resizeParent=1;resizeParentMax=0;resizeLast=0;collapsible=1;marginBottom=0;whiteSpace=wrap;html=1;fillColor=#dae8fc;strokeColor=#6c8ebf;" parent="1" vertex="1">
          <mxGeometry x="920" y="255" width="180" height="216" as="geometry" />
        </mxCell>
        <mxCell id="27qRcpsZxuToWlD_OpyJ-130" value="- authorizer:&amp;nbsp;&lt;span style=&quot;text-align: center;&quot;&gt;I&lt;/span&gt;&lt;span style=&quot;text-align: center; background-color: initial;&quot;&gt;Autorizer&lt;/span&gt;" style="text;strokeColor=none;fillColor=none;align=left;verticalAlign=top;spacingLeft=4;spacingRight=4;overflow=hidden;rotatable=0;points=[[0,0.5],[1,0.5]];portConstraint=eastwest;whiteSpace=wrap;html=1;" parent="27qRcpsZxuToWlD_OpyJ-129" vertex="1">
          <mxGeometry y="26" width="180" height="26" as="geometry" />
        </mxCell>
        <mxCell id="27qRcpsZxuToWlD_OpyJ-153" value="- u&lt;span style=&quot;text-align: center;&quot;&gt;ser&lt;/span&gt;&lt;span style=&quot;text-align: center;&quot;&gt;Contract&lt;/span&gt;:&amp;nbsp;&lt;span style=&quot;text-align: center;&quot;&gt;IUser&lt;/span&gt;&lt;span style=&quot;text-align: center;&quot;&gt;Contract&lt;/span&gt;" style="text;strokeColor=none;fillColor=none;align=left;verticalAlign=top;spacingLeft=4;spacingRight=4;overflow=hidden;rotatable=0;points=[[0,0.5],[1,0.5]];portConstraint=eastwest;whiteSpace=wrap;html=1;" parent="27qRcpsZxuToWlD_OpyJ-129" vertex="1">
          <mxGeometry y="52" width="180" height="26" as="geometry" />
        </mxCell>
        <mxCell id="27qRcpsZxuToWlD_OpyJ-154" value="- r&lt;span style=&quot;text-align: center;&quot;&gt;ateLimiter&lt;/span&gt;:&amp;nbsp;&lt;span style=&quot;text-align: center;&quot;&gt;IRateLimiter&lt;/span&gt;" style="text;strokeColor=none;fillColor=none;align=left;verticalAlign=top;spacingLeft=4;spacingRight=4;overflow=hidden;rotatable=0;points=[[0,0.5],[1,0.5]];portConstraint=eastwest;whiteSpace=wrap;html=1;" parent="27qRcpsZxuToWlD_OpyJ-129" vertex="1">
          <mxGeometry y="78" width="180" height="26" as="geometry" />
        </mxCell>
        <mxCell id="27qRcpsZxuToWlD_OpyJ-131" value="" style="line;strokeWidth=1;fillColor=none;align=left;verticalAlign=middle;spacingTop=-1;spacingLeft=3;spacingRight=3;rotatable=0;labelPosition=right;points=[];portConstraint=eastwest;strokeColor=inherit;" parent="27qRcpsZxuToWlD_OpyJ-129" vertex="1">
          <mxGeometry y="104" width="180" height="8" as="geometry" />
        </mxCell>
        <mxCell id="27qRcpsZxuToWlD_OpyJ-132" value="&lt;div style=&quot;text-align: left;&quot;&gt;&lt;span style=&quot;background-color: initial; text-align: center;&quot;&gt;+ AddUser&lt;/span&gt;&lt;span style=&quot;background-color: initial;&quot;&gt;(User): boolean&lt;/span&gt;&lt;/div&gt;" style="text;strokeColor=none;fillColor=none;align=left;verticalAlign=top;spacingLeft=4;spacingRight=4;overflow=hidden;rotatable=0;points=[[0,0.5],[1,0.5]];portConstraint=eastwest;whiteSpace=wrap;html=1;" parent="27qRcpsZxuToWlD_OpyJ-129" vertex="1">
          <mxGeometry y="112" width="180" height="26" as="geometry" />
        </mxCell>
        <mxCell id="27qRcpsZxuToWlD_OpyJ-134" value="+&amp;nbsp;&lt;span style=&quot;text-align: center;&quot;&gt;RemoveUser&lt;/span&gt;(int): boolean" style="text;strokeColor=none;fillColor=none;align=left;verticalAlign=top;spacingLeft=4;spacingRight=4;overflow=hidden;rotatable=0;points=[[0,0.5],[1,0.5]];portConstraint=eastwest;whiteSpace=wrap;html=1;" parent="27qRcpsZxuToWlD_OpyJ-129" vertex="1">
          <mxGeometry y="138" width="180" height="26" as="geometry" />
        </mxCell>
        <mxCell id="27qRcpsZxuToWlD_OpyJ-135" value="+&amp;nbsp;&lt;span style=&quot;text-align: center;&quot;&gt;EditUser&lt;/span&gt;(int, User): boolean" style="text;strokeColor=none;fillColor=none;align=left;verticalAlign=top;spacingLeft=4;spacingRight=4;overflow=hidden;rotatable=0;points=[[0,0.5],[1,0.5]];portConstraint=eastwest;whiteSpace=wrap;html=1;" parent="27qRcpsZxuToWlD_OpyJ-129" vertex="1">
          <mxGeometry y="164" width="180" height="26" as="geometry" />
        </mxCell>
        <mxCell id="qbyrKcUKPjAhvGXzIgvA-209" value="+&amp;nbsp;&lt;span style=&quot;text-align: center;&quot;&gt;Login&lt;/span&gt;(string, string): boolean" style="text;strokeColor=none;fillColor=none;align=left;verticalAlign=top;spacingLeft=4;spacingRight=4;overflow=hidden;rotatable=0;points=[[0,0.5],[1,0.5]];portConstraint=eastwest;whiteSpace=wrap;html=1;" parent="27qRcpsZxuToWlD_OpyJ-129" vertex="1">
          <mxGeometry y="190" width="180" height="26" as="geometry" />
        </mxCell>
        <mxCell id="27qRcpsZxuToWlD_OpyJ-133" value="" style="endArrow=block;dashed=1;endFill=0;endSize=12;html=1;rounded=0;entryX=1;entryY=0.25;entryDx=0;entryDy=0;exitX=0.002;exitY=0.061;exitDx=0;exitDy=0;exitPerimeter=0;" parent="1" source="27qRcpsZxuToWlD_OpyJ-129" target="qbyrKcUKPjAhvGXzIgvA-182" edge="1">
          <mxGeometry width="160" relative="1" as="geometry">
            <mxPoint x="1185" y="398.61" as="sourcePoint" />
            <mxPoint x="515" y="266" as="targetPoint" />
          </mxGeometry>
        </mxCell>
        <mxCell id="27qRcpsZxuToWlD_OpyJ-152" value="«interface»&lt;br&gt;&lt;b&gt;IRateLimiter&lt;/b&gt;" style="html=1;whiteSpace=wrap;fillColor=#fff2cc;strokeColor=#d6b656;" parent="1" vertex="1">
          <mxGeometry x="640" y="40" width="220" height="50" as="geometry" />
        </mxCell>
        <mxCell id="27qRcpsZxuToWlD_OpyJ-162" value="StreamingServiceAPI" style="swimlane;fontStyle=1;align=center;verticalAlign=top;childLayout=stackLayout;horizontal=1;startSize=26;horizontalStack=0;resizeParent=1;resizeParentMax=0;resizeLast=0;collapsible=1;marginBottom=0;whiteSpace=wrap;html=1;" parent="1" vertex="1">
          <mxGeometry x="2577.5" y="930.5" width="160" height="86" as="geometry" />
        </mxCell>
        <mxCell id="27qRcpsZxuToWlD_OpyJ-163" value="+ field: type" style="text;align=left;verticalAlign=top;spacingLeft=4;spacingRight=4;overflow=hidden;rotatable=0;points=[[0,0.5],[1,0.5]];portConstraint=eastwest;whiteSpace=wrap;html=1;" parent="27qRcpsZxuToWlD_OpyJ-162" vertex="1">
          <mxGeometry y="26" width="160" height="26" as="geometry" />
        </mxCell>
        <mxCell id="27qRcpsZxuToWlD_OpyJ-164" value="" style="line;strokeWidth=1;align=left;verticalAlign=middle;spacingTop=-1;spacingLeft=3;spacingRight=3;rotatable=0;labelPosition=right;points=[];portConstraint=eastwest;" parent="27qRcpsZxuToWlD_OpyJ-162" vertex="1">
          <mxGeometry y="52" width="160" height="8" as="geometry" />
        </mxCell>
        <mxCell id="27qRcpsZxuToWlD_OpyJ-165" value="+ method(type): type" style="text;align=left;verticalAlign=top;spacingLeft=4;spacingRight=4;overflow=hidden;rotatable=0;points=[[0,0.5],[1,0.5]];portConstraint=eastwest;whiteSpace=wrap;html=1;" parent="27qRcpsZxuToWlD_OpyJ-162" vertex="1">
          <mxGeometry y="60" width="160" height="26" as="geometry" />
        </mxCell>
        <mxCell id="27qRcpsZxuToWlD_OpyJ-166" value="" style="endArrow=block;dashed=1;endFill=0;endSize=12;html=1;rounded=0;entryX=1;entryY=0.25;entryDx=0;entryDy=0;exitX=0.006;exitY=0.174;exitDx=0;exitDy=0;exitPerimeter=0;" parent="1" source="27qRcpsZxuToWlD_OpyJ-162" target="qbyrKcUKPjAhvGXzIgvA-229" edge="1">
          <mxGeometry width="160" relative="1" as="geometry">
            <mxPoint x="2155" y="910.5" as="sourcePoint" />
            <mxPoint x="2080" y="911.5" as="targetPoint" />
          </mxGeometry>
        </mxCell>
        <mxCell id="27qRcpsZxuToWlD_OpyJ-167" value="" style="endArrow=block;dashed=1;endFill=0;endSize=12;html=1;rounded=0;exitX=-0.013;exitY=0.178;exitDx=0;exitDy=0;exitPerimeter=0;entryX=1;entryY=0.25;entryDx=0;entryDy=0;" parent="1" source="27qRcpsZxuToWlD_OpyJ-168" target="qbyrKcUKPjAhvGXzIgvA-219" edge="1">
          <mxGeometry width="160" relative="1" as="geometry">
            <mxPoint x="2100" y="-40.110000000000014" as="sourcePoint" />
            <mxPoint x="1950" y="-82.5" as="targetPoint" />
          </mxGeometry>
        </mxCell>
        <mxCell id="27qRcpsZxuToWlD_OpyJ-168" value="AuthorizationAPI" style="swimlane;fontStyle=1;align=center;verticalAlign=top;childLayout=stackLayout;horizontal=1;startSize=26;horizontalStack=0;resizeParent=1;resizeParentMax=0;resizeLast=0;collapsible=1;marginBottom=0;whiteSpace=wrap;html=1;" parent="1" vertex="1">
          <mxGeometry x="2570" y="187" width="175" height="86" as="geometry" />
        </mxCell>
        <mxCell id="27qRcpsZxuToWlD_OpyJ-169" value="+ field: type" style="text;align=left;verticalAlign=top;spacingLeft=4;spacingRight=4;overflow=hidden;rotatable=0;points=[[0,0.5],[1,0.5]];portConstraint=eastwest;whiteSpace=wrap;html=1;" parent="27qRcpsZxuToWlD_OpyJ-168" vertex="1">
          <mxGeometry y="26" width="175" height="26" as="geometry" />
        </mxCell>
        <mxCell id="27qRcpsZxuToWlD_OpyJ-170" value="" style="line;strokeWidth=1;align=left;verticalAlign=middle;spacingTop=-1;spacingLeft=3;spacingRight=3;rotatable=0;labelPosition=right;points=[];portConstraint=eastwest;" parent="27qRcpsZxuToWlD_OpyJ-168" vertex="1">
          <mxGeometry y="52" width="175" height="8" as="geometry" />
        </mxCell>
        <mxCell id="27qRcpsZxuToWlD_OpyJ-171" value="+ method(type): type" style="text;align=left;verticalAlign=top;spacingLeft=4;spacingRight=4;overflow=hidden;rotatable=0;points=[[0,0.5],[1,0.5]];portConstraint=eastwest;whiteSpace=wrap;html=1;" parent="27qRcpsZxuToWlD_OpyJ-168" vertex="1">
          <mxGeometry y="60" width="175" height="26" as="geometry" />
        </mxCell>
        <mxCell id="qbyrKcUKPjAhvGXzIgvA-12" value="UserController" style="swimlane;fontStyle=1;align=center;verticalAlign=top;childLayout=stackLayout;horizontal=1;startSize=26;horizontalStack=0;resizeParent=1;resizeParentMax=0;resizeLast=0;collapsible=1;marginBottom=0;whiteSpace=wrap;html=1;fillColor=#6d8764;fontColor=#ffffff;strokeColor=#3A5431;" parent="1" vertex="1">
          <mxGeometry x="-260" y="212" width="410" height="164" as="geometry" />
        </mxCell>
        <mxCell id="qbyrKcUKPjAhvGXzIgvA-13" value="- userRoutingManager:&amp;nbsp;&lt;span style=&quot;text-align: center;&quot;&gt;IUserRoutingManager&lt;/span&gt;" style="text;align=left;verticalAlign=top;spacingLeft=4;spacingRight=4;overflow=hidden;rotatable=0;points=[[0,0.5],[1,0.5]];portConstraint=eastwest;whiteSpace=wrap;html=1;" parent="qbyrKcUKPjAhvGXzIgvA-12" vertex="1">
          <mxGeometry y="26" width="410" height="26" as="geometry" />
        </mxCell>
        <mxCell id="qbyrKcUKPjAhvGXzIgvA-14" value="" style="line;strokeWidth=1;align=left;verticalAlign=middle;spacingTop=-1;spacingLeft=3;spacingRight=3;rotatable=0;labelPosition=right;points=[];portConstraint=eastwest;" parent="qbyrKcUKPjAhvGXzIgvA-12" vertex="1">
          <mxGeometry y="52" width="410" height="8" as="geometry" />
        </mxCell>
        <mxCell id="qbyrKcUKPjAhvGXzIgvA-15" value="+&amp;nbsp;&lt;span style=&quot;text-align: center;&quot;&gt;AddUser&lt;/span&gt;(user: UserModel):&amp;nbsp;&lt;span style=&quot;text-align: center;&quot;&gt;ResponseMessage&amp;lt;boolean&amp;gt;&lt;/span&gt;" style="text;align=left;verticalAlign=top;spacingLeft=4;spacingRight=4;overflow=hidden;rotatable=0;points=[[0,0.5],[1,0.5]];portConstraint=eastwest;whiteSpace=wrap;html=1;" parent="qbyrKcUKPjAhvGXzIgvA-12" vertex="1">
          <mxGeometry y="60" width="410" height="26" as="geometry" />
        </mxCell>
        <mxCell id="qbyrKcUKPjAhvGXzIgvA-22" value="+&amp;nbsp;&lt;span style=&quot;text-align: center;&quot;&gt;RemoveUser&lt;/span&gt;(userName: String):&amp;nbsp;&lt;span style=&quot;text-align: center;&quot;&gt;ResponseMessage&amp;lt;&lt;/span&gt;&lt;span style=&quot;text-align: center;&quot;&gt;boolean&lt;/span&gt;&lt;span style=&quot;text-align: center;&quot;&gt;&amp;gt;&amp;nbsp;&lt;/span&gt;" style="text;align=left;verticalAlign=top;spacingLeft=4;spacingRight=4;overflow=hidden;rotatable=0;points=[[0,0.5],[1,0.5]];portConstraint=eastwest;whiteSpace=wrap;html=1;" parent="qbyrKcUKPjAhvGXzIgvA-12" vertex="1">
          <mxGeometry y="86" width="410" height="26" as="geometry" />
        </mxCell>
        <mxCell id="qbyrKcUKPjAhvGXzIgvA-23" value="+&amp;nbsp;&lt;span style=&quot;text-align: center;&quot;&gt;EditUser&lt;/span&gt;(userName: String, user: User):&amp;nbsp;&lt;span style=&quot;text-align: center;&quot;&gt;ResponseMessage&amp;lt;&lt;/span&gt;&lt;span style=&quot;text-align: center;&quot;&gt;boolean&lt;/span&gt;&lt;span style=&quot;text-align: center;&quot;&gt;&amp;gt;&amp;nbsp;&lt;/span&gt;" style="text;align=left;verticalAlign=top;spacingLeft=4;spacingRight=4;overflow=hidden;rotatable=0;points=[[0,0.5],[1,0.5]];portConstraint=eastwest;whiteSpace=wrap;html=1;" parent="qbyrKcUKPjAhvGXzIgvA-12" vertex="1">
          <mxGeometry y="112" width="410" height="26" as="geometry" />
        </mxCell>
        <mxCell id="qbyrKcUKPjAhvGXzIgvA-208" value="+&amp;nbsp;&lt;span style=&quot;text-align: center;&quot;&gt;Login&lt;/span&gt;(login: String, password: String):&amp;nbsp;&lt;span style=&quot;text-align: center;&quot;&gt;ResponseMessage&amp;lt;&lt;/span&gt;&lt;span style=&quot;text-align: center;&quot;&gt;boolean&lt;/span&gt;&lt;span style=&quot;text-align: center;&quot;&gt;&amp;gt;&amp;nbsp;&lt;/span&gt;" style="text;align=left;verticalAlign=top;spacingLeft=4;spacingRight=4;overflow=hidden;rotatable=0;points=[[0,0.5],[1,0.5]];portConstraint=eastwest;whiteSpace=wrap;html=1;" parent="qbyrKcUKPjAhvGXzIgvA-12" vertex="1">
          <mxGeometry y="138" width="410" height="26" as="geometry" />
        </mxCell>
        <mxCell id="qbyrKcUKPjAhvGXzIgvA-25" value="StreamUriController" style="swimlane;fontStyle=1;align=center;verticalAlign=top;childLayout=stackLayout;horizontal=1;startSize=26;horizontalStack=0;resizeParent=1;resizeParentMax=0;resizeLast=0;collapsible=1;marginBottom=0;whiteSpace=wrap;html=1;fillColor=#6d8764;fontColor=#ffffff;strokeColor=#3A5431;" parent="1" vertex="1">
          <mxGeometry x="-285" y="1002" width="390" height="112" as="geometry" />
        </mxCell>
        <mxCell id="qbyrKcUKPjAhvGXzIgvA-26" value="-&amp;nbsp;&lt;span style=&quot;text-align: center;&quot;&gt;I&lt;/span&gt;&lt;span style=&quot;text-align: center; background-color: initial;&quot;&gt;StreamUri&lt;/span&gt;&lt;span style=&quot;text-align: center; background-color: initial;&quot;&gt;RoutingManager&lt;/span&gt;:&amp;nbsp;&lt;span style=&quot;text-align: center;&quot;&gt;I&lt;/span&gt;&lt;span style=&quot;text-align: center; background-color: initial;&quot;&gt;StreamUri&lt;/span&gt;&lt;span style=&quot;text-align: center; background-color: initial;&quot;&gt;RoutingManager&lt;/span&gt;" style="text;align=left;verticalAlign=top;spacingLeft=4;spacingRight=4;overflow=hidden;rotatable=0;points=[[0,0.5],[1,0.5]];portConstraint=eastwest;whiteSpace=wrap;html=1;" parent="qbyrKcUKPjAhvGXzIgvA-25" vertex="1">
          <mxGeometry y="26" width="390" height="26" as="geometry" />
        </mxCell>
        <mxCell id="qbyrKcUKPjAhvGXzIgvA-27" value="" style="line;strokeWidth=1;align=left;verticalAlign=middle;spacingTop=-1;spacingLeft=3;spacingRight=3;rotatable=0;labelPosition=right;points=[];portConstraint=eastwest;" parent="qbyrKcUKPjAhvGXzIgvA-25" vertex="1">
          <mxGeometry y="52" width="390" height="8" as="geometry" />
        </mxCell>
        <mxCell id="qbyrKcUKPjAhvGXzIgvA-28" value="+&amp;nbsp;&lt;span style=&quot;text-align: center;&quot;&gt;GetStreamUri&lt;/span&gt;(string: contentName): ResponseMessage&amp;lt;string&amp;gt;" style="text;align=left;verticalAlign=top;spacingLeft=4;spacingRight=4;overflow=hidden;rotatable=0;points=[[0,0.5],[1,0.5]];portConstraint=eastwest;whiteSpace=wrap;html=1;" parent="qbyrKcUKPjAhvGXzIgvA-25" vertex="1">
          <mxGeometry y="60" width="390" height="26" as="geometry" />
        </mxCell>
        <mxCell id="qbyrKcUKPjAhvGXzIgvA-130" value="+&amp;nbsp;&lt;span style=&quot;text-align: center;&quot;&gt;GetUploadUri&lt;/span&gt;(): ResponseMessage&amp;lt;string&amp;gt;" style="text;align=left;verticalAlign=top;spacingLeft=4;spacingRight=4;overflow=hidden;rotatable=0;points=[[0,0.5],[1,0.5]];portConstraint=eastwest;whiteSpace=wrap;html=1;" parent="qbyrKcUKPjAhvGXzIgvA-25" vertex="1">
          <mxGeometry y="86" width="390" height="26" as="geometry" />
        </mxCell>
        <mxCell id="qbyrKcUKPjAhvGXzIgvA-31" value="&lt;b&gt;User&lt;/b&gt;" style="swimlane;fontStyle=0;childLayout=stackLayout;horizontal=1;startSize=26;horizontalStack=0;resizeParent=1;resizeParentMax=0;resizeLast=0;collapsible=1;marginBottom=0;whiteSpace=wrap;html=1;fillColor=#f8cecc;strokeColor=#b85450;" parent="1" vertex="1">
          <mxGeometry x="270" y="-240" width="140" height="182" as="geometry" />
        </mxCell>
        <mxCell id="qbyrKcUKPjAhvGXzIgvA-33" value="+ uuid: Guid" style="text;align=left;verticalAlign=top;spacingLeft=4;spacingRight=4;overflow=hidden;rotatable=0;points=[[0,0.5],[1,0.5]];portConstraint=eastwest;whiteSpace=wrap;html=1;" parent="qbyrKcUKPjAhvGXzIgvA-31" vertex="1">
          <mxGeometry y="26" width="140" height="26" as="geometry" />
        </mxCell>
        <mxCell id="sBjSpITZdoOLeIIE-7B9-58" value="+ name: String" style="text;align=left;verticalAlign=top;spacingLeft=4;spacingRight=4;overflow=hidden;rotatable=0;points=[[0,0.5],[1,0.5]];portConstraint=eastwest;whiteSpace=wrap;html=1;" parent="qbyrKcUKPjAhvGXzIgvA-31" vertex="1">
          <mxGeometry y="52" width="140" height="26" as="geometry" />
        </mxCell>
        <mxCell id="Iuk1dEieV5OjN-JEGwXN-37" value="+ login: String" style="text;align=left;verticalAlign=top;spacingLeft=4;spacingRight=4;overflow=hidden;rotatable=0;points=[[0,0.5],[1,0.5]];portConstraint=eastwest;whiteSpace=wrap;html=1;" parent="qbyrKcUKPjAhvGXzIgvA-31" vertex="1">
          <mxGeometry y="78" width="140" height="26" as="geometry" />
        </mxCell>
        <mxCell id="qbyrKcUKPjAhvGXzIgvA-34" value="+ password: String" style="text;align=left;verticalAlign=top;spacingLeft=4;spacingRight=4;overflow=hidden;rotatable=0;points=[[0,0.5],[1,0.5]];portConstraint=eastwest;whiteSpace=wrap;html=1;" parent="qbyrKcUKPjAhvGXzIgvA-31" vertex="1">
          <mxGeometry y="104" width="140" height="26" as="geometry" />
        </mxCell>
        <mxCell id="Iuk1dEieV5OjN-JEGwXN-24" value="+ mail: String" style="text;align=left;verticalAlign=top;spacingLeft=4;spacingRight=4;overflow=hidden;rotatable=0;points=[[0,0.5],[1,0.5]];portConstraint=eastwest;whiteSpace=wrap;html=1;" parent="qbyrKcUKPjAhvGXzIgvA-31" vertex="1">
          <mxGeometry y="130" width="140" height="26" as="geometry" />
        </mxCell>
        <mxCell id="Iuk1dEieV5OjN-JEGwXN-29" value="+ level: UserLevel" style="text;align=left;verticalAlign=top;spacingLeft=4;spacingRight=4;overflow=hidden;rotatable=0;points=[[0,0.5],[1,0.5]];portConstraint=eastwest;whiteSpace=wrap;html=1;" parent="qbyrKcUKPjAhvGXzIgvA-31" vertex="1">
          <mxGeometry y="156" width="140" height="26" as="geometry" />
        </mxCell>
        <mxCell id="qbyrKcUKPjAhvGXzIgvA-35" value="ContentCommentController" style="swimlane;fontStyle=1;align=center;verticalAlign=top;childLayout=stackLayout;horizontal=1;startSize=26;horizontalStack=0;resizeParent=1;resizeParentMax=0;resizeLast=0;collapsible=1;marginBottom=0;whiteSpace=wrap;html=1;fillColor=#6d8764;fontColor=#ffffff;strokeColor=#3A5431;" parent="1" vertex="1">
          <mxGeometry x="-310" y="481" width="440" height="138" as="geometry" />
        </mxCell>
        <mxCell id="qbyrKcUKPjAhvGXzIgvA-36" value="- c&lt;span style=&quot;text-align: center;&quot;&gt;ontentCommentRoutingManager&lt;/span&gt;:&amp;nbsp;&lt;span style=&quot;text-align: center;&quot;&gt;IContentCommentRoutingManager&lt;/span&gt;" style="text;align=left;verticalAlign=top;spacingLeft=4;spacingRight=4;overflow=hidden;rotatable=0;points=[[0,0.5],[1,0.5]];portConstraint=eastwest;whiteSpace=wrap;html=1;" parent="qbyrKcUKPjAhvGXzIgvA-35" vertex="1">
          <mxGeometry y="26" width="440" height="26" as="geometry" />
        </mxCell>
        <mxCell id="qbyrKcUKPjAhvGXzIgvA-37" value="" style="line;strokeWidth=1;align=left;verticalAlign=middle;spacingTop=-1;spacingLeft=3;spacingRight=3;rotatable=0;labelPosition=right;points=[];portConstraint=eastwest;" parent="qbyrKcUKPjAhvGXzIgvA-35" vertex="1">
          <mxGeometry y="52" width="440" height="8" as="geometry" />
        </mxCell>
        <mxCell id="qbyrKcUKPjAhvGXzIgvA-38" value="+&amp;nbsp;&lt;span style=&quot;text-align: center;&quot;&gt;RemoveComment&lt;/span&gt;(uuid: Guid):&amp;nbsp;&lt;span style=&quot;text-align: center;&quot;&gt;ResponseMessage&amp;lt;boolean&amp;gt;&amp;nbsp;&lt;/span&gt;" style="text;align=left;verticalAlign=top;spacingLeft=4;spacingRight=4;overflow=hidden;rotatable=0;points=[[0,0.5],[1,0.5]];portConstraint=eastwest;whiteSpace=wrap;html=1;" parent="qbyrKcUKPjAhvGXzIgvA-35" vertex="1">
          <mxGeometry y="60" width="440" height="26" as="geometry" />
        </mxCell>
        <mxCell id="qbyrKcUKPjAhvGXzIgvA-39" value="+&amp;nbsp;&lt;span style=&quot;text-align: center;&quot;&gt;EditComment&lt;/span&gt;(uuid: Guid):&amp;nbsp;&lt;span style=&quot;text-align: center;&quot;&gt;ResponseMessage&amp;lt;&lt;/span&gt;&lt;span style=&quot;text-align: center;&quot;&gt;boolean&lt;/span&gt;&lt;span style=&quot;text-align: center;&quot;&gt;&amp;gt;&amp;nbsp;&lt;/span&gt;" style="text;align=left;verticalAlign=top;spacingLeft=4;spacingRight=4;overflow=hidden;rotatable=0;points=[[0,0.5],[1,0.5]];portConstraint=eastwest;whiteSpace=wrap;html=1;" parent="qbyrKcUKPjAhvGXzIgvA-35" vertex="1">
          <mxGeometry y="86" width="440" height="26" as="geometry" />
        </mxCell>
        <mxCell id="qbyrKcUKPjAhvGXzIgvA-40" value="+&amp;nbsp;&lt;span style=&quot;text-align: center;&quot;&gt;AddComment&lt;/span&gt;(comment:&amp;nbsp;&lt;span style=&quot;text-align: center;&quot;&gt;CommentModel&lt;/span&gt;):&amp;nbsp;&lt;span style=&quot;text-align: center;&quot;&gt;ResponseMessage&amp;lt;&lt;/span&gt;&lt;span style=&quot;text-align: center;&quot;&gt;boolean&lt;/span&gt;&lt;span style=&quot;text-align: center;&quot;&gt;&amp;gt;&lt;/span&gt;" style="text;align=left;verticalAlign=top;spacingLeft=4;spacingRight=4;overflow=hidden;rotatable=0;points=[[0,0.5],[1,0.5]];portConstraint=eastwest;whiteSpace=wrap;html=1;" parent="qbyrKcUKPjAhvGXzIgvA-35" vertex="1">
          <mxGeometry y="112" width="440" height="26" as="geometry" />
        </mxCell>
        <mxCell id="qbyrKcUKPjAhvGXzIgvA-41" value="&lt;b&gt;ContentComment&lt;/b&gt;" style="swimlane;fontStyle=0;childLayout=stackLayout;horizontal=1;startSize=26;horizontalStack=0;resizeParent=1;resizeParentMax=0;resizeLast=0;collapsible=1;marginBottom=0;whiteSpace=wrap;html=1;fillColor=#f8cecc;strokeColor=#b85450;" parent="1" vertex="1">
          <mxGeometry x="900" y="-243" width="160" height="130" as="geometry" />
        </mxCell>
        <mxCell id="qbyrKcUKPjAhvGXzIgvA-42" value="+ uuid: Guid" style="text;align=left;verticalAlign=top;spacingLeft=4;spacingRight=4;overflow=hidden;rotatable=0;points=[[0,0.5],[1,0.5]];portConstraint=eastwest;whiteSpace=wrap;html=1;" parent="qbyrKcUKPjAhvGXzIgvA-41" vertex="1">
          <mxGeometry y="26" width="160" height="26" as="geometry" />
        </mxCell>
        <mxCell id="qbyrKcUKPjAhvGXzIgvA-43" value="+ content: text" style="text;align=left;verticalAlign=top;spacingLeft=4;spacingRight=4;overflow=hidden;rotatable=0;points=[[0,0.5],[1,0.5]];portConstraint=eastwest;whiteSpace=wrap;html=1;" parent="qbyrKcUKPjAhvGXzIgvA-41" vertex="1">
          <mxGeometry y="52" width="160" height="26" as="geometry" />
        </mxCell>
        <mxCell id="qbyrKcUKPjAhvGXzIgvA-44" value="+ creationTime: datetime" style="text;align=left;verticalAlign=top;spacingLeft=4;spacingRight=4;overflow=hidden;rotatable=0;points=[[0,0.5],[1,0.5]];portConstraint=eastwest;whiteSpace=wrap;html=1;" parent="qbyrKcUKPjAhvGXzIgvA-41" vertex="1">
          <mxGeometry y="78" width="160" height="26" as="geometry" />
        </mxCell>
        <mxCell id="qbyrKcUKPjAhvGXzIgvA-45" value="+ authorName: string" style="text;align=left;verticalAlign=top;spacingLeft=4;spacingRight=4;overflow=hidden;rotatable=0;points=[[0,0.5],[1,0.5]];portConstraint=eastwest;whiteSpace=wrap;html=1;" parent="qbyrKcUKPjAhvGXzIgvA-41" vertex="1">
          <mxGeometry y="104" width="160" height="26" as="geometry" />
        </mxCell>
        <mxCell id="qbyrKcUKPjAhvGXzIgvA-50" value="ContentController" style="swimlane;fontStyle=1;align=center;verticalAlign=top;childLayout=stackLayout;horizontal=1;startSize=26;horizontalStack=0;resizeParent=1;resizeParentMax=0;resizeLast=0;collapsible=1;marginBottom=0;whiteSpace=wrap;html=1;fillColor=#6d8764;fontColor=#ffffff;strokeColor=#3A5431;" parent="1" vertex="1">
          <mxGeometry x="-470" y="723.5" width="600" height="164" as="geometry" />
        </mxCell>
        <mxCell id="qbyrKcUKPjAhvGXzIgvA-51" value="- c&lt;span style=&quot;text-align: center;&quot;&gt;ontent&lt;/span&gt;&lt;span style=&quot;text-align: center;&quot;&gt;RoutingManager&lt;/span&gt;:&amp;nbsp;&lt;span style=&quot;text-align: center;&quot;&gt;I&lt;/span&gt;&lt;span style=&quot;text-align: center;&quot;&gt;Content&lt;/span&gt;&lt;span style=&quot;text-align: center;&quot;&gt;RoutingManager&lt;/span&gt;" style="text;align=left;verticalAlign=top;spacingLeft=4;spacingRight=4;overflow=hidden;rotatable=0;points=[[0,0.5],[1,0.5]];portConstraint=eastwest;whiteSpace=wrap;html=1;" parent="qbyrKcUKPjAhvGXzIgvA-50" vertex="1">
          <mxGeometry y="26" width="600" height="26" as="geometry" />
        </mxCell>
        <mxCell id="qbyrKcUKPjAhvGXzIgvA-52" value="" style="line;strokeWidth=1;align=left;verticalAlign=middle;spacingTop=-1;spacingLeft=3;spacingRight=3;rotatable=0;labelPosition=right;points=[];portConstraint=eastwest;" parent="qbyrKcUKPjAhvGXzIgvA-50" vertex="1">
          <mxGeometry y="52" width="600" height="8" as="geometry" />
        </mxCell>
        <mxCell id="qbyrKcUKPjAhvGXzIgvA-53" value="+ Get&lt;span style=&quot;text-align: center;&quot;&gt;Content&lt;/span&gt;(contentName: string): ResponseMessage&amp;lt;ContentModel&amp;gt;" style="text;align=left;verticalAlign=top;spacingLeft=4;spacingRight=4;overflow=hidden;rotatable=0;points=[[0,0.5],[1,0.5]];portConstraint=eastwest;whiteSpace=wrap;html=1;" parent="qbyrKcUKPjAhvGXzIgvA-50" vertex="1">
          <mxGeometry y="60" width="600" height="26" as="geometry" />
        </mxCell>
        <mxCell id="qbyrKcUKPjAhvGXzIgvA-59" value="+&amp;nbsp;&lt;span style=&quot;text-align: center;&quot;&gt;EditContent&lt;/span&gt;(contentName: string, content: ContentModel): ResponseMessage&amp;lt;ContentModel&amp;gt;" style="text;align=left;verticalAlign=top;spacingLeft=4;spacingRight=4;overflow=hidden;rotatable=0;points=[[0,0.5],[1,0.5]];portConstraint=eastwest;whiteSpace=wrap;html=1;" parent="qbyrKcUKPjAhvGXzIgvA-50" vertex="1">
          <mxGeometry y="86" width="600" height="26" as="geometry" />
        </mxCell>
        <mxCell id="qbyrKcUKPjAhvGXzIgvA-60" value="+&amp;nbsp;&lt;span style=&quot;text-align: center;&quot;&gt;UploadContent&lt;/span&gt;(content: ContentModel, license: LicenseModel): ResponseMessage&amp;lt;boolean&amp;gt;" style="text;align=left;verticalAlign=top;spacingLeft=4;spacingRight=4;overflow=hidden;rotatable=0;points=[[0,0.5],[1,0.5]];portConstraint=eastwest;whiteSpace=wrap;html=1;" parent="qbyrKcUKPjAhvGXzIgvA-50" vertex="1">
          <mxGeometry y="112" width="600" height="26" as="geometry" />
        </mxCell>
        <mxCell id="qbyrKcUKPjAhvGXzIgvA-68" value="+&amp;nbsp;&lt;span style=&quot;text-align: center;&quot;&gt;DeleteContent&lt;/span&gt;(Content, License): ResponseMessage&amp;lt;ContentModel&amp;gt;" style="text;align=left;verticalAlign=top;spacingLeft=4;spacingRight=4;overflow=hidden;rotatable=0;points=[[0,0.5],[1,0.5]];portConstraint=eastwest;whiteSpace=wrap;html=1;" parent="qbyrKcUKPjAhvGXzIgvA-50" vertex="1">
          <mxGeometry y="138" width="600" height="26" as="geometry" />
        </mxCell>
        <mxCell id="qbyrKcUKPjAhvGXzIgvA-54" value="&lt;b&gt;Content&lt;/b&gt;" style="swimlane;fontStyle=0;childLayout=stackLayout;horizontal=1;startSize=26;horizontalStack=0;resizeParent=1;resizeParentMax=0;resizeLast=0;collapsible=1;marginBottom=0;whiteSpace=wrap;html=1;fillColor=#f8cecc;strokeColor=#b85450;" parent="1" vertex="1">
          <mxGeometry x="480" y="-240" width="160" height="156" as="geometry" />
        </mxCell>
        <mxCell id="Iuk1dEieV5OjN-JEGwXN-49" value="+ uuid: Guid" style="text;align=left;verticalAlign=top;spacingLeft=4;spacingRight=4;overflow=hidden;rotatable=0;points=[[0,0.5],[1,0.5]];portConstraint=eastwest;whiteSpace=wrap;html=1;" parent="qbyrKcUKPjAhvGXzIgvA-54" vertex="1">
          <mxGeometry y="26" width="160" height="26" as="geometry" />
        </mxCell>
        <mxCell id="qbyrKcUKPjAhvGXzIgvA-56" value="+ name: string" style="text;align=left;verticalAlign=top;spacingLeft=4;spacingRight=4;overflow=hidden;rotatable=0;points=[[0,0.5],[1,0.5]];portConstraint=eastwest;whiteSpace=wrap;html=1;" parent="qbyrKcUKPjAhvGXzIgvA-54" vertex="1">
          <mxGeometry y="52" width="160" height="26" as="geometry" />
        </mxCell>
        <mxCell id="qbyrKcUKPjAhvGXzIgvA-57" value="+ uploadTime: datetime" style="text;align=left;verticalAlign=top;spacingLeft=4;spacingRight=4;overflow=hidden;rotatable=0;points=[[0,0.5],[1,0.5]];portConstraint=eastwest;whiteSpace=wrap;html=1;" parent="qbyrKcUKPjAhvGXzIgvA-54" vertex="1">
          <mxGeometry y="78" width="160" height="26" as="geometry" />
        </mxCell>
        <mxCell id="qbyrKcUKPjAhvGXzIgvA-58" value="+ description: string" style="text;align=left;verticalAlign=top;spacingLeft=4;spacingRight=4;overflow=hidden;rotatable=0;points=[[0,0.5],[1,0.5]];portConstraint=eastwest;whiteSpace=wrap;html=1;" parent="qbyrKcUKPjAhvGXzIgvA-54" vertex="1">
          <mxGeometry y="104" width="160" height="26" as="geometry" />
        </mxCell>
        <mxCell id="Iuk1dEieV5OjN-JEGwXN-30" value="+ comments: Comment[]" style="text;align=left;verticalAlign=top;spacingLeft=4;spacingRight=4;overflow=hidden;rotatable=0;points=[[0,0.5],[1,0.5]];portConstraint=eastwest;whiteSpace=wrap;html=1;" parent="qbyrKcUKPjAhvGXzIgvA-54" vertex="1">
          <mxGeometry y="130" width="160" height="26" as="geometry" />
        </mxCell>
        <mxCell id="qbyrKcUKPjAhvGXzIgvA-62" value="&lt;b&gt;ContentLicense&lt;/b&gt;" style="swimlane;fontStyle=0;childLayout=stackLayout;horizontal=1;startSize=26;horizontalStack=0;resizeParent=1;resizeParentMax=0;resizeLast=0;collapsible=1;marginBottom=0;whiteSpace=wrap;html=1;fillColor=#f8cecc;strokeColor=#b85450;" parent="1" vertex="1">
          <mxGeometry x="690" y="-243" width="160" height="234" as="geometry" />
        </mxCell>
        <mxCell id="sBjSpITZdoOLeIIE-7B9-57" value="+ uuid: Guid" style="text;align=left;verticalAlign=top;spacingLeft=4;spacingRight=4;overflow=hidden;rotatable=0;points=[[0,0.5],[1,0.5]];portConstraint=eastwest;whiteSpace=wrap;html=1;" parent="qbyrKcUKPjAhvGXzIgvA-62" vertex="1">
          <mxGeometry y="26" width="160" height="26" as="geometry" />
        </mxCell>
        <mxCell id="Iuk1dEieV5OjN-JEGwXN-50" value="+ userId: Guid" style="text;align=left;verticalAlign=top;spacingLeft=4;spacingRight=4;overflow=hidden;rotatable=0;points=[[0,0.5],[1,0.5]];portConstraint=eastwest;whiteSpace=wrap;html=1;" parent="qbyrKcUKPjAhvGXzIgvA-62" vertex="1">
          <mxGeometry y="52" width="160" height="26" as="geometry" />
        </mxCell>
        <mxCell id="qbyrKcUKPjAhvGXzIgvA-64" value="+ contentId: Guid" style="text;align=left;verticalAlign=top;spacingLeft=4;spacingRight=4;overflow=hidden;rotatable=0;points=[[0,0.5],[1,0.5]];portConstraint=eastwest;whiteSpace=wrap;html=1;" parent="qbyrKcUKPjAhvGXzIgvA-62" vertex="1">
          <mxGeometry y="78" width="160" height="26" as="geometry" />
        </mxCell>
        <mxCell id="qbyrKcUKPjAhvGXzIgvA-65" value="+ uploadTime: datetime" style="text;align=left;verticalAlign=top;spacingLeft=4;spacingRight=4;overflow=hidden;rotatable=0;points=[[0,0.5],[1,0.5]];portConstraint=eastwest;whiteSpace=wrap;html=1;" parent="qbyrKcUKPjAhvGXzIgvA-62" vertex="1">
          <mxGeometry y="104" width="160" height="26" as="geometry" />
        </mxCell>
        <mxCell id="qbyrKcUKPjAhvGXzIgvA-66" value="+ description: string" style="text;align=left;verticalAlign=top;spacingLeft=4;spacingRight=4;overflow=hidden;rotatable=0;points=[[0,0.5],[1,0.5]];portConstraint=eastwest;whiteSpace=wrap;html=1;" parent="qbyrKcUKPjAhvGXzIgvA-62" vertex="1">
          <mxGeometry y="130" width="160" height="26" as="geometry" />
        </mxCell>
        <mxCell id="Iuk1dEieV5OjN-JEGwXN-48" value="+ expirationTime: datetime" style="text;align=left;verticalAlign=top;spacingLeft=4;spacingRight=4;overflow=hidden;rotatable=0;points=[[0,0.5],[1,0.5]];portConstraint=eastwest;whiteSpace=wrap;html=1;" parent="qbyrKcUKPjAhvGXzIgvA-62" vertex="1">
          <mxGeometry y="156" width="160" height="26" as="geometry" />
        </mxCell>
        <mxCell id="sBjSpITZdoOLeIIE-7B9-48" value="+ licenseType: LicenseType" style="text;align=left;verticalAlign=top;spacingLeft=4;spacingRight=4;overflow=hidden;rotatable=0;points=[[0,0.5],[1,0.5]];portConstraint=eastwest;whiteSpace=wrap;html=1;" parent="qbyrKcUKPjAhvGXzIgvA-62" vertex="1">
          <mxGeometry y="182" width="160" height="26" as="geometry" />
        </mxCell>
        <mxCell id="sBjSpITZdoOLeIIE-7B9-49" value="+ status: LicenseStatus" style="text;align=left;verticalAlign=top;spacingLeft=4;spacingRight=4;overflow=hidden;rotatable=0;points=[[0,0.5],[1,0.5]];portConstraint=eastwest;whiteSpace=wrap;html=1;" parent="qbyrKcUKPjAhvGXzIgvA-62" vertex="1">
          <mxGeometry y="208" width="160" height="26" as="geometry" />
        </mxCell>
        <mxCell id="qbyrKcUKPjAhvGXzIgvA-69" value="ResponseMessage&amp;lt;T&amp;gt;&amp;nbsp;" style="swimlane;fontStyle=0;childLayout=stackLayout;horizontal=1;startSize=26;horizontalStack=0;resizeParent=1;resizeParentMax=0;resizeLast=0;collapsible=1;marginBottom=0;whiteSpace=wrap;html=1;fillColor=#fad9d5;strokeColor=#ae4132;" parent="1" vertex="1">
          <mxGeometry x="-140" y="-9" width="160" height="104" as="geometry" />
        </mxCell>
        <mxCell id="qbyrKcUKPjAhvGXzIgvA-70" value="+ body: T" style="text;align=left;verticalAlign=top;spacingLeft=4;spacingRight=4;overflow=hidden;rotatable=0;points=[[0,0.5],[1,0.5]];portConstraint=eastwest;whiteSpace=wrap;html=1;" parent="qbyrKcUKPjAhvGXzIgvA-69" vertex="1">
          <mxGeometry y="26" width="160" height="26" as="geometry" />
        </mxCell>
        <mxCell id="qbyrKcUKPjAhvGXzIgvA-71" value="+ returnCode: int" style="text;align=left;verticalAlign=top;spacingLeft=4;spacingRight=4;overflow=hidden;rotatable=0;points=[[0,0.5],[1,0.5]];portConstraint=eastwest;whiteSpace=wrap;html=1;" parent="qbyrKcUKPjAhvGXzIgvA-69" vertex="1">
          <mxGeometry y="52" width="160" height="26" as="geometry" />
        </mxCell>
        <mxCell id="qbyrKcUKPjAhvGXzIgvA-72" value="+ errorMessage: text" style="text;align=left;verticalAlign=top;spacingLeft=4;spacingRight=4;overflow=hidden;rotatable=0;points=[[0,0.5],[1,0.5]];portConstraint=eastwest;whiteSpace=wrap;html=1;" parent="qbyrKcUKPjAhvGXzIgvA-69" vertex="1">
          <mxGeometry y="78" width="160" height="26" as="geometry" />
        </mxCell>
        <mxCell id="qbyrKcUKPjAhvGXzIgvA-74" value="&lt;b&gt;PaymantProxyAPI&lt;/b&gt;" style="swimlane;fontStyle=1;align=center;verticalAlign=top;childLayout=stackLayout;horizontal=1;startSize=26;horizontalStack=0;resizeParent=1;resizeParentMax=0;resizeLast=0;collapsible=1;marginBottom=0;whiteSpace=wrap;html=1;fillColor=#f5f5f5;fontColor=#333333;strokeColor=#666666;" parent="1" vertex="1">
          <mxGeometry x="2553.75" y="1672" width="160" height="86" as="geometry" />
        </mxCell>
        <mxCell id="qbyrKcUKPjAhvGXzIgvA-75" value="+ field: type" style="text;align=left;verticalAlign=top;spacingLeft=4;spacingRight=4;overflow=hidden;rotatable=0;points=[[0,0.5],[1,0.5]];portConstraint=eastwest;whiteSpace=wrap;html=1;fillColor=#f5f5f5;fontColor=#333333;strokeColor=#666666;" parent="qbyrKcUKPjAhvGXzIgvA-74" vertex="1">
          <mxGeometry y="26" width="160" height="26" as="geometry" />
        </mxCell>
        <mxCell id="qbyrKcUKPjAhvGXzIgvA-76" value="" style="line;strokeWidth=1;align=left;verticalAlign=middle;spacingTop=-1;spacingLeft=3;spacingRight=3;rotatable=0;labelPosition=right;points=[];portConstraint=eastwest;fillColor=#f5f5f5;fontColor=#333333;strokeColor=#666666;" parent="qbyrKcUKPjAhvGXzIgvA-74" vertex="1">
          <mxGeometry y="52" width="160" height="8" as="geometry" />
        </mxCell>
        <mxCell id="qbyrKcUKPjAhvGXzIgvA-77" value="+ method(type): type" style="text;align=left;verticalAlign=top;spacingLeft=4;spacingRight=4;overflow=hidden;rotatable=0;points=[[0,0.5],[1,0.5]];portConstraint=eastwest;whiteSpace=wrap;html=1;fillColor=#f5f5f5;fontColor=#333333;strokeColor=#666666;" parent="qbyrKcUKPjAhvGXzIgvA-74" vertex="1">
          <mxGeometry y="60" width="160" height="26" as="geometry" />
        </mxCell>
        <mxCell id="qbyrKcUKPjAhvGXzIgvA-78" value="«interface»&lt;br&gt;&lt;b&gt;IPaymantHandler&lt;/b&gt;" style="html=1;whiteSpace=wrap;fillColor=#f5f5f5;fontColor=#333333;strokeColor=#666666;" parent="1" vertex="1">
          <mxGeometry x="1806.25" y="1661" width="140" height="40" as="geometry" />
        </mxCell>
        <mxCell id="qbyrKcUKPjAhvGXzIgvA-81" value="" style="endArrow=block;dashed=1;endFill=0;endSize=12;html=1;rounded=0;exitX=0;exitY=0.25;exitDx=0;exitDy=0;entryX=1;entryY=0.5;entryDx=0;entryDy=0;" parent="1" source="27qRcpsZxuToWlD_OpyJ-125" target="sBjSpITZdoOLeIIE-7B9-168" edge="1">
          <mxGeometry width="160" relative="1" as="geometry">
            <mxPoint x="2180.96" y="809.1379999999999" as="sourcePoint" />
            <mxPoint x="2480" y="750" as="targetPoint" />
          </mxGeometry>
        </mxCell>
        <mxCell id="qbyrKcUKPjAhvGXzIgvA-82" value="&lt;b&gt;ContentMetadataServiceAPI&lt;/b&gt;" style="swimlane;fontStyle=1;align=center;verticalAlign=top;childLayout=stackLayout;horizontal=1;startSize=26;horizontalStack=0;resizeParent=1;resizeParentMax=0;resizeLast=0;collapsible=1;marginBottom=0;whiteSpace=wrap;html=1;" parent="1" vertex="1">
          <mxGeometry x="2565" y="559.5" width="185" height="86" as="geometry" />
        </mxCell>
        <mxCell id="qbyrKcUKPjAhvGXzIgvA-83" value="+ field: type" style="text;align=left;verticalAlign=top;spacingLeft=4;spacingRight=4;overflow=hidden;rotatable=0;points=[[0,0.5],[1,0.5]];portConstraint=eastwest;whiteSpace=wrap;html=1;" parent="qbyrKcUKPjAhvGXzIgvA-82" vertex="1">
          <mxGeometry y="26" width="185" height="26" as="geometry" />
        </mxCell>
        <mxCell id="qbyrKcUKPjAhvGXzIgvA-84" value="" style="line;strokeWidth=1;align=left;verticalAlign=middle;spacingTop=-1;spacingLeft=3;spacingRight=3;rotatable=0;labelPosition=right;points=[];portConstraint=eastwest;" parent="qbyrKcUKPjAhvGXzIgvA-82" vertex="1">
          <mxGeometry y="52" width="185" height="8" as="geometry" />
        </mxCell>
        <mxCell id="qbyrKcUKPjAhvGXzIgvA-85" value="+ method(type): type" style="text;align=left;verticalAlign=top;spacingLeft=4;spacingRight=4;overflow=hidden;rotatable=0;points=[[0,0.5],[1,0.5]];portConstraint=eastwest;whiteSpace=wrap;html=1;" parent="qbyrKcUKPjAhvGXzIgvA-82" vertex="1">
          <mxGeometry y="60" width="185" height="26" as="geometry" />
        </mxCell>
        <mxCell id="qbyrKcUKPjAhvGXzIgvA-86" value="" style="endArrow=block;dashed=1;endFill=0;endSize=12;html=1;rounded=0;exitX=0.006;exitY=0.174;exitDx=0;exitDy=0;exitPerimeter=0;entryX=1;entryY=0.5;entryDx=0;entryDy=0;" parent="1" source="qbyrKcUKPjAhvGXzIgvA-82" target="sBjSpITZdoOLeIIE-7B9-167" edge="1">
          <mxGeometry width="160" relative="1" as="geometry">
            <mxPoint x="2060" y="546" as="sourcePoint" />
            <mxPoint x="2130" y="569" as="targetPoint" />
          </mxGeometry>
        </mxCell>
        <mxCell id="qbyrKcUKPjAhvGXzIgvA-87" value="" style="endArrow=block;dashed=1;endFill=0;endSize=12;html=1;rounded=0;entryX=1;entryY=0.25;entryDx=0;entryDy=0;exitX=-0.001;exitY=0.11;exitDx=0;exitDy=0;exitPerimeter=0;" parent="1" source="qbyrKcUKPjAhvGXzIgvA-88" target="qbyrKcUKPjAhvGXzIgvA-239" edge="1">
          <mxGeometry width="160" relative="1" as="geometry">
            <mxPoint x="2120" y="1210" as="sourcePoint" />
            <mxPoint x="2022.5" y="1210.0000000000005" as="targetPoint" />
          </mxGeometry>
        </mxCell>
        <mxCell id="qbyrKcUKPjAhvGXzIgvA-88" value="StreamGatewayAPI" style="swimlane;fontStyle=1;align=center;verticalAlign=top;childLayout=stackLayout;horizontal=1;startSize=26;horizontalStack=0;resizeParent=1;resizeParentMax=0;resizeLast=0;collapsible=1;marginBottom=0;whiteSpace=wrap;html=1;" parent="1" vertex="1">
          <mxGeometry x="2570" y="1194" width="175" height="86" as="geometry" />
        </mxCell>
        <mxCell id="qbyrKcUKPjAhvGXzIgvA-89" value="+ field: type" style="text;align=left;verticalAlign=top;spacingLeft=4;spacingRight=4;overflow=hidden;rotatable=0;points=[[0,0.5],[1,0.5]];portConstraint=eastwest;whiteSpace=wrap;html=1;" parent="qbyrKcUKPjAhvGXzIgvA-88" vertex="1">
          <mxGeometry y="26" width="175" height="26" as="geometry" />
        </mxCell>
        <mxCell id="qbyrKcUKPjAhvGXzIgvA-90" value="" style="line;strokeWidth=1;align=left;verticalAlign=middle;spacingTop=-1;spacingLeft=3;spacingRight=3;rotatable=0;labelPosition=right;points=[];portConstraint=eastwest;" parent="qbyrKcUKPjAhvGXzIgvA-88" vertex="1">
          <mxGeometry y="52" width="175" height="8" as="geometry" />
        </mxCell>
        <mxCell id="qbyrKcUKPjAhvGXzIgvA-91" value="+ method(type): type" style="text;align=left;verticalAlign=top;spacingLeft=4;spacingRight=4;overflow=hidden;rotatable=0;points=[[0,0.5],[1,0.5]];portConstraint=eastwest;whiteSpace=wrap;html=1;" parent="qbyrKcUKPjAhvGXzIgvA-88" vertex="1">
          <mxGeometry y="60" width="175" height="26" as="geometry" />
        </mxCell>
        <mxCell id="qbyrKcUKPjAhvGXzIgvA-131" value="" style="endArrow=classic;html=1;rounded=0;entryX=0;entryY=0.199;entryDx=0;entryDy=0;exitX=1;exitY=0.5;exitDx=0;exitDy=0;entryPerimeter=0;" parent="1" source="qbyrKcUKPjAhvGXzIgvA-51" target="qbyrKcUKPjAhvGXzIgvA-230" edge="1">
          <mxGeometry width="50" height="50" relative="1" as="geometry">
            <mxPoint x="205" y="760" as="sourcePoint" />
            <mxPoint x="287.5" y="762.5" as="targetPoint" />
          </mxGeometry>
        </mxCell>
        <mxCell id="qbyrKcUKPjAhvGXzIgvA-134" value="Content&lt;b&gt;Router&lt;/b&gt;" style="swimlane;fontStyle=1;align=center;verticalAlign=top;childLayout=stackLayout;horizontal=1;startSize=26;horizontalStack=0;resizeParent=1;resizeParentMax=0;resizeLast=0;collapsible=1;marginBottom=0;whiteSpace=wrap;html=1;fillColor=#dae8fc;strokeColor=#6c8ebf;" parent="1" vertex="1">
          <mxGeometry x="810" y="916.5" width="260" height="216" as="geometry" />
        </mxCell>
        <mxCell id="qbyrKcUKPjAhvGXzIgvA-135" value="- c&lt;span style=&quot;text-align: center;&quot;&gt;ontent&lt;/span&gt;&lt;span style=&quot;text-align: center;&quot;&gt;Fasade&lt;/span&gt;:&amp;nbsp;&lt;span style=&quot;text-align: center;&quot;&gt;I&lt;/span&gt;&lt;span style=&quot;text-align: center;&quot;&gt;Content&lt;/span&gt;&lt;span style=&quot;text-align: center;&quot;&gt;Fasade&lt;/span&gt;" style="text;strokeColor=none;fillColor=none;align=left;verticalAlign=top;spacingLeft=4;spacingRight=4;overflow=hidden;rotatable=0;points=[[0,0.5],[1,0.5]];portConstraint=eastwest;whiteSpace=wrap;html=1;" parent="qbyrKcUKPjAhvGXzIgvA-134" vertex="1">
          <mxGeometry y="26" width="260" height="26" as="geometry" />
        </mxCell>
        <mxCell id="qbyrKcUKPjAhvGXzIgvA-137" value="- r&lt;span style=&quot;text-align: center;&quot;&gt;ateLimiter&lt;/span&gt;:&amp;nbsp;&lt;span style=&quot;text-align: center;&quot;&gt;IRateLimiter&lt;/span&gt;" style="text;strokeColor=none;fillColor=none;align=left;verticalAlign=top;spacingLeft=4;spacingRight=4;overflow=hidden;rotatable=0;points=[[0,0.5],[1,0.5]];portConstraint=eastwest;whiteSpace=wrap;html=1;" parent="qbyrKcUKPjAhvGXzIgvA-134" vertex="1">
          <mxGeometry y="52" width="260" height="26" as="geometry" />
        </mxCell>
        <mxCell id="Iuk1dEieV5OjN-JEGwXN-2" value="- authorizer:&amp;nbsp;&lt;span style=&quot;text-align: center;&quot;&gt;I&lt;/span&gt;&lt;span style=&quot;background-color: initial; text-align: center;&quot;&gt;Autorizer&lt;/span&gt;" style="text;strokeColor=none;fillColor=none;align=left;verticalAlign=top;spacingLeft=4;spacingRight=4;overflow=hidden;rotatable=0;points=[[0,0.5],[1,0.5]];portConstraint=eastwest;whiteSpace=wrap;html=1;" parent="qbyrKcUKPjAhvGXzIgvA-134" vertex="1">
          <mxGeometry y="78" width="260" height="26" as="geometry" />
        </mxCell>
        <mxCell id="qbyrKcUKPjAhvGXzIgvA-138" value="" style="line;strokeWidth=1;fillColor=none;align=left;verticalAlign=middle;spacingTop=-1;spacingLeft=3;spacingRight=3;rotatable=0;labelPosition=right;points=[];portConstraint=eastwest;strokeColor=inherit;" parent="qbyrKcUKPjAhvGXzIgvA-134" vertex="1">
          <mxGeometry y="104" width="260" height="8" as="geometry" />
        </mxCell>
        <mxCell id="qbyrKcUKPjAhvGXzIgvA-139" value="+ Get&lt;span style=&quot;text-align: center;&quot;&gt;Content&lt;/span&gt;(string): Content" style="text;strokeColor=none;fillColor=none;align=left;verticalAlign=top;spacingLeft=4;spacingRight=4;overflow=hidden;rotatable=0;points=[[0,0.5],[1,0.5]];portConstraint=eastwest;whiteSpace=wrap;html=1;" parent="qbyrKcUKPjAhvGXzIgvA-134" vertex="1">
          <mxGeometry y="112" width="260" height="26" as="geometry" />
        </mxCell>
        <mxCell id="qbyrKcUKPjAhvGXzIgvA-140" value="+&amp;nbsp;&lt;span style=&quot;text-align: center;&quot;&gt;EditContent&lt;/span&gt;(int, Content): boolean" style="text;strokeColor=none;fillColor=none;align=left;verticalAlign=top;spacingLeft=4;spacingRight=4;overflow=hidden;rotatable=0;points=[[0,0.5],[1,0.5]];portConstraint=eastwest;whiteSpace=wrap;html=1;" parent="qbyrKcUKPjAhvGXzIgvA-134" vertex="1">
          <mxGeometry y="138" width="260" height="26" as="geometry" />
        </mxCell>
        <mxCell id="qbyrKcUKPjAhvGXzIgvA-141" value="+&amp;nbsp;&lt;span style=&quot;text-align: center;&quot;&gt;UploadContent&lt;/span&gt;(Content, License): boolean" style="text;strokeColor=none;fillColor=none;align=left;verticalAlign=top;spacingLeft=4;spacingRight=4;overflow=hidden;rotatable=0;points=[[0,0.5],[1,0.5]];portConstraint=eastwest;whiteSpace=wrap;html=1;" parent="qbyrKcUKPjAhvGXzIgvA-134" vertex="1">
          <mxGeometry y="164" width="260" height="26" as="geometry" />
        </mxCell>
        <mxCell id="qbyrKcUKPjAhvGXzIgvA-142" value="+&amp;nbsp;&lt;span style=&quot;text-align: center;&quot;&gt;DeleteContent&lt;/span&gt;(Content): boolean" style="text;strokeColor=none;fillColor=none;align=left;verticalAlign=top;spacingLeft=4;spacingRight=4;overflow=hidden;rotatable=0;points=[[0,0.5],[1,0.5]];portConstraint=eastwest;whiteSpace=wrap;html=1;" parent="qbyrKcUKPjAhvGXzIgvA-134" vertex="1">
          <mxGeometry y="190" width="260" height="26" as="geometry" />
        </mxCell>
        <mxCell id="qbyrKcUKPjAhvGXzIgvA-144" value="" style="endArrow=block;dashed=1;endFill=0;endSize=12;html=1;rounded=0;edgeStyle=orthogonalEdgeStyle;exitX=0.001;exitY=0.062;exitDx=0;exitDy=0;exitPerimeter=0;entryX=0.465;entryY=0.983;entryDx=0;entryDy=0;entryPerimeter=0;" parent="1" source="qbyrKcUKPjAhvGXzIgvA-134" target="qbyrKcUKPjAhvGXzIgvA-230" edge="1">
          <mxGeometry width="160" relative="1" as="geometry">
            <mxPoint x="420" y="980" as="sourcePoint" />
            <mxPoint x="450" y="880" as="targetPoint" />
            <Array as="points">
              <mxPoint x="450" y="928" />
              <mxPoint x="450" y="880" />
            </Array>
          </mxGeometry>
        </mxCell>
        <mxCell id="qbyrKcUKPjAhvGXzIgvA-145" value="ContentFasade" style="swimlane;fontStyle=1;align=center;verticalAlign=top;childLayout=stackLayout;horizontal=1;startSize=26;horizontalStack=0;resizeParent=1;resizeParentMax=0;resizeLast=0;collapsible=1;marginBottom=0;whiteSpace=wrap;html=1;fillColor=#dae8fc;strokeColor=#6c8ebf;" parent="1" vertex="1">
          <mxGeometry x="1460" y="759.9999999999999" width="330" height="242" as="geometry" />
        </mxCell>
        <mxCell id="qbyrKcUKPjAhvGXzIgvA-188" value="- authorizer:&amp;nbsp;&lt;span style=&quot;text-align: center;&quot;&gt;I&lt;/span&gt;&lt;span style=&quot;background-color: initial; text-align: center;&quot;&gt;Autorizer&lt;/span&gt;" style="text;strokeColor=none;fillColor=none;align=left;verticalAlign=top;spacingLeft=4;spacingRight=4;overflow=hidden;rotatable=0;points=[[0,0.5],[1,0.5]];portConstraint=eastwest;whiteSpace=wrap;html=1;" parent="qbyrKcUKPjAhvGXzIgvA-145" vertex="1">
          <mxGeometry y="26" width="330" height="26" as="geometry" />
        </mxCell>
        <mxCell id="qbyrKcUKPjAhvGXzIgvA-147" value="- c&lt;span style=&quot;text-align: center;&quot;&gt;ontentMetadata&lt;/span&gt;&lt;span style=&quot;text-align: center;&quot;&gt;Contract&lt;/span&gt;:&amp;nbsp;&lt;span style=&quot;text-align: center;&quot;&gt;IContentMetadata&lt;/span&gt;&lt;span style=&quot;text-align: center;&quot;&gt;Contract&lt;/span&gt;" style="text;strokeColor=none;fillColor=none;align=left;verticalAlign=top;spacingLeft=4;spacingRight=4;overflow=hidden;rotatable=0;points=[[0,0.5],[1,0.5]];portConstraint=eastwest;whiteSpace=wrap;html=1;" parent="qbyrKcUKPjAhvGXzIgvA-145" vertex="1">
          <mxGeometry y="52" width="330" height="26" as="geometry" />
        </mxCell>
        <mxCell id="qbyrKcUKPjAhvGXzIgvA-146" value="- l&lt;span style=&quot;text-align: center;&quot;&gt;icense&lt;/span&gt;&lt;span style=&quot;text-align: center;&quot;&gt;Contract&lt;/span&gt;:&amp;nbsp;&lt;span style=&quot;text-align: center;&quot;&gt;ILicense&lt;/span&gt;&lt;span style=&quot;text-align: center;&quot;&gt;Contract&lt;/span&gt;" style="text;strokeColor=none;fillColor=none;align=left;verticalAlign=top;spacingLeft=4;spacingRight=4;overflow=hidden;rotatable=0;points=[[0,0.5],[1,0.5]];portConstraint=eastwest;whiteSpace=wrap;html=1;" parent="qbyrKcUKPjAhvGXzIgvA-145" vertex="1">
          <mxGeometry y="78" width="330" height="26" as="geometry" />
        </mxCell>
        <mxCell id="qbyrKcUKPjAhvGXzIgvA-148" value="-&amp;nbsp;&lt;span style=&quot;text-align: center;&quot;&gt;contentRepository&lt;/span&gt;&lt;span style=&quot;text-align: center;&quot;&gt;Contract&lt;/span&gt;:&amp;nbsp;&lt;span style=&quot;text-align: center;&quot;&gt;IContentRepository&lt;/span&gt;&lt;span style=&quot;text-align: center;&quot;&gt;Contract&lt;/span&gt;" style="text;strokeColor=none;fillColor=none;align=left;verticalAlign=top;spacingLeft=4;spacingRight=4;overflow=hidden;rotatable=0;points=[[0,0.5],[1,0.5]];portConstraint=eastwest;whiteSpace=wrap;html=1;" parent="qbyrKcUKPjAhvGXzIgvA-145" vertex="1">
          <mxGeometry y="104" width="330" height="26" as="geometry" />
        </mxCell>
        <mxCell id="qbyrKcUKPjAhvGXzIgvA-150" value="" style="line;strokeWidth=1;fillColor=none;align=left;verticalAlign=middle;spacingTop=-1;spacingLeft=3;spacingRight=3;rotatable=0;labelPosition=right;points=[];portConstraint=eastwest;strokeColor=inherit;" parent="qbyrKcUKPjAhvGXzIgvA-145" vertex="1">
          <mxGeometry y="130" width="330" height="8" as="geometry" />
        </mxCell>
        <mxCell id="qbyrKcUKPjAhvGXzIgvA-151" value="+ Get&lt;span style=&quot;text-align: center;&quot;&gt;Content&lt;/span&gt;(string): Content" style="text;strokeColor=none;fillColor=none;align=left;verticalAlign=top;spacingLeft=4;spacingRight=4;overflow=hidden;rotatable=0;points=[[0,0.5],[1,0.5]];portConstraint=eastwest;whiteSpace=wrap;html=1;" parent="qbyrKcUKPjAhvGXzIgvA-145" vertex="1">
          <mxGeometry y="138" width="330" height="26" as="geometry" />
        </mxCell>
        <mxCell id="qbyrKcUKPjAhvGXzIgvA-152" value="+&amp;nbsp;&lt;span style=&quot;text-align: center;&quot;&gt;EditContentMetadata&lt;/span&gt;(int, Content): boolean" style="text;strokeColor=none;fillColor=none;align=left;verticalAlign=top;spacingLeft=4;spacingRight=4;overflow=hidden;rotatable=0;points=[[0,0.5],[1,0.5]];portConstraint=eastwest;whiteSpace=wrap;html=1;" parent="qbyrKcUKPjAhvGXzIgvA-145" vertex="1">
          <mxGeometry y="164" width="330" height="26" as="geometry" />
        </mxCell>
        <mxCell id="qbyrKcUKPjAhvGXzIgvA-153" value="+&amp;nbsp;&lt;span style=&quot;text-align: center;&quot;&gt;UploadContent&lt;/span&gt;(Content, License): boolean" style="text;strokeColor=none;fillColor=none;align=left;verticalAlign=top;spacingLeft=4;spacingRight=4;overflow=hidden;rotatable=0;points=[[0,0.5],[1,0.5]];portConstraint=eastwest;whiteSpace=wrap;html=1;" parent="qbyrKcUKPjAhvGXzIgvA-145" vertex="1">
          <mxGeometry y="190" width="330" height="26" as="geometry" />
        </mxCell>
        <mxCell id="qbyrKcUKPjAhvGXzIgvA-154" value="+&amp;nbsp;&lt;span style=&quot;text-align: center;&quot;&gt;DeleteContent&lt;/span&gt;(Content): boolean" style="text;strokeColor=none;fillColor=none;align=left;verticalAlign=top;spacingLeft=4;spacingRight=4;overflow=hidden;rotatable=0;points=[[0,0.5],[1,0.5]];portConstraint=eastwest;whiteSpace=wrap;html=1;" parent="qbyrKcUKPjAhvGXzIgvA-145" vertex="1">
          <mxGeometry y="216" width="330" height="26" as="geometry" />
        </mxCell>
        <mxCell id="qbyrKcUKPjAhvGXzIgvA-158" value="" style="endArrow=classic;html=1;rounded=0;exitX=1;exitY=0.5;exitDx=0;exitDy=0;entryX=-0.003;entryY=0.166;entryDx=0;entryDy=0;entryPerimeter=0;edgeStyle=orthogonalEdgeStyle;" parent="1" source="27qRcpsZxuToWlD_OpyJ-130" target="qbyrKcUKPjAhvGXzIgvA-217" edge="1">
          <mxGeometry width="50" height="50" relative="1" as="geometry">
            <mxPoint x="720" y="530" as="sourcePoint" />
            <mxPoint x="1420" y="294" as="targetPoint" />
          </mxGeometry>
        </mxCell>
        <mxCell id="qbyrKcUKPjAhvGXzIgvA-160" value="ContentCommentRouter" style="swimlane;fontStyle=1;align=center;verticalAlign=top;childLayout=stackLayout;horizontal=1;startSize=26;horizontalStack=0;resizeParent=1;resizeParentMax=0;resizeLast=0;collapsible=1;marginBottom=0;whiteSpace=wrap;html=1;fillColor=#dae8fc;strokeColor=#6c8ebf;" parent="1" vertex="1">
          <mxGeometry x="920" y="507.5" width="310" height="190" as="geometry" />
        </mxCell>
        <mxCell id="qbyrKcUKPjAhvGXzIgvA-171" value="- authorizer:&amp;nbsp;&lt;span style=&quot;text-align: center;&quot;&gt;I&lt;/span&gt;&lt;span style=&quot;background-color: initial; text-align: center;&quot;&gt;Autorizer&lt;/span&gt;" style="text;strokeColor=none;fillColor=none;align=left;verticalAlign=top;spacingLeft=4;spacingRight=4;overflow=hidden;rotatable=0;points=[[0,0.5],[1,0.5]];portConstraint=eastwest;whiteSpace=wrap;html=1;" parent="qbyrKcUKPjAhvGXzIgvA-160" vertex="1">
          <mxGeometry y="26" width="310" height="26" as="geometry" />
        </mxCell>
        <mxCell id="qbyrKcUKPjAhvGXzIgvA-161" value="- c&lt;span style=&quot;text-align: center;&quot;&gt;ontentMetadata&lt;/span&gt;&lt;span style=&quot;text-align: center;&quot;&gt;Contract&lt;/span&gt;:&amp;nbsp;&lt;span style=&quot;text-align: center;&quot;&gt;IContentMetadata&lt;/span&gt;&lt;span style=&quot;text-align: center;&quot;&gt;Contract&lt;/span&gt;" style="text;strokeColor=none;fillColor=none;align=left;verticalAlign=top;spacingLeft=4;spacingRight=4;overflow=hidden;rotatable=0;points=[[0,0.5],[1,0.5]];portConstraint=eastwest;whiteSpace=wrap;html=1;" parent="qbyrKcUKPjAhvGXzIgvA-160" vertex="1">
          <mxGeometry y="52" width="310" height="26" as="geometry" />
        </mxCell>
        <mxCell id="qbyrKcUKPjAhvGXzIgvA-197" value="- r&lt;span style=&quot;text-align: center;&quot;&gt;ateLimiter&lt;/span&gt;:&amp;nbsp;&lt;span style=&quot;text-align: center;&quot;&gt;IRateLimiter&lt;/span&gt;" style="text;strokeColor=none;fillColor=none;align=left;verticalAlign=top;spacingLeft=4;spacingRight=4;overflow=hidden;rotatable=0;points=[[0,0.5],[1,0.5]];portConstraint=eastwest;whiteSpace=wrap;html=1;" parent="qbyrKcUKPjAhvGXzIgvA-160" vertex="1">
          <mxGeometry y="78" width="310" height="26" as="geometry" />
        </mxCell>
        <mxCell id="qbyrKcUKPjAhvGXzIgvA-164" value="" style="line;strokeWidth=1;align=left;verticalAlign=middle;spacingTop=-1;spacingLeft=3;spacingRight=3;rotatable=0;labelPosition=right;points=[];portConstraint=eastwest;" parent="qbyrKcUKPjAhvGXzIgvA-160" vertex="1">
          <mxGeometry y="104" width="310" height="8" as="geometry" />
        </mxCell>
        <mxCell id="qbyrKcUKPjAhvGXzIgvA-165" value="+&amp;nbsp;&lt;span style=&quot;text-align: center;&quot;&gt;RemoveComment&lt;/span&gt;(uuid: Guid): boolean" style="text;align=left;verticalAlign=top;spacingLeft=4;spacingRight=4;overflow=hidden;rotatable=0;points=[[0,0.5],[1,0.5]];portConstraint=eastwest;whiteSpace=wrap;html=1;" parent="qbyrKcUKPjAhvGXzIgvA-160" vertex="1">
          <mxGeometry y="112" width="310" height="26" as="geometry" />
        </mxCell>
        <mxCell id="qbyrKcUKPjAhvGXzIgvA-166" value="+&amp;nbsp;&lt;span style=&quot;text-align: center;&quot;&gt;EditComment&lt;/span&gt;(uuid: Guid): boolean" style="text;align=left;verticalAlign=top;spacingLeft=4;spacingRight=4;overflow=hidden;rotatable=0;points=[[0,0.5],[1,0.5]];portConstraint=eastwest;whiteSpace=wrap;html=1;" parent="qbyrKcUKPjAhvGXzIgvA-160" vertex="1">
          <mxGeometry y="138" width="310" height="26" as="geometry" />
        </mxCell>
        <mxCell id="qbyrKcUKPjAhvGXzIgvA-167" value="+&amp;nbsp;&lt;span style=&quot;text-align: center;&quot;&gt;AddComment&lt;/span&gt;(comment:&amp;nbsp;&lt;span style=&quot;text-align: center;&quot;&gt;Comment&lt;/span&gt;): boolean" style="text;strokeColor=none;fillColor=none;align=left;verticalAlign=top;spacingLeft=4;spacingRight=4;overflow=hidden;rotatable=0;points=[[0,0.5],[1,0.5]];portConstraint=eastwest;whiteSpace=wrap;html=1;" parent="qbyrKcUKPjAhvGXzIgvA-160" vertex="1">
          <mxGeometry y="164" width="310" height="26" as="geometry" />
        </mxCell>
        <mxCell id="qbyrKcUKPjAhvGXzIgvA-168" value="" style="endArrow=block;dashed=1;endFill=0;endSize=12;html=1;rounded=0;exitX=0.002;exitY=0.061;exitDx=0;exitDy=0;exitPerimeter=0;entryX=0.997;entryY=0.168;entryDx=0;entryDy=0;entryPerimeter=0;" parent="1" source="qbyrKcUKPjAhvGXzIgvA-160" target="qbyrKcUKPjAhvGXzIgvA-183" edge="1">
          <mxGeometry width="160" relative="1" as="geometry">
            <mxPoint x="1190" y="652.61" as="sourcePoint" />
            <mxPoint x="570" y="530" as="targetPoint" />
          </mxGeometry>
        </mxCell>
        <mxCell id="qbyrKcUKPjAhvGXzIgvA-169" value="" style="endArrow=classic;html=1;rounded=0;exitX=1;exitY=0.5;exitDx=0;exitDy=0;entryX=0;entryY=0.5;entryDx=0;entryDy=0;" parent="1" source="qbyrKcUKPjAhvGXzIgvA-161" target="sBjSpITZdoOLeIIE-7B9-167" edge="1">
          <mxGeometry width="50" height="50" relative="1" as="geometry">
            <mxPoint x="725" y="784" as="sourcePoint" />
            <mxPoint x="1630" y="569" as="targetPoint" />
          </mxGeometry>
        </mxCell>
        <mxCell id="qbyrKcUKPjAhvGXzIgvA-170" value="" style="endArrow=classic;html=1;rounded=0;exitX=1;exitY=0.5;exitDx=0;exitDy=0;entryX=0.019;entryY=0.178;entryDx=0;entryDy=0;entryPerimeter=0;" parent="1" source="qbyrKcUKPjAhvGXzIgvA-36" target="qbyrKcUKPjAhvGXzIgvA-183" edge="1">
          <mxGeometry width="50" height="50" relative="1" as="geometry">
            <mxPoint x="230" y="610" as="sourcePoint" />
            <mxPoint x="230" y="510" as="targetPoint" />
          </mxGeometry>
        </mxCell>
        <mxCell id="qbyrKcUKPjAhvGXzIgvA-172" value="" style="endArrow=classic;html=1;rounded=0;exitX=1;exitY=0.5;exitDx=0;exitDy=0;edgeStyle=orthogonalEdgeStyle;entryX=0.074;entryY=0.998;entryDx=0;entryDy=0;entryPerimeter=0;" parent="1" source="qbyrKcUKPjAhvGXzIgvA-171" target="qbyrKcUKPjAhvGXzIgvA-217" edge="1">
          <mxGeometry width="50" height="50" relative="1" as="geometry">
            <mxPoint x="1070" y="600" as="sourcePoint" />
            <mxPoint x="1520" y="310" as="targetPoint" />
          </mxGeometry>
        </mxCell>
        <mxCell id="qbyrKcUKPjAhvGXzIgvA-182" value="&lt;p style=&quot;margin:0px;margin-top:4px;text-align:center;&quot;&gt;&lt;i&gt;&amp;lt;&amp;lt;Interface&amp;gt;&amp;gt;&lt;/i&gt;&lt;br&gt;&lt;b&gt;IUserRouter&lt;/b&gt;&lt;br&gt;&lt;/p&gt;&lt;hr size=&quot;1&quot; style=&quot;border-style:solid;&quot;&gt;&lt;p style=&quot;margin:0px;margin-left:4px;&quot;&gt;+&amp;nbsp;&lt;span style=&quot;text-align: center;&quot;&gt;AddUser&lt;/span&gt;(User): boolean&lt;br&gt;+&amp;nbsp;&lt;span style=&quot;text-align: center;&quot;&gt;RemoveUser&lt;/span&gt;(int):&amp;nbsp;&lt;span style=&quot;background-color: initial;&quot;&gt;boolean&lt;/span&gt;&lt;br&gt;&lt;/p&gt;&lt;p style=&quot;margin:0px;margin-left:4px;&quot;&gt;+&amp;nbsp;&lt;span style=&quot;text-align: center;&quot;&gt;EditUser&lt;/span&gt;(int, User):&amp;nbsp;&lt;span style=&quot;background-color: initial;&quot;&gt;boolean&lt;/span&gt;&lt;br&gt;&lt;/p&gt;&lt;p style=&quot;margin:0px;margin-left:4px;&quot;&gt;+&amp;nbsp;&lt;span style=&quot;text-align: center;&quot;&gt;Login&lt;/span&gt;(string, string): boolean&lt;span style=&quot;background-color: initial;&quot;&gt;&lt;br&gt;&lt;/span&gt;&lt;/p&gt;" style="verticalAlign=top;align=left;overflow=fill;html=1;whiteSpace=wrap;fillColor=#fff2cc;strokeColor=#d6b656;" parent="1" vertex="1">
          <mxGeometry x="292.5" y="236.5" width="235" height="115" as="geometry" />
        </mxCell>
        <mxCell id="qbyrKcUKPjAhvGXzIgvA-183" value="&lt;p style=&quot;margin:0px;margin-top:4px;text-align:center;&quot;&gt;&lt;i&gt;&amp;lt;&amp;lt;Interface&amp;gt;&amp;gt;&lt;/i&gt;&lt;br&gt;&lt;b&gt;IContentCommentRouter&lt;/b&gt;&lt;br&gt;&lt;/p&gt;&lt;hr size=&quot;1&quot; style=&quot;border-style:solid;&quot;&gt;&lt;p style=&quot;margin:0px;margin-left:4px;&quot;&gt;&lt;span style=&quot;background-color: initial;&quot;&gt;+&amp;nbsp;&lt;/span&gt;&lt;span style=&quot;background-color: initial; text-align: center;&quot;&gt;RemoveComment&lt;/span&gt;&lt;span style=&quot;background-color: initial;&quot;&gt;(uuid: Guid): boolean&lt;/span&gt;&lt;/p&gt;&lt;p style=&quot;margin:0px;margin-left:4px;&quot;&gt;+&amp;nbsp;&lt;span style=&quot;text-align: center;&quot;&gt;EditComment&lt;/span&gt;(uuid: Guid): boolean&lt;br&gt;&lt;/p&gt;&lt;p style=&quot;margin:0px;margin-left:4px;&quot;&gt;+&amp;nbsp;&lt;span style=&quot;text-align: center;&quot;&gt;AddComment&lt;/span&gt;(comment:&amp;nbsp;&lt;span style=&quot;text-align: center;&quot;&gt;Comment&lt;/span&gt;): boolean&lt;br&gt;&lt;/p&gt;" style="verticalAlign=top;align=left;overflow=fill;html=1;whiteSpace=wrap;fillColor=#fff2cc;strokeColor=#d6b656;" parent="1" vertex="1">
          <mxGeometry x="280" y="504" width="260" height="90" as="geometry" />
        </mxCell>
        <mxCell id="qbyrKcUKPjAhvGXzIgvA-186" value="&lt;p style=&quot;margin:0px;margin-top:4px;text-align:center;&quot;&gt;&lt;i&gt;&amp;lt;&amp;lt;Interface&amp;gt;&amp;gt;&lt;/i&gt;&lt;br&gt;&lt;b&gt;I&lt;/b&gt;&lt;span style=&quot;font-weight: 700;&quot;&gt;Content&lt;/span&gt;&lt;b&gt;Fasade&lt;/b&gt;&lt;br&gt;&lt;/p&gt;&lt;hr size=&quot;1&quot; style=&quot;border-style:solid;&quot;&gt;&lt;p style=&quot;margin:0px;margin-left:4px;&quot;&gt;+ Get&lt;span style=&quot;text-align: center;&quot;&gt;Content&lt;/span&gt;(string): Content&lt;br&gt;&lt;/p&gt;&lt;p style=&quot;margin:0px;margin-left:4px;&quot;&gt;+&amp;nbsp;&lt;span style=&quot;text-align: center;&quot;&gt;EditContent&lt;/span&gt;(int, Content): boolean&lt;br&gt;&lt;/p&gt;&lt;p style=&quot;margin:0px;margin-left:4px;&quot;&gt;+&amp;nbsp;&lt;span style=&quot;text-align: center;&quot;&gt;UploadContent&lt;/span&gt;(Content, License): boolean&lt;br&gt;&lt;/p&gt;&lt;p style=&quot;margin:0px;margin-left:4px;&quot;&gt;+&amp;nbsp;&lt;span style=&quot;text-align: center;&quot;&gt;DeleteContent&lt;/span&gt;(Content): boolean&lt;br&gt;&lt;/p&gt;" style="verticalAlign=top;align=left;overflow=fill;html=1;whiteSpace=wrap;fillColor=#fff2cc;strokeColor=#d6b656;" parent="1" vertex="1">
          <mxGeometry x="1050" y="760" width="260" height="114" as="geometry" />
        </mxCell>
        <mxCell id="qbyrKcUKPjAhvGXzIgvA-189" value="" style="endArrow=classic;html=1;rounded=0;exitX=1;exitY=0.5;exitDx=0;exitDy=0;edgeStyle=orthogonalEdgeStyle;entryX=0.5;entryY=1;entryDx=0;entryDy=0;" parent="1" source="qbyrKcUKPjAhvGXzIgvA-146" target="sBjSpITZdoOLeIIE-7B9-168" edge="1">
          <mxGeometry width="50" height="50" relative="1" as="geometry">
            <mxPoint x="1885" y="981.5" as="sourcePoint" />
            <mxPoint x="2087" y="820" as="targetPoint" />
          </mxGeometry>
        </mxCell>
        <mxCell id="qbyrKcUKPjAhvGXzIgvA-190" value="" style="endArrow=classic;html=1;rounded=0;exitX=1;exitY=0.5;exitDx=0;exitDy=0;edgeStyle=orthogonalEdgeStyle;entryX=0.5;entryY=1;entryDx=0;entryDy=0;" parent="1" source="qbyrKcUKPjAhvGXzIgvA-147" target="sBjSpITZdoOLeIIE-7B9-167" edge="1">
          <mxGeometry width="50" height="50" relative="1" as="geometry">
            <mxPoint x="1895" y="805" as="sourcePoint" />
            <mxPoint x="1880" y="650" as="targetPoint" />
          </mxGeometry>
        </mxCell>
        <mxCell id="qbyrKcUKPjAhvGXzIgvA-191" value="" style="endArrow=classic;html=1;rounded=0;exitX=0.284;exitY=-0.004;exitDx=0;exitDy=0;exitPerimeter=0;entryX=0.83;entryY=0.972;entryDx=0;entryDy=0;entryPerimeter=0;" parent="1" source="qbyrKcUKPjAhvGXzIgvA-145" target="qbyrKcUKPjAhvGXzIgvA-217" edge="1">
          <mxGeometry width="50" height="50" relative="1" as="geometry">
            <mxPoint x="1005" y="954" as="sourcePoint" />
            <mxPoint x="1600" y="450" as="targetPoint" />
          </mxGeometry>
        </mxCell>
        <mxCell id="qbyrKcUKPjAhvGXzIgvA-192" value="" style="endArrow=block;dashed=1;endFill=0;endSize=12;html=1;rounded=0;exitX=0.008;exitY=0.061;exitDx=0;exitDy=0;exitPerimeter=0;entryX=1.014;entryY=0.136;entryDx=0;entryDy=0;entryPerimeter=0;" parent="1" source="qbyrKcUKPjAhvGXzIgvA-145" target="qbyrKcUKPjAhvGXzIgvA-186" edge="1">
          <mxGeometry width="160" relative="1" as="geometry">
            <mxPoint x="395" y="920" as="sourcePoint" />
            <mxPoint x="910" y="920" as="targetPoint" />
          </mxGeometry>
        </mxCell>
        <mxCell id="qbyrKcUKPjAhvGXzIgvA-193" value="" style="endArrow=classic;html=1;rounded=0;exitX=1;exitY=0.5;exitDx=0;exitDy=0;entryX=0.5;entryY=1;entryDx=0;entryDy=0;edgeStyle=orthogonalEdgeStyle;" parent="1" source="qbyrKcUKPjAhvGXzIgvA-135" target="qbyrKcUKPjAhvGXzIgvA-186" edge="1">
          <mxGeometry width="50" height="50" relative="1" as="geometry">
            <mxPoint x="900" y="810" as="sourcePoint" />
            <mxPoint x="950" y="760" as="targetPoint" />
          </mxGeometry>
        </mxCell>
        <mxCell id="qbyrKcUKPjAhvGXzIgvA-194" value="" style="endArrow=classic;html=1;rounded=0;entryX=0.75;entryY=1;entryDx=0;entryDy=0;exitX=0;exitY=0.5;exitDx=0;exitDy=0;edgeStyle=orthogonalEdgeStyle;" parent="1" source="qbyrKcUKPjAhvGXzIgvA-197" target="27qRcpsZxuToWlD_OpyJ-152" edge="1">
          <mxGeometry width="50" height="50" relative="1" as="geometry">
            <mxPoint x="880" y="597.5" as="sourcePoint" />
            <mxPoint x="1000" y="589" as="targetPoint" />
          </mxGeometry>
        </mxCell>
        <mxCell id="qbyrKcUKPjAhvGXzIgvA-195" value="" style="endArrow=classic;html=1;rounded=0;entryX=1;entryY=0.5;entryDx=0;entryDy=0;exitX=0;exitY=0.5;exitDx=0;exitDy=0;edgeStyle=orthogonalEdgeStyle;" parent="1" source="27qRcpsZxuToWlD_OpyJ-154" target="27qRcpsZxuToWlD_OpyJ-152" edge="1">
          <mxGeometry width="50" height="50" relative="1" as="geometry">
            <mxPoint x="880" y="345" as="sourcePoint" />
            <mxPoint x="785" y="608" as="targetPoint" />
            <Array as="points">
              <mxPoint x="890" y="346" />
              <mxPoint x="890" y="65" />
            </Array>
          </mxGeometry>
        </mxCell>
        <mxCell id="qbyrKcUKPjAhvGXzIgvA-199" value="Autorizer" style="swimlane;fontStyle=1;align=center;verticalAlign=top;childLayout=stackLayout;horizontal=1;startSize=26;horizontalStack=0;resizeParent=1;resizeParentMax=0;resizeLast=0;collapsible=1;marginBottom=0;whiteSpace=wrap;html=1;fillColor=#dae8fc;strokeColor=#6c8ebf;" parent="1" vertex="1">
          <mxGeometry x="1730" y="133" width="340" height="112" as="geometry" />
        </mxCell>
        <mxCell id="qbyrKcUKPjAhvGXzIgvA-201" value="- s&lt;span style=&quot;text-wrap: nowrap; color: rgba(0, 0, 0, 0); font-family: monospace; font-size: 0px;&quot;&gt;3Es&lt;/span&gt;&lt;span style=&quot;text-align: center;&quot;&gt;essionTokenCacher&lt;/span&gt;:&amp;nbsp;&lt;span style=&quot;text-align: center;&quot;&gt;I&lt;/span&gt;&lt;span style=&quot;text-wrap: nowrap; color: rgba(0, 0, 0, 0); font-family: monospace; font-size: 0px;&quot;&gt;3E&lt;/span&gt;&lt;span style=&quot;text-align: center;&quot;&gt;SessionTokenCacher&lt;/span&gt;" style="text;strokeColor=none;fillColor=none;align=left;verticalAlign=top;spacingLeft=4;spacingRight=4;overflow=hidden;rotatable=0;points=[[0,0.5],[1,0.5]];portConstraint=eastwest;whiteSpace=wrap;html=1;" parent="qbyrKcUKPjAhvGXzIgvA-199" vertex="1">
          <mxGeometry y="26" width="340" height="26" as="geometry" />
        </mxCell>
        <mxCell id="qbyrKcUKPjAhvGXzIgvA-200" value="- a&lt;span style=&quot;text-align: center;&quot;&gt;uthorizationContract&lt;/span&gt;:&amp;nbsp;&lt;span style=&quot;text-align: center;&quot;&gt;IAuthorization&lt;/span&gt;&lt;span style=&quot;text-align: center;&quot;&gt;Contract&lt;/span&gt;" style="text;strokeColor=none;fillColor=none;align=left;verticalAlign=top;spacingLeft=4;spacingRight=4;overflow=hidden;rotatable=0;points=[[0,0.5],[1,0.5]];portConstraint=eastwest;whiteSpace=wrap;html=1;" parent="qbyrKcUKPjAhvGXzIgvA-199" vertex="1">
          <mxGeometry y="52" width="340" height="26" as="geometry" />
        </mxCell>
        <mxCell id="qbyrKcUKPjAhvGXzIgvA-203" value="" style="line;strokeWidth=1;fillColor=none;align=left;verticalAlign=middle;spacingTop=-1;spacingLeft=3;spacingRight=3;rotatable=0;labelPosition=right;points=[];portConstraint=eastwest;strokeColor=inherit;" parent="qbyrKcUKPjAhvGXzIgvA-199" vertex="1">
          <mxGeometry y="78" width="340" height="8" as="geometry" />
        </mxCell>
        <mxCell id="qbyrKcUKPjAhvGXzIgvA-204" value="+&amp;nbsp;&lt;span style=&quot;text-align: center;&quot;&gt;Authorize&lt;/span&gt;(string, string, string): boolean" style="text;strokeColor=none;fillColor=none;align=left;verticalAlign=top;spacingLeft=4;spacingRight=4;overflow=hidden;rotatable=0;points=[[0,0.5],[1,0.5]];portConstraint=eastwest;whiteSpace=wrap;html=1;" parent="qbyrKcUKPjAhvGXzIgvA-199" vertex="1">
          <mxGeometry y="86" width="340" height="26" as="geometry" />
        </mxCell>
        <mxCell id="qbyrKcUKPjAhvGXzIgvA-210" value="UserAPI" style="swimlane;fontStyle=1;align=center;verticalAlign=top;childLayout=stackLayout;horizontal=1;startSize=26;horizontalStack=0;resizeParent=1;resizeParentMax=0;resizeLast=0;collapsible=1;marginBottom=0;whiteSpace=wrap;html=1;" parent="1" vertex="1">
          <mxGeometry x="2570" y="313.5" width="175" height="86" as="geometry" />
        </mxCell>
        <mxCell id="qbyrKcUKPjAhvGXzIgvA-211" value="+ field: type" style="text;align=left;verticalAlign=top;spacingLeft=4;spacingRight=4;overflow=hidden;rotatable=0;points=[[0,0.5],[1,0.5]];portConstraint=eastwest;whiteSpace=wrap;html=1;" parent="qbyrKcUKPjAhvGXzIgvA-210" vertex="1">
          <mxGeometry y="26" width="175" height="26" as="geometry" />
        </mxCell>
        <mxCell id="qbyrKcUKPjAhvGXzIgvA-212" value="" style="line;strokeWidth=1;align=left;verticalAlign=middle;spacingTop=-1;spacingLeft=3;spacingRight=3;rotatable=0;labelPosition=right;points=[];portConstraint=eastwest;" parent="qbyrKcUKPjAhvGXzIgvA-210" vertex="1">
          <mxGeometry y="52" width="175" height="8" as="geometry" />
        </mxCell>
        <mxCell id="qbyrKcUKPjAhvGXzIgvA-213" value="+ method(type): type" style="text;align=left;verticalAlign=top;spacingLeft=4;spacingRight=4;overflow=hidden;rotatable=0;points=[[0,0.5],[1,0.5]];portConstraint=eastwest;whiteSpace=wrap;html=1;" parent="qbyrKcUKPjAhvGXzIgvA-210" vertex="1">
          <mxGeometry y="60" width="175" height="26" as="geometry" />
        </mxCell>
        <mxCell id="qbyrKcUKPjAhvGXzIgvA-215" value="" style="endArrow=block;dashed=1;endFill=0;endSize=12;html=1;rounded=0;exitX=0.016;exitY=0.152;exitDx=0;exitDy=0;exitPerimeter=0;entryX=1;entryY=0.25;entryDx=0;entryDy=0;" parent="1" source="qbyrKcUKPjAhvGXzIgvA-210" target="qbyrKcUKPjAhvGXzIgvA-218" edge="1">
          <mxGeometry width="160" relative="1" as="geometry">
            <mxPoint x="2150" y="218.75" as="sourcePoint" />
            <mxPoint x="1830" y="69.75" as="targetPoint" />
          </mxGeometry>
        </mxCell>
        <mxCell id="qbyrKcUKPjAhvGXzIgvA-217" value="&lt;p style=&quot;margin:0px;margin-top:4px;text-align:center;&quot;&gt;&lt;i&gt;&amp;lt;&amp;lt;Interface&amp;gt;&amp;gt;&lt;/i&gt;&lt;br&gt;&lt;b&gt;I&lt;/b&gt;&lt;span style=&quot;font-weight: 700; background-color: initial;&quot;&gt;Autorizer&lt;/span&gt;&lt;br&gt;&lt;/p&gt;&lt;hr size=&quot;1&quot; style=&quot;border-style:solid;&quot;&gt;&lt;p style=&quot;margin:0px;margin-left:4px;&quot;&gt;+&amp;nbsp;&lt;span style=&quot;text-align: center;&quot;&gt;Authorize&lt;/span&gt;(string, string, string): boolean&lt;br&gt;&lt;/p&gt;" style="verticalAlign=top;align=left;overflow=fill;html=1;whiteSpace=wrap;fillColor=#fff2cc;strokeColor=#d6b656;" parent="1" vertex="1">
          <mxGeometry x="1260" y="133" width="350" height="69" as="geometry" />
        </mxCell>
        <mxCell id="qbyrKcUKPjAhvGXzIgvA-218" value="&lt;p style=&quot;margin:0px;margin-top:4px;text-align:center;&quot;&gt;&lt;i&gt;&amp;lt;&amp;lt;Interface&amp;gt;&amp;gt;&lt;/i&gt;&lt;br&gt;&lt;b&gt;IUser&lt;/b&gt;&lt;b style=&quot;background-color: initial;&quot;&gt;Contract&lt;/b&gt;&lt;br&gt;&lt;/p&gt;&lt;hr size=&quot;1&quot; style=&quot;border-style:solid;&quot;&gt;&lt;p style=&quot;margin:0px;margin-left:4px;&quot;&gt;+&amp;nbsp;&lt;span style=&quot;text-align: center;&quot;&gt;AddUser&lt;/span&gt;(User): boolean&lt;br&gt;+&amp;nbsp;&lt;span style=&quot;text-align: center;&quot;&gt;RemoveUser&lt;/span&gt;(int):&amp;nbsp;&lt;span style=&quot;background-color: initial;&quot;&gt;boolean&lt;/span&gt;&lt;br&gt;&lt;/p&gt;&lt;p style=&quot;margin:0px;margin-left:4px;&quot;&gt;+&amp;nbsp;&lt;span style=&quot;text-align: center;&quot;&gt;EditUser&lt;/span&gt;(int, User):&amp;nbsp;&lt;span style=&quot;background-color: initial;&quot;&gt;boolean&lt;/span&gt;&lt;br&gt;&lt;/p&gt;" style="verticalAlign=top;align=left;overflow=fill;html=1;whiteSpace=wrap;fillColor=#fff2cc;strokeColor=#d6b656;" parent="1" vertex="1">
          <mxGeometry x="1762.5" y="303" width="235" height="90" as="geometry" />
        </mxCell>
        <mxCell id="qbyrKcUKPjAhvGXzIgvA-219" value="&lt;p style=&quot;margin:0px;margin-top:4px;text-align:center;&quot;&gt;&lt;i&gt;&amp;lt;&amp;lt;Interface&amp;gt;&amp;gt;&lt;/i&gt;&lt;br&gt;&lt;b&gt;I&lt;/b&gt;&lt;span style=&quot;text-wrap: nowrap; color: rgba(0, 0, 0, 0); font-family: monospace; font-size: 0px; text-align: start;&quot;&gt;%3CmxGraphModel%3E%3Croot%3E%3CmxCell%20id%3D%220%22%2F%3E%3CmxCell%20id%3D%221%22%20parent%3D%220%22%2F%3E%3CmxCell%20id%3D%222%22%20value%3D%22%22%20style%3D%22endArrow%3Dblock%3Bdashed%3D1%3BendFill%3D0%3BendSize%3D12%3Bhtml%3D1%3Brounded%3D0%3BexitX%3D-0.001%3BexitY%3D0.11%3BexitDx%3D0%3BexitDy%3D0%3BexitPerimeter%3D0%3BentryX%3D0.996%3BentryY%3D0.39%3BentryDx%3D0%3BentryDy%3D0%3BentryPerimeter%3D0%3B%22%20edge%3D%221%22%20parent%3D%221%22%3E%3CmxGeometry%20width%3D%22160%22%20relative%3D%221%22%20as%3D%22geometry%22%3E%3CmxPoint%20x%3D%222140%22%20y%3D%22289%22%20as%3D%22sourcePoint%22%2F%3E%3CmxPoint%20x%3D%221647%22%20y%3D%22289%22%20as%3D%22targetPoint%22%2F%3E%3C%2FmxGeometry%3E%3C%2FmxCell%3E%3C%2Froot%3E%3C%2FmxGraphModel%3E&lt;/span&gt;&lt;b&gt;AuthorizationContract&lt;/b&gt;&lt;br&gt;&lt;/p&gt;&lt;hr size=&quot;1&quot; style=&quot;border-style:solid;&quot;&gt;&lt;p style=&quot;margin:0px;margin-left:4px;&quot;&gt;+&amp;nbsp;&lt;span style=&quot;text-align: center;&quot;&gt;Authorize&lt;/span&gt;(string, string, string): boolean&lt;br&gt;&lt;/p&gt;" style="verticalAlign=top;align=left;overflow=fill;html=1;whiteSpace=wrap;fillColor=#fff2cc;strokeColor=#d6b656;" parent="1" vertex="1">
          <mxGeometry x="2150" y="187" width="235" height="68" as="geometry" />
        </mxCell>
        <mxCell id="qbyrKcUKPjAhvGXzIgvA-220" value="" style="endArrow=classic;html=1;rounded=0;entryX=-0.001;entryY=0.149;entryDx=0;entryDy=0;exitX=1;exitY=0.5;exitDx=0;exitDy=0;entryPerimeter=0;" parent="1" source="qbyrKcUKPjAhvGXzIgvA-200" target="qbyrKcUKPjAhvGXzIgvA-219" edge="1">
          <mxGeometry width="50" height="50" relative="1" as="geometry">
            <mxPoint x="1540" y="460" as="sourcePoint" />
            <mxPoint x="1590" y="410" as="targetPoint" />
          </mxGeometry>
        </mxCell>
        <mxCell id="qbyrKcUKPjAhvGXzIgvA-221" value="&lt;p style=&quot;margin:0px;margin-top:4px;text-align:center;&quot;&gt;&lt;i&gt;&amp;lt;&amp;lt;Interface&amp;gt;&amp;gt;&lt;/i&gt;&lt;br&gt;&lt;b&gt;I&lt;/b&gt;&lt;span style=&quot;text-wrap: nowrap; color: rgba(0, 0, 0, 0); font-family: monospace; font-size: 0px; text-align: start;&quot;&gt;%3CmxGraphModel%3E%3Croot%3E%3CmxCell%20id%3D%220%22%2F%3E%3CmxCell%20id%3D%221%22%20parent%3D%220%22%2F%3E%3CmxCell%20id%3D%222%22%20value%3D%22%22%20style%3D%22endArrow%3Dblock%3Bdashed%3D1%3BendFill%3D0%3BendSize%3D12%3Bhtml%3D1%3Brounded%3D0%3BexitX%3D-0.001%3BexitY%3D0.11%3BexitDx%3D0%3BexitDy%3D0%3BexitPerimeter%3D0%3BentryX%3D0.996%3BentryY%3D0.39%3BentryDx%3D0%3BentryDy%3D0%3BentryPerimeter%3D0%3B%22%20edge%3D%221%22%20parent%3D%221%22%3E%3CmxGeometry%20width%3D%22160%22%20relative%3D%221%22%20as%3D%22geometry%22%3E%3CmxPoint%20x%3D%222140%22%20y%3D%22289%22%20as%3D%22sourcePoint%22%2F%3E%3CmxPoint%20x%3D%221647%22%20y%3D%22289%22%20as%3D%22targetPoint%22%2F%3E%3C%2FmxGeometry%3E%3C%2FmxCell%3E%3C%2Froot%3E%3C%2FmxGraphModel%3E&lt;/span&gt;&lt;b&gt;SessionTokenCacher&lt;/b&gt;&lt;br&gt;&lt;/p&gt;&lt;hr size=&quot;1&quot; style=&quot;border-style:solid;&quot;&gt;&lt;p style=&quot;margin:0px;margin-left:4px;&quot;&gt;+&amp;nbsp;&lt;span style=&quot;text-align: center;&quot;&gt;CheckToken&lt;/span&gt;(userName: string, token: string): boolean&lt;br&gt;&lt;/p&gt;&lt;p style=&quot;margin:0px;margin-left:4px;&quot;&gt;+&amp;nbsp;&lt;span style=&quot;text-align: center;&quot;&gt;CacheToken&lt;/span&gt;(userName: string, token: string): void&lt;br&gt;&lt;/p&gt;" style="verticalAlign=top;align=left;overflow=fill;html=1;whiteSpace=wrap;fillColor=#fff2cc;strokeColor=#d6b656;" parent="1" vertex="1">
          <mxGeometry x="2010" y="-20" width="320" height="85" as="geometry" />
        </mxCell>
        <mxCell id="qbyrKcUKPjAhvGXzIgvA-223" value="" style="endArrow=classic;html=1;rounded=0;entryX=0.528;entryY=0.998;entryDx=0;entryDy=0;exitX=1;exitY=0.5;exitDx=0;exitDy=0;edgeStyle=orthogonalEdgeStyle;entryPerimeter=0;" parent="1" source="qbyrKcUKPjAhvGXzIgvA-201" target="qbyrKcUKPjAhvGXzIgvA-221" edge="1">
          <mxGeometry width="50" height="50" relative="1" as="geometry">
            <mxPoint x="1920" y="380" as="sourcePoint" />
            <mxPoint x="1970" y="330" as="targetPoint" />
          </mxGeometry>
        </mxCell>
        <mxCell id="qbyrKcUKPjAhvGXzIgvA-224" value="" style="endArrow=block;dashed=1;endFill=0;endSize=12;html=1;rounded=0;entryX=1;entryY=0.25;entryDx=0;entryDy=0;exitX=0.005;exitY=0.131;exitDx=0;exitDy=0;exitPerimeter=0;" parent="1" source="qbyrKcUKPjAhvGXzIgvA-199" target="qbyrKcUKPjAhvGXzIgvA-217" edge="1">
          <mxGeometry width="160" relative="1" as="geometry">
            <mxPoint x="1690" y="130" as="sourcePoint" />
            <mxPoint x="1980" y="579" as="targetPoint" />
          </mxGeometry>
        </mxCell>
        <mxCell id="qbyrKcUKPjAhvGXzIgvA-225" value="" style="endArrow=classic;html=1;rounded=0;exitX=1;exitY=0.5;exitDx=0;exitDy=0;entryX=0.01;entryY=0.17;entryDx=0;entryDy=0;entryPerimeter=0;" parent="1" source="27qRcpsZxuToWlD_OpyJ-153" target="qbyrKcUKPjAhvGXzIgvA-218" edge="1">
          <mxGeometry width="50" height="50" relative="1" as="geometry">
            <mxPoint x="1330" y="350" as="sourcePoint" />
            <mxPoint x="1720" y="330" as="targetPoint" />
          </mxGeometry>
        </mxCell>
        <mxCell id="qbyrKcUKPjAhvGXzIgvA-226" value="" style="endArrow=classic;html=1;rounded=0;exitX=0.002;exitY=0.792;exitDx=0;exitDy=0;entryX=0.5;entryY=1;entryDx=0;entryDy=0;edgeStyle=orthogonalEdgeStyle;exitPerimeter=0;" parent="1" source="qbyrKcUKPjAhvGXzIgvA-137" target="27qRcpsZxuToWlD_OpyJ-152" edge="1">
          <mxGeometry width="50" height="50" relative="1" as="geometry">
            <mxPoint x="940" y="690" as="sourcePoint" />
            <mxPoint x="990" y="640" as="targetPoint" />
          </mxGeometry>
        </mxCell>
        <mxCell id="qbyrKcUKPjAhvGXzIgvA-229" value="&lt;p style=&quot;margin:0px;margin-top:4px;text-align:center;&quot;&gt;&lt;i&gt;&amp;lt;&amp;lt;Interface&amp;gt;&amp;gt;&lt;/i&gt;&lt;br&gt;&lt;b&gt;IContentRepository&lt;/b&gt;&lt;b style=&quot;background-color: initial;&quot;&gt;Contract&lt;/b&gt;&lt;br&gt;&lt;/p&gt;&lt;hr size=&quot;1&quot; style=&quot;border-style:solid;&quot;&gt;&lt;p style=&quot;margin:0px;margin-left:4px;&quot;&gt;+&amp;nbsp;&lt;span style=&quot;text-align: center;&quot;&gt;DeleteContentFromRepository&lt;/span&gt;(string): boolean&lt;br&gt;+&amp;nbsp;&lt;span style=&quot;text-align: center;&quot;&gt;ContentExistInRepository&lt;/span&gt;(contentId: guid): boolean&lt;br&gt;&lt;/p&gt;" style="verticalAlign=top;align=left;overflow=fill;html=1;whiteSpace=wrap;fillColor=#fff2cc;strokeColor=#d6b656;" parent="1" vertex="1">
          <mxGeometry x="1857.5" y="925.5" width="312.5" height="84.5" as="geometry" />
        </mxCell>
        <mxCell id="qbyrKcUKPjAhvGXzIgvA-230" value="&lt;p style=&quot;margin:0px;margin-top:4px;text-align:center;&quot;&gt;&lt;i&gt;&amp;lt;&amp;lt;Interface&amp;gt;&amp;gt;&lt;/i&gt;&lt;br&gt;&lt;b&gt;I&lt;/b&gt;&lt;span style=&quot;font-weight: 700;&quot;&gt;Content&lt;/span&gt;&lt;b&gt;Router&lt;/b&gt;&lt;br&gt;&lt;/p&gt;&lt;hr size=&quot;1&quot; style=&quot;border-style:solid;&quot;&gt;&lt;p style=&quot;margin:0px;margin-left:4px;&quot;&gt;&lt;span style=&quot;background-color: initial;&quot;&gt;+&amp;nbsp;&lt;/span&gt;&lt;span style=&quot;background-color: initial; text-align: center;&quot;&gt;GetContent&lt;/span&gt;&lt;span style=&quot;background-color: initial;&quot;&gt;(string): Content&lt;/span&gt;&lt;/p&gt;&lt;p style=&quot;margin:0px;margin-left:4px;&quot;&gt;&lt;span style=&quot;background-color: initial;&quot;&gt;+&amp;nbsp;&lt;/span&gt;&lt;span style=&quot;background-color: initial; text-align: center;&quot;&gt;EditContent&lt;/span&gt;&lt;span style=&quot;background-color: initial;&quot;&gt;(int, Content): boolean&lt;/span&gt;&lt;/p&gt;&lt;p style=&quot;margin:0px;margin-left:4px;&quot;&gt;&lt;span style=&quot;background-color: initial;&quot;&gt;+&amp;nbsp;&lt;/span&gt;&lt;span style=&quot;background-color: initial; text-align: center;&quot;&gt;UploadContent&lt;/span&gt;&lt;span style=&quot;background-color: initial;&quot;&gt;(Content, License): boolean&lt;/span&gt;&lt;/p&gt;&lt;p style=&quot;margin:0px;margin-left:4px;&quot;&gt;+&amp;nbsp;&lt;span style=&quot;text-align: center;&quot;&gt;DeleteContent&lt;/span&gt;(Content): boolean&lt;br&gt;&lt;/p&gt;" style="verticalAlign=top;align=left;overflow=fill;html=1;whiteSpace=wrap;fillColor=#fff2cc;strokeColor=#d6b656;" parent="1" vertex="1">
          <mxGeometry x="310" y="740" width="300" height="115" as="geometry" />
        </mxCell>
        <mxCell id="qbyrKcUKPjAhvGXzIgvA-231" value="StreamUri&lt;b&gt;Router&lt;/b&gt;" style="swimlane;fontStyle=1;align=center;verticalAlign=top;childLayout=stackLayout;horizontal=1;startSize=26;horizontalStack=0;resizeParent=1;resizeParentMax=0;resizeLast=0;collapsible=1;marginBottom=0;whiteSpace=wrap;html=1;fillColor=#dae8fc;strokeColor=#6c8ebf;" parent="1" vertex="1">
          <mxGeometry x="710" y="1170" width="240" height="164" as="geometry" />
        </mxCell>
        <mxCell id="qbyrKcUKPjAhvGXzIgvA-232" value="- s&lt;span style=&quot;text-align: center;&quot;&gt;treamUri&lt;/span&gt;&lt;span style=&quot;text-align: center;&quot;&gt;Handler&lt;/span&gt;:&amp;nbsp;&lt;span style=&quot;text-align: center;&quot;&gt;I&lt;/span&gt;&lt;span style=&quot;text-align: center;&quot;&gt;StreamUri&lt;/span&gt;&lt;span style=&quot;text-align: center;&quot;&gt;Handler&lt;/span&gt;" style="text;strokeColor=none;fillColor=none;align=left;verticalAlign=top;spacingLeft=4;spacingRight=4;overflow=hidden;rotatable=0;points=[[0,0.5],[1,0.5]];portConstraint=eastwest;whiteSpace=wrap;html=1;" parent="qbyrKcUKPjAhvGXzIgvA-231" vertex="1">
          <mxGeometry y="26" width="240" height="26" as="geometry" />
        </mxCell>
        <mxCell id="qbyrKcUKPjAhvGXzIgvA-233" value="- r&lt;span style=&quot;text-align: center;&quot;&gt;ateLimiter&lt;/span&gt;:&amp;nbsp;&lt;span style=&quot;text-align: center;&quot;&gt;IRateLimiter&lt;/span&gt;" style="text;strokeColor=none;fillColor=none;align=left;verticalAlign=top;spacingLeft=4;spacingRight=4;overflow=hidden;rotatable=0;points=[[0,0.5],[1,0.5]];portConstraint=eastwest;whiteSpace=wrap;html=1;" parent="qbyrKcUKPjAhvGXzIgvA-231" vertex="1">
          <mxGeometry y="52" width="240" height="26" as="geometry" />
        </mxCell>
        <mxCell id="Iuk1dEieV5OjN-JEGwXN-7" value="- authorizer:&amp;nbsp;&lt;span style=&quot;text-align: center;&quot;&gt;I&lt;/span&gt;&lt;span style=&quot;background-color: initial; text-align: center;&quot;&gt;Autorizer&lt;/span&gt;" style="text;strokeColor=none;fillColor=none;align=left;verticalAlign=top;spacingLeft=4;spacingRight=4;overflow=hidden;rotatable=0;points=[[0,0.5],[1,0.5]];portConstraint=eastwest;whiteSpace=wrap;html=1;" parent="qbyrKcUKPjAhvGXzIgvA-231" vertex="1">
          <mxGeometry y="78" width="240" height="26" as="geometry" />
        </mxCell>
        <mxCell id="qbyrKcUKPjAhvGXzIgvA-234" value="" style="line;strokeWidth=1;fillColor=none;align=left;verticalAlign=middle;spacingTop=-1;spacingLeft=3;spacingRight=3;rotatable=0;labelPosition=right;points=[];portConstraint=eastwest;strokeColor=inherit;" parent="qbyrKcUKPjAhvGXzIgvA-231" vertex="1">
          <mxGeometry y="104" width="240" height="8" as="geometry" />
        </mxCell>
        <mxCell id="qbyrKcUKPjAhvGXzIgvA-235" value="&lt;p style=&quot;margin: 0px 0px 0px 4px;&quot;&gt;+&amp;nbsp;&lt;span style=&quot;text-align: center;&quot;&gt;GetStreamUri&lt;/span&gt;(int): string&lt;br&gt;&lt;/p&gt;&lt;div&gt;&lt;br&gt;&lt;/div&gt;" style="text;strokeColor=none;fillColor=none;align=left;verticalAlign=top;spacingLeft=4;spacingRight=4;overflow=hidden;rotatable=0;points=[[0,0.5],[1,0.5]];portConstraint=eastwest;whiteSpace=wrap;html=1;" parent="qbyrKcUKPjAhvGXzIgvA-231" vertex="1">
          <mxGeometry y="112" width="240" height="26" as="geometry" />
        </mxCell>
        <mxCell id="qbyrKcUKPjAhvGXzIgvA-236" value="+&amp;nbsp;&lt;span style=&quot;text-align: center;&quot;&gt;GetUploadUri&lt;/span&gt;(int): string" style="text;strokeColor=none;fillColor=none;align=left;verticalAlign=top;spacingLeft=4;spacingRight=4;overflow=hidden;rotatable=0;points=[[0,0.5],[1,0.5]];portConstraint=eastwest;whiteSpace=wrap;html=1;" parent="qbyrKcUKPjAhvGXzIgvA-231" vertex="1">
          <mxGeometry y="138" width="240" height="26" as="geometry" />
        </mxCell>
        <mxCell id="qbyrKcUKPjAhvGXzIgvA-239" value="&lt;p style=&quot;margin:0px;margin-top:4px;text-align:center;&quot;&gt;&lt;i&gt;&amp;lt;&amp;lt;Interface&amp;gt;&amp;gt;&lt;/i&gt;&lt;br&gt;&lt;span style=&quot;font-weight: 700;&quot;&gt;I&lt;/span&gt;&lt;span style=&quot;font-weight: 700;&quot;&gt;StreamUri&lt;/span&gt;&lt;b style=&quot;background-color: initial;&quot;&gt;Contract&lt;/b&gt;&lt;br&gt;&lt;/p&gt;&lt;hr size=&quot;1&quot; style=&quot;border-style:solid;&quot;&gt;&lt;p style=&quot;margin:0px;margin-left:4px;&quot;&gt;+&amp;nbsp;&lt;span style=&quot;text-align: center;&quot;&gt;GetStreamUri&lt;/span&gt;(int): string&lt;br&gt;&lt;/p&gt;&lt;p style=&quot;margin:0px;margin-left:4px;&quot;&gt;+&amp;nbsp;&lt;span style=&quot;text-align: center;&quot;&gt;GetUploadUri&lt;/span&gt;(int): string&lt;br&gt;&lt;/p&gt;" style="verticalAlign=top;align=left;overflow=fill;html=1;whiteSpace=wrap;fillColor=#fff2cc;strokeColor=#d6b656;" parent="1" vertex="1">
          <mxGeometry x="1790" y="1187" width="161.25" height="80" as="geometry" />
        </mxCell>
        <mxCell id="qbyrKcUKPjAhvGXzIgvA-240" value="" style="endArrow=classic;html=1;rounded=0;exitX=0;exitY=0.5;exitDx=0;exitDy=0;entryX=0.25;entryY=1;entryDx=0;entryDy=0;edgeStyle=orthogonalEdgeStyle;" parent="1" source="qbyrKcUKPjAhvGXzIgvA-233" target="27qRcpsZxuToWlD_OpyJ-152" edge="1">
          <mxGeometry width="50" height="50" relative="1" as="geometry">
            <mxPoint x="760" y="1090" as="sourcePoint" />
            <mxPoint x="720" y="1189" as="targetPoint" />
          </mxGeometry>
        </mxCell>
        <mxCell id="qbyrKcUKPjAhvGXzIgvA-241" value="" style="endArrow=classic;html=1;rounded=0;exitX=1;exitY=0.5;exitDx=0;exitDy=0;entryX=0;entryY=0.25;entryDx=0;entryDy=0;" parent="1" source="qbyrKcUKPjAhvGXzIgvA-232" target="qbyrKcUKPjAhvGXzIgvA-239" edge="1">
          <mxGeometry width="50" height="50" relative="1" as="geometry">
            <mxPoint x="1540" y="1000" as="sourcePoint" />
            <mxPoint x="1590" y="950" as="targetPoint" />
          </mxGeometry>
        </mxCell>
        <mxCell id="qbyrKcUKPjAhvGXzIgvA-242" value="" style="endArrow=classic;html=1;rounded=0;exitX=1;exitY=0.5;exitDx=0;exitDy=0;entryX=0;entryY=0.25;entryDx=0;entryDy=0;" parent="1" source="qbyrKcUKPjAhvGXzIgvA-26" target="qbyrKcUKPjAhvGXzIgvA-243" edge="1">
          <mxGeometry width="50" height="50" relative="1" as="geometry">
            <mxPoint x="585" y="881" as="sourcePoint" />
            <mxPoint x="245" y="1041" as="targetPoint" />
          </mxGeometry>
        </mxCell>
        <mxCell id="qbyrKcUKPjAhvGXzIgvA-243" value="&lt;p style=&quot;margin:0px;margin-top:4px;text-align:center;&quot;&gt;&lt;i&gt;&amp;lt;&amp;lt;Interface&amp;gt;&amp;gt;&lt;/i&gt;&lt;br&gt;&lt;b&gt;I&lt;/b&gt;&lt;span style=&quot;background-color: initial; font-weight: 700;&quot;&gt;StreamUri&lt;/span&gt;&lt;b style=&quot;background-color: initial;&quot;&gt;Router&lt;/b&gt;&lt;br&gt;&lt;/p&gt;&lt;hr size=&quot;1&quot; style=&quot;border-style:solid;&quot;&gt;&lt;p style=&quot;margin: 0px 0px 0px 4px;&quot;&gt;+&amp;nbsp;&lt;span style=&quot;text-align: center;&quot;&gt;GetStreamUri&lt;/span&gt;(int): string&lt;/p&gt;&lt;p style=&quot;margin:0px;margin-left:4px;&quot;&gt;&lt;span style=&quot;background-color: initial;&quot;&gt;+&amp;nbsp;&lt;/span&gt;&lt;span style=&quot;background-color: initial; text-align: center;&quot;&gt;GetUploadUri&lt;/span&gt;&lt;span style=&quot;background-color: initial;&quot;&gt;(int): string&lt;/span&gt;&lt;/p&gt;" style="verticalAlign=top;align=left;overflow=fill;html=1;whiteSpace=wrap;fillColor=#fff2cc;strokeColor=#d6b656;" parent="1" vertex="1">
          <mxGeometry x="295" y="1016.5" width="300" height="90" as="geometry" />
        </mxCell>
        <mxCell id="qbyrKcUKPjAhvGXzIgvA-244" value="" style="endArrow=block;dashed=1;endFill=0;endSize=12;html=1;rounded=0;exitX=0.011;exitY=0.102;exitDx=0;exitDy=0;exitPerimeter=0;entryX=0.474;entryY=1.022;entryDx=0;entryDy=0;entryPerimeter=0;edgeStyle=orthogonalEdgeStyle;" parent="1" source="qbyrKcUKPjAhvGXzIgvA-231" target="qbyrKcUKPjAhvGXzIgvA-243" edge="1">
          <mxGeometry width="160" relative="1" as="geometry">
            <mxPoint x="800" y="938" as="sourcePoint" />
            <mxPoint x="460" y="863" as="targetPoint" />
          </mxGeometry>
        </mxCell>
        <mxCell id="qbyrKcUKPjAhvGXzIgvA-245" value="&lt;b&gt;UserModel&lt;/b&gt;" style="swimlane;fontStyle=0;childLayout=stackLayout;horizontal=1;startSize=26;horizontalStack=0;resizeParent=1;resizeParentMax=0;resizeLast=0;collapsible=1;marginBottom=0;whiteSpace=wrap;html=1;fillColor=#fad9d5;strokeColor=#ae4132;" parent="1" vertex="1">
          <mxGeometry x="-130" y="-222" width="140" height="156" as="geometry" />
        </mxCell>
        <mxCell id="qbyrKcUKPjAhvGXzIgvA-247" value="+ name: text" style="text;align=left;verticalAlign=top;spacingLeft=4;spacingRight=4;overflow=hidden;rotatable=0;points=[[0,0.5],[1,0.5]];portConstraint=eastwest;whiteSpace=wrap;html=1;" parent="qbyrKcUKPjAhvGXzIgvA-245" vertex="1">
          <mxGeometry y="26" width="140" height="26" as="geometry" />
        </mxCell>
        <mxCell id="sBjSpITZdoOLeIIE-7B9-59" value="+ login: String" style="text;align=left;verticalAlign=top;spacingLeft=4;spacingRight=4;overflow=hidden;rotatable=0;points=[[0,0.5],[1,0.5]];portConstraint=eastwest;whiteSpace=wrap;html=1;" parent="qbyrKcUKPjAhvGXzIgvA-245" vertex="1">
          <mxGeometry y="52" width="140" height="26" as="geometry" />
        </mxCell>
        <mxCell id="qbyrKcUKPjAhvGXzIgvA-248" value="+ password: text" style="text;align=left;verticalAlign=top;spacingLeft=4;spacingRight=4;overflow=hidden;rotatable=0;points=[[0,0.5],[1,0.5]];portConstraint=eastwest;whiteSpace=wrap;html=1;" parent="qbyrKcUKPjAhvGXzIgvA-245" vertex="1">
          <mxGeometry y="78" width="140" height="26" as="geometry" />
        </mxCell>
        <mxCell id="sBjSpITZdoOLeIIE-7B9-60" value="+ mail: String" style="text;align=left;verticalAlign=top;spacingLeft=4;spacingRight=4;overflow=hidden;rotatable=0;points=[[0,0.5],[1,0.5]];portConstraint=eastwest;whiteSpace=wrap;html=1;" parent="qbyrKcUKPjAhvGXzIgvA-245" vertex="1">
          <mxGeometry y="104" width="140" height="26" as="geometry" />
        </mxCell>
        <mxCell id="sBjSpITZdoOLeIIE-7B9-61" value="+ level: UserLevel" style="text;align=left;verticalAlign=top;spacingLeft=4;spacingRight=4;overflow=hidden;rotatable=0;points=[[0,0.5],[1,0.5]];portConstraint=eastwest;whiteSpace=wrap;html=1;" parent="qbyrKcUKPjAhvGXzIgvA-245" vertex="1">
          <mxGeometry y="130" width="140" height="26" as="geometry" />
        </mxCell>
        <mxCell id="qbyrKcUKPjAhvGXzIgvA-249" value="&lt;b&gt;ContentComment&lt;/b&gt;&lt;b&gt;Model&lt;/b&gt;" style="swimlane;fontStyle=0;childLayout=stackLayout;horizontal=1;startSize=26;horizontalStack=0;resizeParent=1;resizeParentMax=0;resizeLast=0;collapsible=1;marginBottom=0;whiteSpace=wrap;html=1;fillColor=#fad9d5;strokeColor=#ae4132;" parent="1" vertex="1">
          <mxGeometry x="-780" y="-235" width="160" height="130" as="geometry" />
        </mxCell>
        <mxCell id="qbyrKcUKPjAhvGXzIgvA-250" value="+ uuid: Guid" style="text;align=left;verticalAlign=top;spacingLeft=4;spacingRight=4;overflow=hidden;rotatable=0;points=[[0,0.5],[1,0.5]];portConstraint=eastwest;whiteSpace=wrap;html=1;" parent="qbyrKcUKPjAhvGXzIgvA-249" vertex="1">
          <mxGeometry y="26" width="160" height="26" as="geometry" />
        </mxCell>
        <mxCell id="qbyrKcUKPjAhvGXzIgvA-251" value="+ content: text" style="text;align=left;verticalAlign=top;spacingLeft=4;spacingRight=4;overflow=hidden;rotatable=0;points=[[0,0.5],[1,0.5]];portConstraint=eastwest;whiteSpace=wrap;html=1;" parent="qbyrKcUKPjAhvGXzIgvA-249" vertex="1">
          <mxGeometry y="52" width="160" height="26" as="geometry" />
        </mxCell>
        <mxCell id="qbyrKcUKPjAhvGXzIgvA-252" value="+ creationTime: datetime" style="text;align=left;verticalAlign=top;spacingLeft=4;spacingRight=4;overflow=hidden;rotatable=0;points=[[0,0.5],[1,0.5]];portConstraint=eastwest;whiteSpace=wrap;html=1;" parent="qbyrKcUKPjAhvGXzIgvA-249" vertex="1">
          <mxGeometry y="78" width="160" height="26" as="geometry" />
        </mxCell>
        <mxCell id="qbyrKcUKPjAhvGXzIgvA-253" value="+ author: string" style="text;align=left;verticalAlign=top;spacingLeft=4;spacingRight=4;overflow=hidden;rotatable=0;points=[[0,0.5],[1,0.5]];portConstraint=eastwest;whiteSpace=wrap;html=1;" parent="qbyrKcUKPjAhvGXzIgvA-249" vertex="1">
          <mxGeometry y="104" width="160" height="26" as="geometry" />
        </mxCell>
        <mxCell id="qbyrKcUKPjAhvGXzIgvA-254" value="&lt;b&gt;ContentModel&lt;/b&gt;" style="swimlane;fontStyle=0;childLayout=stackLayout;horizontal=1;startSize=26;horizontalStack=0;resizeParent=1;resizeParentMax=0;resizeLast=0;collapsible=1;marginBottom=0;whiteSpace=wrap;html=1;fillColor=#fad9d5;strokeColor=#ae4132;" parent="1" vertex="1">
          <mxGeometry x="-370" y="-235" width="210" height="130" as="geometry" />
        </mxCell>
        <mxCell id="qbyrKcUKPjAhvGXzIgvA-256" value="+ name: text" style="text;align=left;verticalAlign=top;spacingLeft=4;spacingRight=4;overflow=hidden;rotatable=0;points=[[0,0.5],[1,0.5]];portConstraint=eastwest;whiteSpace=wrap;html=1;" parent="qbyrKcUKPjAhvGXzIgvA-254" vertex="1">
          <mxGeometry y="26" width="210" height="26" as="geometry" />
        </mxCell>
        <mxCell id="qbyrKcUKPjAhvGXzIgvA-257" value="+ uploadTime: datetime" style="text;align=left;verticalAlign=top;spacingLeft=4;spacingRight=4;overflow=hidden;rotatable=0;points=[[0,0.5],[1,0.5]];portConstraint=eastwest;whiteSpace=wrap;html=1;" parent="qbyrKcUKPjAhvGXzIgvA-254" vertex="1">
          <mxGeometry y="52" width="210" height="26" as="geometry" />
        </mxCell>
        <mxCell id="qbyrKcUKPjAhvGXzIgvA-258" value="+ description: string" style="text;align=left;verticalAlign=top;spacingLeft=4;spacingRight=4;overflow=hidden;rotatable=0;points=[[0,0.5],[1,0.5]];portConstraint=eastwest;whiteSpace=wrap;html=1;" parent="qbyrKcUKPjAhvGXzIgvA-254" vertex="1">
          <mxGeometry y="78" width="210" height="26" as="geometry" />
        </mxCell>
        <mxCell id="Iuk1dEieV5OjN-JEGwXN-16" value="+ comments: CommentModel[]" style="text;align=left;verticalAlign=top;spacingLeft=4;spacingRight=4;overflow=hidden;rotatable=0;points=[[0,0.5],[1,0.5]];portConstraint=eastwest;whiteSpace=wrap;html=1;" parent="qbyrKcUKPjAhvGXzIgvA-254" vertex="1">
          <mxGeometry y="104" width="210" height="26" as="geometry" />
        </mxCell>
        <mxCell id="qbyrKcUKPjAhvGXzIgvA-259" value="&lt;b&gt;LicenseModel&lt;/b&gt;" style="swimlane;fontStyle=0;childLayout=stackLayout;horizontal=1;startSize=26;horizontalStack=0;resizeParent=1;resizeParentMax=0;resizeLast=0;collapsible=1;marginBottom=0;whiteSpace=wrap;html=1;fillColor=#fad9d5;strokeColor=#ae4132;" parent="1" vertex="1">
          <mxGeometry x="-570" y="-235" width="160" height="156" as="geometry" />
        </mxCell>
        <mxCell id="qbyrKcUKPjAhvGXzIgvA-262" value="+ uploadTime: datetime" style="text;align=left;verticalAlign=top;spacingLeft=4;spacingRight=4;overflow=hidden;rotatable=0;points=[[0,0.5],[1,0.5]];portConstraint=eastwest;whiteSpace=wrap;html=1;" parent="qbyrKcUKPjAhvGXzIgvA-259" vertex="1">
          <mxGeometry y="26" width="160" height="26" as="geometry" />
        </mxCell>
        <mxCell id="qbyrKcUKPjAhvGXzIgvA-263" value="+ description: string" style="text;align=left;verticalAlign=top;spacingLeft=4;spacingRight=4;overflow=hidden;rotatable=0;points=[[0,0.5],[1,0.5]];portConstraint=eastwest;whiteSpace=wrap;html=1;" parent="qbyrKcUKPjAhvGXzIgvA-259" vertex="1">
          <mxGeometry y="52" width="160" height="26" as="geometry" />
        </mxCell>
        <mxCell id="qbyrKcUKPjAhvGXzIgvA-261" value="+ expirationTime: datetime" style="text;align=left;verticalAlign=top;spacingLeft=4;spacingRight=4;overflow=hidden;rotatable=0;points=[[0,0.5],[1,0.5]];portConstraint=eastwest;whiteSpace=wrap;html=1;" parent="qbyrKcUKPjAhvGXzIgvA-259" vertex="1">
          <mxGeometry y="78" width="160" height="26" as="geometry" />
        </mxCell>
        <mxCell id="sBjSpITZdoOLeIIE-7B9-62" value="+ licenseType: LicenseType" style="text;align=left;verticalAlign=top;spacingLeft=4;spacingRight=4;overflow=hidden;rotatable=0;points=[[0,0.5],[1,0.5]];portConstraint=eastwest;whiteSpace=wrap;html=1;" parent="qbyrKcUKPjAhvGXzIgvA-259" vertex="1">
          <mxGeometry y="104" width="160" height="26" as="geometry" />
        </mxCell>
        <mxCell id="sBjSpITZdoOLeIIE-7B9-63" value="+ status: LicenseStatus" style="text;align=left;verticalAlign=top;spacingLeft=4;spacingRight=4;overflow=hidden;rotatable=0;points=[[0,0.5],[1,0.5]];portConstraint=eastwest;whiteSpace=wrap;html=1;" parent="qbyrKcUKPjAhvGXzIgvA-259" vertex="1">
          <mxGeometry y="130" width="160" height="26" as="geometry" />
        </mxCell>
        <mxCell id="qbyrKcUKPjAhvGXzIgvA-264" value="PaymantController" style="swimlane;fontStyle=1;align=center;verticalAlign=top;childLayout=stackLayout;horizontal=1;startSize=26;horizontalStack=0;resizeParent=1;resizeParentMax=0;resizeLast=0;collapsible=1;marginBottom=0;whiteSpace=wrap;html=1;fillColor=#f5f5f5;fontColor=#333333;strokeColor=#666666;" parent="1" vertex="1">
          <mxGeometry x="-213.75" y="1622" width="360" height="112" as="geometry" />
        </mxCell>
        <mxCell id="qbyrKcUKPjAhvGXzIgvA-265" value="- routingManager: IRoutingManager" style="text;align=left;verticalAlign=top;spacingLeft=4;spacingRight=4;overflow=hidden;rotatable=0;points=[[0,0.5],[1,0.5]];portConstraint=eastwest;whiteSpace=wrap;html=1;fillColor=#f5f5f5;fontColor=#333333;strokeColor=#666666;" parent="qbyrKcUKPjAhvGXzIgvA-264" vertex="1">
          <mxGeometry y="26" width="360" height="26" as="geometry" />
        </mxCell>
        <mxCell id="qbyrKcUKPjAhvGXzIgvA-266" value="" style="line;strokeWidth=1;align=left;verticalAlign=middle;spacingTop=-1;spacingLeft=3;spacingRight=3;rotatable=0;labelPosition=right;points=[];portConstraint=eastwest;fillColor=#f5f5f5;fontColor=#333333;strokeColor=#666666;" parent="qbyrKcUKPjAhvGXzIgvA-264" vertex="1">
          <mxGeometry y="52" width="360" height="8" as="geometry" />
        </mxCell>
        <mxCell id="qbyrKcUKPjAhvGXzIgvA-267" value="+&amp;nbsp;&lt;span style=&quot;text-align: center;&quot;&gt;Pay&lt;/span&gt;(int): ResponseMessage&amp;lt;bool&amp;gt;" style="text;align=left;verticalAlign=top;spacingLeft=4;spacingRight=4;overflow=hidden;rotatable=0;points=[[0,0.5],[1,0.5]];portConstraint=eastwest;whiteSpace=wrap;html=1;fillColor=#f5f5f5;fontColor=#333333;strokeColor=#666666;" parent="qbyrKcUKPjAhvGXzIgvA-264" vertex="1">
          <mxGeometry y="60" width="360" height="26" as="geometry" />
        </mxCell>
        <mxCell id="qbyrKcUKPjAhvGXzIgvA-268" value="+&amp;nbsp;&lt;span style=&quot;text-align: center;&quot;&gt;ChoosePaymantOption&lt;/span&gt;(int): ResponseMessage&amp;lt;bool&amp;gt;" style="text;align=left;verticalAlign=top;spacingLeft=4;spacingRight=4;overflow=hidden;rotatable=0;points=[[0,0.5],[1,0.5]];portConstraint=eastwest;whiteSpace=wrap;html=1;fillColor=#f5f5f5;fontColor=#333333;strokeColor=#666666;" parent="qbyrKcUKPjAhvGXzIgvA-264" vertex="1">
          <mxGeometry y="86" width="360" height="26" as="geometry" />
        </mxCell>
        <mxCell id="qbyrKcUKPjAhvGXzIgvA-269" value="PaymantRoutingManager" style="swimlane;fontStyle=1;align=center;verticalAlign=top;childLayout=stackLayout;horizontal=1;startSize=26;horizontalStack=0;resizeParent=1;resizeParentMax=0;resizeLast=0;collapsible=1;marginBottom=0;whiteSpace=wrap;html=1;fillColor=#f5f5f5;fontColor=#333333;strokeColor=#666666;" parent="1" vertex="1">
          <mxGeometry x="816.25" y="1639" width="280" height="164" as="geometry" />
        </mxCell>
        <mxCell id="qbyrKcUKPjAhvGXzIgvA-271" value="- p&lt;b style=&quot;text-align: center;&quot;&gt;aymantHandler&lt;/b&gt;:&amp;nbsp;&lt;b style=&quot;text-align: center;&quot;&gt;IPaymantHandler&lt;/b&gt;" style="text;strokeColor=#666666;fillColor=#f5f5f5;align=left;verticalAlign=top;spacingLeft=4;spacingRight=4;overflow=hidden;rotatable=0;points=[[0,0.5],[1,0.5]];portConstraint=eastwest;whiteSpace=wrap;html=1;fontColor=#333333;" parent="qbyrKcUKPjAhvGXzIgvA-269" vertex="1">
          <mxGeometry y="26" width="280" height="26" as="geometry" />
        </mxCell>
        <mxCell id="Iuk1dEieV5OjN-JEGwXN-1" value="- rateLimiter:&amp;nbsp;&lt;b style=&quot;text-align: center;&quot;&gt;IRateLimiter&lt;/b&gt;" style="text;strokeColor=#666666;fillColor=#f5f5f5;align=left;verticalAlign=top;spacingLeft=4;spacingRight=4;overflow=hidden;rotatable=0;points=[[0,0.5],[1,0.5]];portConstraint=eastwest;whiteSpace=wrap;html=1;fontColor=#333333;" parent="qbyrKcUKPjAhvGXzIgvA-269" vertex="1">
          <mxGeometry y="52" width="280" height="26" as="geometry" />
        </mxCell>
        <mxCell id="Iuk1dEieV5OjN-JEGwXN-8" value="&lt;span style=&quot;color: rgb(0, 0, 0);&quot;&gt;- authorizer:&amp;nbsp;&lt;/span&gt;&lt;span style=&quot;color: rgb(0, 0, 0); text-align: center;&quot;&gt;I&lt;/span&gt;&lt;span style=&quot;color: rgb(0, 0, 0); background-color: initial; text-align: center;&quot;&gt;Autorizer&lt;/span&gt;" style="text;strokeColor=#666666;fillColor=#f5f5f5;align=left;verticalAlign=top;spacingLeft=4;spacingRight=4;overflow=hidden;rotatable=0;points=[[0,0.5],[1,0.5]];portConstraint=eastwest;whiteSpace=wrap;html=1;fontColor=#333333;" parent="qbyrKcUKPjAhvGXzIgvA-269" vertex="1">
          <mxGeometry y="78" width="280" height="26" as="geometry" />
        </mxCell>
        <mxCell id="qbyrKcUKPjAhvGXzIgvA-272" value="" style="line;strokeWidth=1;fillColor=#f5f5f5;align=left;verticalAlign=middle;spacingTop=-1;spacingLeft=3;spacingRight=3;rotatable=0;labelPosition=right;points=[];portConstraint=eastwest;strokeColor=#666666;fontColor=#333333;" parent="qbyrKcUKPjAhvGXzIgvA-269" vertex="1">
          <mxGeometry y="104" width="280" height="8" as="geometry" />
        </mxCell>
        <mxCell id="qbyrKcUKPjAhvGXzIgvA-273" value="&lt;p style=&quot;margin: 0px 0px 0px 4px;&quot;&gt;+&amp;nbsp;&lt;span style=&quot;text-align: center;&quot;&gt;Pay&lt;/span&gt;(int): bool&lt;/p&gt;&lt;div&gt;&lt;br&gt;&lt;/div&gt;" style="text;strokeColor=#666666;fillColor=#f5f5f5;align=left;verticalAlign=top;spacingLeft=4;spacingRight=4;overflow=hidden;rotatable=0;points=[[0,0.5],[1,0.5]];portConstraint=eastwest;whiteSpace=wrap;html=1;fontColor=#333333;" parent="qbyrKcUKPjAhvGXzIgvA-269" vertex="1">
          <mxGeometry y="112" width="280" height="26" as="geometry" />
        </mxCell>
        <mxCell id="qbyrKcUKPjAhvGXzIgvA-274" value="&lt;span style=&quot;background-color: initial;&quot;&gt;+&amp;nbsp;&lt;/span&gt;&lt;span style=&quot;background-color: initial; text-align: center;&quot;&gt;ChoosePaymantOption&lt;/span&gt;&lt;span style=&quot;background-color: initial;&quot;&gt;(PaymantOption): bool&lt;/span&gt;" style="text;strokeColor=#666666;fillColor=#f5f5f5;align=left;verticalAlign=top;spacingLeft=4;spacingRight=4;overflow=hidden;rotatable=0;points=[[0,0.5],[1,0.5]];portConstraint=eastwest;whiteSpace=wrap;html=1;fontColor=#333333;" parent="qbyrKcUKPjAhvGXzIgvA-269" vertex="1">
          <mxGeometry y="138" width="280" height="26" as="geometry" />
        </mxCell>
        <mxCell id="qbyrKcUKPjAhvGXzIgvA-275" value="&lt;p style=&quot;margin:0px;margin-top:4px;text-align:center;&quot;&gt;&lt;i&gt;&amp;lt;&amp;lt;Interface&amp;gt;&amp;gt;&lt;/i&gt;&lt;br&gt;&lt;b&gt;I&lt;/b&gt;&lt;span style=&quot;font-weight: 700; background-color: initial;&quot;&gt;PaymantRoutingManager&lt;/span&gt;&lt;br&gt;&lt;/p&gt;&lt;hr size=&quot;1&quot; style=&quot;border-style:solid;&quot;&gt;&lt;p style=&quot;margin: 0px 0px 0px 4px;&quot;&gt;+&amp;nbsp;&lt;span style=&quot;text-align: center;&quot;&gt;Pay&lt;/span&gt;(int): bool&lt;/p&gt;&lt;p style=&quot;margin:0px;margin-left:4px;&quot;&gt;&lt;span style=&quot;background-color: initial;&quot;&gt;+&amp;nbsp;&lt;/span&gt;&lt;span style=&quot;background-color: initial; text-align: center;&quot;&gt;ChoosePaymantOption&lt;/span&gt;&lt;span style=&quot;background-color: initial;&quot;&gt;(PaymantOption): bool&lt;/span&gt;&lt;/p&gt;" style="verticalAlign=top;align=left;overflow=fill;html=1;whiteSpace=wrap;fillColor=#f5f5f5;fontColor=#333333;strokeColor=#666666;" parent="1" vertex="1">
          <mxGeometry x="296.25" y="1636" width="300" height="90" as="geometry" />
        </mxCell>
        <mxCell id="qbyrKcUKPjAhvGXzIgvA-276" value="&lt;b&gt;&amp;lt;enum&amp;gt;&lt;br&gt;PaymantOption&lt;/b&gt;" style="swimlane;fontStyle=0;childLayout=stackLayout;horizontal=1;startSize=40;horizontalStack=0;resizeParent=1;resizeParentMax=0;resizeLast=0;collapsible=1;marginBottom=0;whiteSpace=wrap;html=1;" parent="1" vertex="1">
          <mxGeometry x="386.25" y="1772" width="160" height="118" as="geometry" />
        </mxCell>
        <mxCell id="qbyrKcUKPjAhvGXzIgvA-277" value="CreditCard" style="text;align=left;verticalAlign=top;spacingLeft=4;spacingRight=4;overflow=hidden;rotatable=0;points=[[0,0.5],[1,0.5]];portConstraint=eastwest;whiteSpace=wrap;html=1;" parent="qbyrKcUKPjAhvGXzIgvA-276" vertex="1">
          <mxGeometry y="40" width="160" height="26" as="geometry" />
        </mxCell>
        <mxCell id="qbyrKcUKPjAhvGXzIgvA-278" value="PayPal" style="text;align=left;verticalAlign=top;spacingLeft=4;spacingRight=4;overflow=hidden;rotatable=0;points=[[0,0.5],[1,0.5]];portConstraint=eastwest;whiteSpace=wrap;html=1;" parent="qbyrKcUKPjAhvGXzIgvA-276" vertex="1">
          <mxGeometry y="66" width="160" height="26" as="geometry" />
        </mxCell>
        <mxCell id="qbyrKcUKPjAhvGXzIgvA-279" value="GooglePay" style="text;align=left;verticalAlign=top;spacingLeft=4;spacingRight=4;overflow=hidden;rotatable=0;points=[[0,0.5],[1,0.5]];portConstraint=eastwest;whiteSpace=wrap;html=1;" parent="qbyrKcUKPjAhvGXzIgvA-276" vertex="1">
          <mxGeometry y="92" width="160" height="26" as="geometry" />
        </mxCell>
        <mxCell id="qbyrKcUKPjAhvGXzIgvA-281" value="" style="endArrow=classic;html=1;rounded=0;exitX=1;exitY=0.5;exitDx=0;exitDy=0;entryX=0;entryY=0.25;entryDx=0;entryDy=0;fillColor=#f5f5f5;strokeColor=#666666;" parent="1" source="qbyrKcUKPjAhvGXzIgvA-265" target="qbyrKcUKPjAhvGXzIgvA-275" edge="1">
          <mxGeometry width="50" height="50" relative="1" as="geometry">
            <mxPoint x="116.25" y="1582" as="sourcePoint" />
            <mxPoint x="336.25" y="1522" as="targetPoint" />
          </mxGeometry>
        </mxCell>
        <mxCell id="qbyrKcUKPjAhvGXzIgvA-282" value="" style="endArrow=block;dashed=1;endFill=0;endSize=12;html=1;rounded=0;entryX=0.999;entryY=0.162;entryDx=0;entryDy=0;exitX=-0.009;exitY=0.098;exitDx=0;exitDy=0;exitPerimeter=0;entryPerimeter=0;fillColor=#f5f5f5;strokeColor=#666666;" parent="1" source="qbyrKcUKPjAhvGXzIgvA-269" target="qbyrKcUKPjAhvGXzIgvA-275" edge="1">
          <mxGeometry width="160" relative="1" as="geometry">
            <mxPoint x="756.25" y="1652" as="sourcePoint" />
            <mxPoint x="463.25" y="1370" as="targetPoint" />
          </mxGeometry>
        </mxCell>
        <mxCell id="qbyrKcUKPjAhvGXzIgvA-283" value="" style="endArrow=block;dashed=1;endFill=0;endSize=12;html=1;rounded=0;entryX=1;entryY=0.5;entryDx=0;entryDy=0;exitX=0.016;exitY=0.128;exitDx=0;exitDy=0;exitPerimeter=0;fillColor=#f5f5f5;strokeColor=#666666;" parent="1" source="qbyrKcUKPjAhvGXzIgvA-74" target="qbyrKcUKPjAhvGXzIgvA-78" edge="1">
          <mxGeometry width="160" relative="1" as="geometry">
            <mxPoint x="2536.25" y="1474" as="sourcePoint" />
            <mxPoint x="1977.25" y="1469" as="targetPoint" />
          </mxGeometry>
        </mxCell>
        <mxCell id="qbyrKcUKPjAhvGXzIgvA-284" value="" style="endArrow=classic;html=1;rounded=0;fillColor=#f5f5f5;strokeColor=#666666;entryX=0;entryY=0.5;entryDx=0;entryDy=0;" parent="1" target="qbyrKcUKPjAhvGXzIgvA-78" edge="1">
          <mxGeometry width="50" height="50" relative="1" as="geometry">
            <mxPoint x="1096.25" y="1682" as="sourcePoint" />
            <mxPoint x="1366.25" y="1742" as="targetPoint" />
          </mxGeometry>
        </mxCell>
        <mxCell id="Iuk1dEieV5OjN-JEGwXN-4" value="" style="endArrow=classic;html=1;rounded=0;exitX=1;exitY=0.5;exitDx=0;exitDy=0;entryX=0.25;entryY=1;entryDx=0;entryDy=0;edgeStyle=orthogonalEdgeStyle;" parent="1" source="Iuk1dEieV5OjN-JEGwXN-2" target="qbyrKcUKPjAhvGXzIgvA-217" edge="1">
          <mxGeometry width="50" height="50" relative="1" as="geometry">
            <mxPoint x="1370" y="980" as="sourcePoint" />
            <mxPoint x="1490" y="500" as="targetPoint" />
          </mxGeometry>
        </mxCell>
        <mxCell id="Iuk1dEieV5OjN-JEGwXN-9" value="" style="endArrow=classic;html=1;rounded=0;exitX=1;exitY=0.5;exitDx=0;exitDy=0;entryX=0.383;entryY=1.006;entryDx=0;entryDy=0;entryPerimeter=0;edgeStyle=orthogonalEdgeStyle;" parent="1" source="Iuk1dEieV5OjN-JEGwXN-7" target="qbyrKcUKPjAhvGXzIgvA-217" edge="1">
          <mxGeometry width="50" height="50" relative="1" as="geometry">
            <mxPoint x="1240" y="980" as="sourcePoint" />
            <mxPoint x="1290" y="930" as="targetPoint" />
          </mxGeometry>
        </mxCell>
        <mxCell id="Iuk1dEieV5OjN-JEGwXN-10" value="" style="endArrow=classic;html=1;rounded=0;exitX=1;exitY=0.5;exitDx=0;exitDy=0;entryX=0.5;entryY=1;entryDx=0;entryDy=0;edgeStyle=orthogonalEdgeStyle;" parent="1" source="Iuk1dEieV5OjN-JEGwXN-8" target="qbyrKcUKPjAhvGXzIgvA-217" edge="1">
          <mxGeometry width="50" height="50" relative="1" as="geometry">
            <mxPoint x="1380" y="1230" as="sourcePoint" />
            <mxPoint x="1430" y="1180" as="targetPoint" />
          </mxGeometry>
        </mxCell>
        <mxCell id="Iuk1dEieV5OjN-JEGwXN-17" value="" style="endArrow=block;dashed=1;endFill=0;endSize=12;html=1;rounded=0;exitX=0.999;exitY=0.093;exitDx=0;exitDy=0;exitPerimeter=0;entryX=0;entryY=0.25;entryDx=0;entryDy=0;edgeStyle=orthogonalEdgeStyle;" parent="1" source="Iuk1dEieV5OjN-JEGwXN-18" target="qbyrKcUKPjAhvGXzIgvA-221" edge="1">
          <mxGeometry width="160" relative="1" as="geometry">
            <mxPoint x="1980" y="-10" as="sourcePoint" />
            <mxPoint x="1980" y="-110" as="targetPoint" />
          </mxGeometry>
        </mxCell>
        <mxCell id="Iuk1dEieV5OjN-JEGwXN-18" value="&lt;span style=&quot;font-weight: 400; text-wrap: nowrap; color: rgba(0, 0, 0, 0); font-family: monospace; font-size: 0px; text-align: start;&quot;&gt;3E&lt;/span&gt;&lt;b&gt;SessionTokenCacher&lt;/b&gt;" style="swimlane;fontStyle=1;align=center;verticalAlign=top;childLayout=stackLayout;horizontal=1;startSize=26;horizontalStack=0;resizeParent=1;resizeParentMax=0;resizeLast=0;collapsible=1;marginBottom=0;whiteSpace=wrap;html=1;fillColor=#dae8fc;strokeColor=#6c8ebf;" parent="1" vertex="1">
          <mxGeometry x="1530" y="-100" width="380" height="138" as="geometry" />
        </mxCell>
        <mxCell id="Iuk1dEieV5OjN-JEGwXN-20" value="- sessionTokenCache:&amp;nbsp;&lt;span style=&quot;text-align: center;&quot;&gt;SessionToken[]&lt;/span&gt;" style="text;strokeColor=none;fillColor=none;align=left;verticalAlign=top;spacingLeft=4;spacingRight=4;overflow=hidden;rotatable=0;points=[[0,0.5],[1,0.5]];portConstraint=eastwest;whiteSpace=wrap;html=1;" parent="Iuk1dEieV5OjN-JEGwXN-18" vertex="1">
          <mxGeometry y="26" width="380" height="26" as="geometry" />
        </mxCell>
        <mxCell id="Iuk1dEieV5OjN-JEGwXN-21" value="" style="line;strokeWidth=1;fillColor=none;align=left;verticalAlign=middle;spacingTop=-1;spacingLeft=3;spacingRight=3;rotatable=0;labelPosition=right;points=[];portConstraint=eastwest;strokeColor=inherit;" parent="Iuk1dEieV5OjN-JEGwXN-18" vertex="1">
          <mxGeometry y="52" width="380" height="8" as="geometry" />
        </mxCell>
        <mxCell id="Iuk1dEieV5OjN-JEGwXN-22" value="&lt;p style=&quot;margin: 0px 0px 0px 4px;&quot;&gt;-&amp;nbsp;&lt;span style=&quot;text-align: center;&quot;&gt;ClearExpiredCache&lt;/span&gt;(userName: string, token: string): boolean&lt;br&gt;&lt;/p&gt;&lt;div&gt;&lt;br&gt;&lt;/div&gt;" style="text;strokeColor=none;fillColor=none;align=left;verticalAlign=top;spacingLeft=4;spacingRight=4;overflow=hidden;rotatable=0;points=[[0,0.5],[1,0.5]];portConstraint=eastwest;whiteSpace=wrap;html=1;" parent="Iuk1dEieV5OjN-JEGwXN-18" vertex="1">
          <mxGeometry y="60" width="380" height="26" as="geometry" />
        </mxCell>
        <mxCell id="Iuk1dEieV5OjN-JEGwXN-23" value="&lt;p style=&quot;margin: 0px 0px 0px 4px;&quot;&gt;+&amp;nbsp;&lt;span style=&quot;text-align: center;&quot;&gt;CacheToken&lt;/span&gt;(userName: string, token: string): void&lt;br&gt;&lt;/p&gt;" style="text;strokeColor=none;fillColor=none;align=left;verticalAlign=top;spacingLeft=4;spacingRight=4;overflow=hidden;rotatable=0;points=[[0,0.5],[1,0.5]];portConstraint=eastwest;whiteSpace=wrap;html=1;" parent="Iuk1dEieV5OjN-JEGwXN-18" vertex="1">
          <mxGeometry y="86" width="380" height="26" as="geometry" />
        </mxCell>
        <mxCell id="Iuk1dEieV5OjN-JEGwXN-44" value="&lt;p style=&quot;margin: 0px 0px 0px 4px;&quot;&gt;+&amp;nbsp;&lt;span style=&quot;text-align: center;&quot;&gt;CacheToken&lt;/span&gt;(userName: string, token: string): void&lt;br&gt;&lt;/p&gt;" style="text;strokeColor=none;fillColor=none;align=left;verticalAlign=top;spacingLeft=4;spacingRight=4;overflow=hidden;rotatable=0;points=[[0,0.5],[1,0.5]];portConstraint=eastwest;whiteSpace=wrap;html=1;" parent="Iuk1dEieV5OjN-JEGwXN-18" vertex="1">
          <mxGeometry y="112" width="380" height="26" as="geometry" />
        </mxCell>
        <mxCell id="Iuk1dEieV5OjN-JEGwXN-25" value="&lt;b&gt;&amp;lt;enum&amp;gt;&lt;br&gt;UserLevel&lt;/b&gt;" style="swimlane;fontStyle=0;childLayout=stackLayout;horizontal=1;startSize=40;horizontalStack=0;resizeParent=1;resizeParentMax=0;resizeLast=0;collapsible=1;marginBottom=0;whiteSpace=wrap;html=1;fillColor=#b0e3e6;strokeColor=#0e8088;" parent="1" vertex="1">
          <mxGeometry x="1650" y="-420" width="160" height="144" as="geometry" />
        </mxCell>
        <mxCell id="sBjSpITZdoOLeIIE-7B9-166" value="Unknown" style="text;align=left;verticalAlign=top;spacingLeft=4;spacingRight=4;overflow=hidden;rotatable=0;points=[[0,0.5],[1,0.5]];portConstraint=eastwest;whiteSpace=wrap;html=1;" parent="Iuk1dEieV5OjN-JEGwXN-25" vertex="1">
          <mxGeometry y="40" width="160" height="26" as="geometry" />
        </mxCell>
        <mxCell id="Iuk1dEieV5OjN-JEGwXN-26" value="EndUser" style="text;align=left;verticalAlign=top;spacingLeft=4;spacingRight=4;overflow=hidden;rotatable=0;points=[[0,0.5],[1,0.5]];portConstraint=eastwest;whiteSpace=wrap;html=1;" parent="Iuk1dEieV5OjN-JEGwXN-25" vertex="1">
          <mxGeometry y="66" width="160" height="26" as="geometry" />
        </mxCell>
        <mxCell id="Iuk1dEieV5OjN-JEGwXN-27" value="ContentCreator" style="text;align=left;verticalAlign=top;spacingLeft=4;spacingRight=4;overflow=hidden;rotatable=0;points=[[0,0.5],[1,0.5]];portConstraint=eastwest;whiteSpace=wrap;html=1;" parent="Iuk1dEieV5OjN-JEGwXN-25" vertex="1">
          <mxGeometry y="92" width="160" height="26" as="geometry" />
        </mxCell>
        <mxCell id="Iuk1dEieV5OjN-JEGwXN-28" value="Administrator" style="text;align=left;verticalAlign=top;spacingLeft=4;spacingRight=4;overflow=hidden;rotatable=0;points=[[0,0.5],[1,0.5]];portConstraint=eastwest;whiteSpace=wrap;html=1;" parent="Iuk1dEieV5OjN-JEGwXN-25" vertex="1">
          <mxGeometry y="118" width="160" height="26" as="geometry" />
        </mxCell>
        <mxCell id="Iuk1dEieV5OjN-JEGwXN-31" value="&lt;b&gt;SessionToken&lt;/b&gt;" style="swimlane;fontStyle=0;childLayout=stackLayout;horizontal=1;startSize=26;horizontalStack=0;resizeParent=1;resizeParentMax=0;resizeLast=0;collapsible=1;marginBottom=0;whiteSpace=wrap;html=1;fillColor=#f8cecc;strokeColor=#b85450;" parent="1" vertex="1">
          <mxGeometry x="1170" y="-235" width="160" height="78" as="geometry" />
        </mxCell>
        <mxCell id="Iuk1dEieV5OjN-JEGwXN-33" value="+ token: String" style="text;align=left;verticalAlign=top;spacingLeft=4;spacingRight=4;overflow=hidden;rotatable=0;points=[[0,0.5],[1,0.5]];portConstraint=eastwest;whiteSpace=wrap;html=1;" parent="Iuk1dEieV5OjN-JEGwXN-31" vertex="1">
          <mxGeometry y="26" width="160" height="26" as="geometry" />
        </mxCell>
        <mxCell id="Iuk1dEieV5OjN-JEGwXN-34" value="+ expirationDate: DateTime" style="text;align=left;verticalAlign=top;spacingLeft=4;spacingRight=4;overflow=hidden;rotatable=0;points=[[0,0.5],[1,0.5]];portConstraint=eastwest;whiteSpace=wrap;html=1;" parent="Iuk1dEieV5OjN-JEGwXN-31" vertex="1">
          <mxGeometry y="52" width="160" height="26" as="geometry" />
        </mxCell>
        <mxCell id="Iuk1dEieV5OjN-JEGwXN-46" value="" style="endArrow=diamondThin;endFill=1;endSize=24;html=1;rounded=0;entryX=0;entryY=0.5;entryDx=0;entryDy=0;exitX=1.01;exitY=0.153;exitDx=0;exitDy=0;exitPerimeter=0;edgeStyle=orthogonalEdgeStyle;" parent="1" source="Iuk1dEieV5OjN-JEGwXN-31" target="Iuk1dEieV5OjN-JEGwXN-20" edge="1">
          <mxGeometry width="160" relative="1" as="geometry">
            <mxPoint x="1440" y="-60" as="sourcePoint" />
            <mxPoint x="1515" y="-60" as="targetPoint" />
            <Array as="points">
              <mxPoint x="1410" y="-223" />
              <mxPoint x="1410" y="-61" />
            </Array>
          </mxGeometry>
        </mxCell>
        <mxCell id="sBjSpITZdoOLeIIE-7B9-16" value="ContentDataMapper" style="swimlane;fontStyle=1;align=center;verticalAlign=top;childLayout=stackLayout;horizontal=1;startSize=26;horizontalStack=0;resizeParent=1;resizeParentMax=0;resizeLast=0;collapsible=1;marginBottom=0;whiteSpace=wrap;html=1;fillColor=#6d8764;fontColor=#ffffff;strokeColor=#3A5431;" parent="1" vertex="1">
          <mxGeometry x="-230" y="-530" width="390" height="86" as="geometry" />
        </mxCell>
        <mxCell id="sBjSpITZdoOLeIIE-7B9-20" value="" style="line;strokeWidth=1;align=left;verticalAlign=middle;spacingTop=-1;spacingLeft=3;spacingRight=3;rotatable=0;labelPosition=right;points=[];portConstraint=eastwest;" parent="sBjSpITZdoOLeIIE-7B9-16" vertex="1">
          <mxGeometry y="26" width="390" height="8" as="geometry" />
        </mxCell>
        <mxCell id="sBjSpITZdoOLeIIE-7B9-21" value="&lt;p style=&quot;text-align: center; margin: 0px 0px 0px 4px;&quot;&gt;+ FormatToContent(contentModel: ContentModel): Content&lt;/p&gt;&lt;div&gt;&lt;br&gt;&lt;/div&gt;" style="text;align=left;verticalAlign=top;spacingLeft=4;spacingRight=4;overflow=hidden;rotatable=0;points=[[0,0.5],[1,0.5]];portConstraint=eastwest;whiteSpace=wrap;html=1;" parent="sBjSpITZdoOLeIIE-7B9-16" vertex="1">
          <mxGeometry y="34" width="390" height="26" as="geometry" />
        </mxCell>
        <mxCell id="sBjSpITZdoOLeIIE-7B9-23" value="&lt;p style=&quot;text-align: center; margin: 0px 0px 0px 4px;&quot;&gt;+ FormatToContentModel(contentModel: Content):&amp;nbsp;&lt;span style=&quot;background-color: initial;&quot;&gt;ContentModel&lt;/span&gt;&lt;/p&gt;&lt;div&gt;&lt;br&gt;&lt;/div&gt;" style="text;align=left;verticalAlign=top;spacingLeft=4;spacingRight=4;overflow=hidden;rotatable=0;points=[[0,0.5],[1,0.5]];portConstraint=eastwest;whiteSpace=wrap;html=1;" parent="sBjSpITZdoOLeIIE-7B9-16" vertex="1">
          <mxGeometry y="60" width="390" height="26" as="geometry" />
        </mxCell>
        <mxCell id="sBjSpITZdoOLeIIE-7B9-25" value="" style="endArrow=classic;html=1;rounded=0;exitX=1;exitY=0.5;exitDx=0;exitDy=0;entryX=0.5;entryY=0;entryDx=0;entryDy=0;edgeStyle=orthogonalEdgeStyle;" parent="1" source="sBjSpITZdoOLeIIE-7B9-21" target="qbyrKcUKPjAhvGXzIgvA-54" edge="1">
          <mxGeometry width="50" height="50" relative="1" as="geometry">
            <mxPoint x="245" y="-340" as="sourcePoint" />
            <mxPoint x="445" y="-340" as="targetPoint" />
          </mxGeometry>
        </mxCell>
        <mxCell id="sBjSpITZdoOLeIIE-7B9-27" value="" style="endArrow=classic;html=1;rounded=0;exitX=0;exitY=0.5;exitDx=0;exitDy=0;entryX=0.5;entryY=0;entryDx=0;entryDy=0;edgeStyle=orthogonalEdgeStyle;" parent="1" source="sBjSpITZdoOLeIIE-7B9-23" target="qbyrKcUKPjAhvGXzIgvA-254" edge="1">
          <mxGeometry width="50" height="50" relative="1" as="geometry">
            <mxPoint x="-45" y="-420" as="sourcePoint" />
            <mxPoint x="-150" y="-290" as="targetPoint" />
          </mxGeometry>
        </mxCell>
        <mxCell id="sBjSpITZdoOLeIIE-7B9-29" value="UserDataMapper" style="swimlane;fontStyle=1;align=center;verticalAlign=top;childLayout=stackLayout;horizontal=1;startSize=26;horizontalStack=0;resizeParent=1;resizeParentMax=0;resizeLast=0;collapsible=1;marginBottom=0;whiteSpace=wrap;html=1;fillColor=#6d8764;fontColor=#ffffff;strokeColor=#3A5431;" parent="1" vertex="1">
          <mxGeometry x="-230" y="-420" width="390" height="86" as="geometry" />
        </mxCell>
        <mxCell id="sBjSpITZdoOLeIIE-7B9-30" value="" style="line;strokeWidth=1;align=left;verticalAlign=middle;spacingTop=-1;spacingLeft=3;spacingRight=3;rotatable=0;labelPosition=right;points=[];portConstraint=eastwest;" parent="sBjSpITZdoOLeIIE-7B9-29" vertex="1">
          <mxGeometry y="26" width="390" height="8" as="geometry" />
        </mxCell>
        <mxCell id="sBjSpITZdoOLeIIE-7B9-31" value="&lt;p style=&quot;text-align: center; margin: 0px 0px 0px 4px;&quot;&gt;+ FormatToUser(contentModel: UserModel): User&lt;/p&gt;&lt;div&gt;&lt;br&gt;&lt;/div&gt;" style="text;align=left;verticalAlign=top;spacingLeft=4;spacingRight=4;overflow=hidden;rotatable=0;points=[[0,0.5],[1,0.5]];portConstraint=eastwest;whiteSpace=wrap;html=1;" parent="sBjSpITZdoOLeIIE-7B9-29" vertex="1">
          <mxGeometry y="34" width="390" height="26" as="geometry" />
        </mxCell>
        <mxCell id="sBjSpITZdoOLeIIE-7B9-32" value="&lt;p style=&quot;text-align: center; margin: 0px 0px 0px 4px;&quot;&gt;+ FormatToUserModel(contentModel: User): User&lt;span style=&quot;background-color: initial;&quot;&gt;Model&lt;/span&gt;&lt;/p&gt;&lt;div&gt;&lt;br&gt;&lt;/div&gt;" style="text;align=left;verticalAlign=top;spacingLeft=4;spacingRight=4;overflow=hidden;rotatable=0;points=[[0,0.5],[1,0.5]];portConstraint=eastwest;whiteSpace=wrap;html=1;" parent="sBjSpITZdoOLeIIE-7B9-29" vertex="1">
          <mxGeometry y="60" width="390" height="26" as="geometry" />
        </mxCell>
        <mxCell id="sBjSpITZdoOLeIIE-7B9-33" value="&lt;b&gt;Comment&lt;/b&gt;DataMapper" style="swimlane;fontStyle=1;align=center;verticalAlign=top;childLayout=stackLayout;horizontal=1;startSize=26;horizontalStack=0;resizeParent=1;resizeParentMax=0;resizeLast=0;collapsible=1;marginBottom=0;whiteSpace=wrap;html=1;fillColor=#6d8764;fontColor=#ffffff;strokeColor=#3A5431;" parent="1" vertex="1">
          <mxGeometry x="-320" y="-740" width="560" height="86" as="geometry" />
        </mxCell>
        <mxCell id="sBjSpITZdoOLeIIE-7B9-34" value="" style="line;strokeWidth=1;align=left;verticalAlign=middle;spacingTop=-1;spacingLeft=3;spacingRight=3;rotatable=0;labelPosition=right;points=[];portConstraint=eastwest;" parent="sBjSpITZdoOLeIIE-7B9-33" vertex="1">
          <mxGeometry y="26" width="560" height="8" as="geometry" />
        </mxCell>
        <mxCell id="sBjSpITZdoOLeIIE-7B9-35" value="&lt;p style=&quot;text-align: center; margin: 0px 0px 0px 4px;&quot;&gt;+ FormatToContentComment(contentCommentModel: ContentCommentModel):&amp;nbsp;&lt;span style=&quot;background-color: initial; text-align: left;&quot;&gt;ContentComment&lt;/span&gt;&lt;/p&gt;&lt;div&gt;&lt;br&gt;&lt;/div&gt;" style="text;align=left;verticalAlign=top;spacingLeft=4;spacingRight=4;overflow=hidden;rotatable=0;points=[[0,0.5],[1,0.5]];portConstraint=eastwest;whiteSpace=wrap;html=1;" parent="sBjSpITZdoOLeIIE-7B9-33" vertex="1">
          <mxGeometry y="34" width="560" height="26" as="geometry" />
        </mxCell>
        <mxCell id="sBjSpITZdoOLeIIE-7B9-36" value="&lt;p style=&quot;text-align: center; margin: 0px 0px 0px 4px;&quot;&gt;+ FormatToCommentModel(contentComment: ContentComment): ContentComment&lt;span style=&quot;background-color: initial;&quot;&gt;Model&lt;/span&gt;&lt;/p&gt;&lt;div&gt;&lt;br&gt;&lt;/div&gt;" style="text;align=left;verticalAlign=top;spacingLeft=4;spacingRight=4;overflow=hidden;rotatable=0;points=[[0,0.5],[1,0.5]];portConstraint=eastwest;whiteSpace=wrap;html=1;" parent="sBjSpITZdoOLeIIE-7B9-33" vertex="1">
          <mxGeometry y="60" width="560" height="26" as="geometry" />
        </mxCell>
        <mxCell id="sBjSpITZdoOLeIIE-7B9-37" value="&lt;b&gt;License&lt;/b&gt;DataMapper" style="swimlane;fontStyle=1;align=center;verticalAlign=top;childLayout=stackLayout;horizontal=1;startSize=26;horizontalStack=0;resizeParent=1;resizeParentMax=0;resizeLast=0;collapsible=1;marginBottom=0;whiteSpace=wrap;html=1;fillColor=#6d8764;fontColor=#ffffff;strokeColor=#3A5431;" parent="1" vertex="1">
          <mxGeometry x="-230" y="-636" width="390" height="86" as="geometry" />
        </mxCell>
        <mxCell id="sBjSpITZdoOLeIIE-7B9-38" value="" style="line;strokeWidth=1;align=left;verticalAlign=middle;spacingTop=-1;spacingLeft=3;spacingRight=3;rotatable=0;labelPosition=right;points=[];portConstraint=eastwest;" parent="sBjSpITZdoOLeIIE-7B9-37" vertex="1">
          <mxGeometry y="26" width="390" height="8" as="geometry" />
        </mxCell>
        <mxCell id="sBjSpITZdoOLeIIE-7B9-39" value="&lt;p style=&quot;text-align: center; margin: 0px 0px 0px 4px;&quot;&gt;+ FormatToLicense(contentModel: LicenseModel):&amp;nbsp;&lt;span style=&quot;background-color: initial;&quot;&gt;License&lt;/span&gt;&lt;/p&gt;&lt;div&gt;&lt;br&gt;&lt;/div&gt;" style="text;align=left;verticalAlign=top;spacingLeft=4;spacingRight=4;overflow=hidden;rotatable=0;points=[[0,0.5],[1,0.5]];portConstraint=eastwest;whiteSpace=wrap;html=1;" parent="sBjSpITZdoOLeIIE-7B9-37" vertex="1">
          <mxGeometry y="34" width="390" height="26" as="geometry" />
        </mxCell>
        <mxCell id="sBjSpITZdoOLeIIE-7B9-40" value="&lt;p style=&quot;text-align: center; margin: 0px 0px 0px 4px;&quot;&gt;+ FormatToLicenseModel(contentModel: License): License&lt;span style=&quot;background-color: initial;&quot;&gt;Model&lt;/span&gt;&lt;/p&gt;&lt;div&gt;&lt;br&gt;&lt;/div&gt;" style="text;align=left;verticalAlign=top;spacingLeft=4;spacingRight=4;overflow=hidden;rotatable=0;points=[[0,0.5],[1,0.5]];portConstraint=eastwest;whiteSpace=wrap;html=1;" parent="sBjSpITZdoOLeIIE-7B9-37" vertex="1">
          <mxGeometry y="60" width="390" height="26" as="geometry" />
        </mxCell>
        <mxCell id="sBjSpITZdoOLeIIE-7B9-41" value="" style="endArrow=classic;html=1;rounded=0;exitX=0.43;exitY=1.015;exitDx=0;exitDy=0;exitPerimeter=0;entryX=0.5;entryY=0;entryDx=0;entryDy=0;" parent="1" source="sBjSpITZdoOLeIIE-7B9-32" target="qbyrKcUKPjAhvGXzIgvA-245" edge="1">
          <mxGeometry width="50" height="50" relative="1" as="geometry">
            <mxPoint x="70" y="-320" as="sourcePoint" />
            <mxPoint x="120" y="-370" as="targetPoint" />
          </mxGeometry>
        </mxCell>
        <mxCell id="sBjSpITZdoOLeIIE-7B9-42" value="" style="endArrow=classic;html=1;rounded=0;exitX=1;exitY=0.5;exitDx=0;exitDy=0;entryX=0.47;entryY=-0.004;entryDx=0;entryDy=0;entryPerimeter=0;edgeStyle=orthogonalEdgeStyle;" parent="1" source="sBjSpITZdoOLeIIE-7B9-31" target="qbyrKcUKPjAhvGXzIgvA-31" edge="1">
          <mxGeometry width="50" height="50" relative="1" as="geometry">
            <mxPoint x="-52" y="-324" as="sourcePoint" />
            <mxPoint x="-50" y="-212" as="targetPoint" />
          </mxGeometry>
        </mxCell>
        <mxCell id="sBjSpITZdoOLeIIE-7B9-43" value="" style="endArrow=classic;html=1;rounded=0;exitX=1;exitY=0.5;exitDx=0;exitDy=0;entryX=0.5;entryY=0;entryDx=0;entryDy=0;edgeStyle=orthogonalEdgeStyle;" parent="1" source="sBjSpITZdoOLeIIE-7B9-39" target="qbyrKcUKPjAhvGXzIgvA-62" edge="1">
          <mxGeometry width="50" height="50" relative="1" as="geometry">
            <mxPoint x="170" y="-473" as="sourcePoint" />
            <mxPoint x="570" y="-230" as="targetPoint" />
          </mxGeometry>
        </mxCell>
        <mxCell id="sBjSpITZdoOLeIIE-7B9-44" value="" style="endArrow=classic;html=1;rounded=0;exitX=1;exitY=0.5;exitDx=0;exitDy=0;entryX=0.5;entryY=0;entryDx=0;entryDy=0;edgeStyle=orthogonalEdgeStyle;" parent="1" source="sBjSpITZdoOLeIIE-7B9-35" target="qbyrKcUKPjAhvGXzIgvA-41" edge="1">
          <mxGeometry width="50" height="50" relative="1" as="geometry">
            <mxPoint x="170" y="-579" as="sourcePoint" />
            <mxPoint x="780" y="-233" as="targetPoint" />
          </mxGeometry>
        </mxCell>
        <mxCell id="sBjSpITZdoOLeIIE-7B9-45" value="" style="endArrow=classic;html=1;rounded=0;exitX=0;exitY=0.5;exitDx=0;exitDy=0;entryX=0.5;entryY=0;entryDx=0;entryDy=0;edgeStyle=orthogonalEdgeStyle;" parent="1" source="sBjSpITZdoOLeIIE-7B9-40" target="qbyrKcUKPjAhvGXzIgvA-259" edge="1">
          <mxGeometry width="50" height="50" relative="1" as="geometry">
            <mxPoint x="110" y="-390" as="sourcePoint" />
            <mxPoint x="160" y="-440" as="targetPoint" />
          </mxGeometry>
        </mxCell>
        <mxCell id="sBjSpITZdoOLeIIE-7B9-46" value="" style="endArrow=classic;html=1;rounded=0;exitX=0;exitY=0.5;exitDx=0;exitDy=0;entryX=0.5;entryY=0;entryDx=0;entryDy=0;edgeStyle=orthogonalEdgeStyle;" parent="1" source="sBjSpITZdoOLeIIE-7B9-36" target="qbyrKcUKPjAhvGXzIgvA-249" edge="1">
          <mxGeometry width="50" height="50" relative="1" as="geometry">
            <mxPoint x="-220" y="-553" as="sourcePoint" />
            <mxPoint x="-480" y="-225" as="targetPoint" />
          </mxGeometry>
        </mxCell>
        <mxCell id="sBjSpITZdoOLeIIE-7B9-50" value="&lt;b&gt;&amp;lt;enum&amp;gt;&lt;br&gt;&lt;span style=&quot;text-align: left;&quot;&gt;LicenseType&lt;/span&gt;&lt;/b&gt;" style="swimlane;fontStyle=0;childLayout=stackLayout;horizontal=1;startSize=40;horizontalStack=0;resizeParent=1;resizeParentMax=0;resizeLast=0;collapsible=1;marginBottom=0;whiteSpace=wrap;html=1;fillColor=#b0e3e6;strokeColor=#0e8088;" parent="1" vertex="1">
          <mxGeometry x="1850" y="-420" width="160" height="92" as="geometry" />
        </mxCell>
        <mxCell id="sBjSpITZdoOLeIIE-7B9-51" value="Infinit" style="text;align=left;verticalAlign=top;spacingLeft=4;spacingRight=4;overflow=hidden;rotatable=0;points=[[0,0.5],[1,0.5]];portConstraint=eastwest;whiteSpace=wrap;html=1;" parent="sBjSpITZdoOLeIIE-7B9-50" vertex="1">
          <mxGeometry y="40" width="160" height="26" as="geometry" />
        </mxCell>
        <mxCell id="sBjSpITZdoOLeIIE-7B9-52" value="Limited" style="text;align=left;verticalAlign=top;spacingLeft=4;spacingRight=4;overflow=hidden;rotatable=0;points=[[0,0.5],[1,0.5]];portConstraint=eastwest;whiteSpace=wrap;html=1;" parent="sBjSpITZdoOLeIIE-7B9-50" vertex="1">
          <mxGeometry y="66" width="160" height="26" as="geometry" />
        </mxCell>
        <mxCell id="sBjSpITZdoOLeIIE-7B9-54" value="&lt;b&gt;&amp;lt;enum&amp;gt;&lt;br&gt;&lt;span style=&quot;text-align: left;&quot;&gt;LicenseStatus&lt;/span&gt;&lt;/b&gt;" style="swimlane;fontStyle=0;childLayout=stackLayout;horizontal=1;startSize=40;horizontalStack=0;resizeParent=1;resizeParentMax=0;resizeLast=0;collapsible=1;marginBottom=0;whiteSpace=wrap;html=1;fillColor=#b0e3e6;strokeColor=#0e8088;" parent="1" vertex="1">
          <mxGeometry x="2060" y="-420" width="160" height="92" as="geometry" />
        </mxCell>
        <mxCell id="sBjSpITZdoOLeIIE-7B9-55" value="Active" style="text;align=left;verticalAlign=top;spacingLeft=4;spacingRight=4;overflow=hidden;rotatable=0;points=[[0,0.5],[1,0.5]];portConstraint=eastwest;whiteSpace=wrap;html=1;" parent="sBjSpITZdoOLeIIE-7B9-54" vertex="1">
          <mxGeometry y="40" width="160" height="26" as="geometry" />
        </mxCell>
        <mxCell id="sBjSpITZdoOLeIIE-7B9-56" value="Expired" style="text;align=left;verticalAlign=top;spacingLeft=4;spacingRight=4;overflow=hidden;rotatable=0;points=[[0,0.5],[1,0.5]];portConstraint=eastwest;whiteSpace=wrap;html=1;" parent="sBjSpITZdoOLeIIE-7B9-54" vertex="1">
          <mxGeometry y="66" width="160" height="26" as="geometry" />
        </mxCell>
        <mxCell id="sBjSpITZdoOLeIIE-7B9-66" value="&lt;p style=&quot;margin:0px;margin-top:6px;text-align:center;&quot;&gt;&lt;b&gt;ControllersComponent&lt;/b&gt;&lt;/p&gt;&lt;hr size=&quot;1&quot; style=&quot;border-style:solid;&quot;&gt;&lt;p style=&quot;margin: 0px 0px 0px 8px;&quot;&gt;&lt;span style=&quot;background-color: initial;&quot;&gt;+ IStreamUriController&lt;span style=&quot;white-space: pre;&quot;&gt;&#x9;&lt;/span&gt;&lt;span style=&quot;white-space: pre;&quot;&gt;&#x9;&lt;/span&gt;&lt;span style=&quot;white-space: pre;&quot;&gt;&#x9;&lt;/span&gt;&amp;lt;&amp;lt;class&amp;gt;&amp;gt;&lt;/span&gt;&lt;/p&gt;&lt;p style=&quot;margin: 0px 0px 0px 8px;&quot;&gt;&lt;span style=&quot;background-color: initial;&quot;&gt;+ IContentController&lt;span style=&quot;white-space: pre;&quot;&gt;&#x9;&lt;/span&gt;&lt;span style=&quot;white-space: pre;&quot;&gt;&#x9;&lt;/span&gt;&lt;span style=&quot;white-space: pre;&quot;&gt;&#x9;&lt;/span&gt;&amp;lt;&amp;lt;&lt;/span&gt;class&lt;span style=&quot;background-color: initial;&quot;&gt;&amp;gt;&amp;gt;&lt;/span&gt;&lt;/p&gt;&lt;p style=&quot;margin: 0px 0px 0px 8px;&quot;&gt;&lt;span style=&quot;background-color: initial;&quot;&gt;+ IUser&lt;/span&gt;Controller&lt;span style=&quot;white-space: pre;&quot;&gt;&#x9;&lt;/span&gt;&lt;span style=&quot;white-space: pre;&quot;&gt;&#x9;&lt;/span&gt;&lt;span style=&quot;white-space: pre;&quot;&gt;&#x9;&lt;/span&gt;&lt;span style=&quot;white-space: pre;&quot;&gt;&#x9;&lt;/span&gt;&lt;span style=&quot;background-color: initial;&quot;&gt;&amp;lt;&amp;lt;&lt;/span&gt;class&lt;span style=&quot;background-color: initial;&quot;&gt;&amp;gt;&amp;gt;&lt;/span&gt;&lt;/p&gt;&lt;p style=&quot;margin: 0px 0px 0px 8px;&quot;&gt;&lt;span style=&quot;background-color: initial;&quot;&gt;+ IContentComment&lt;/span&gt;Controller&lt;span style=&quot;white-space: pre;&quot;&gt;&#x9;&lt;/span&gt;&lt;span style=&quot;background-color: initial;&quot;&gt;&amp;lt;&amp;lt;&lt;/span&gt;class&lt;span style=&quot;background-color: initial;&quot;&gt;&amp;gt;&amp;gt;&lt;/span&gt;&lt;/p&gt;&lt;p style=&quot;margin: 0px 0px 0px 8px;&quot;&gt;&lt;span style=&quot;background-color: initial;&quot;&gt;+ IPaymant&lt;/span&gt;Controller&lt;span style=&quot;white-space: pre;&quot;&gt;&#x9;&lt;/span&gt;&lt;span style=&quot;white-space: pre;&quot;&gt;&#x9;&lt;/span&gt;&lt;span style=&quot;white-space: pre;&quot;&gt;&#x9;&lt;/span&gt;&lt;span style=&quot;background-color: initial;&quot;&gt;&amp;lt;&amp;lt;&lt;/span&gt;class&lt;span style=&quot;background-color: initial;&quot;&gt;&amp;gt;&amp;gt;&lt;/span&gt;&lt;/p&gt;" style="align=left;overflow=fill;html=1;dropTarget=0;whiteSpace=wrap;" parent="1" vertex="1">
          <mxGeometry x="2510" y="-1715" width="260" height="160" as="geometry" />
        </mxCell>
        <mxCell id="sBjSpITZdoOLeIIE-7B9-67" value="" style="shape=component;jettyWidth=8;jettyHeight=4;" parent="sBjSpITZdoOLeIIE-7B9-66" vertex="1">
          <mxGeometry x="1" width="20" height="20" relative="1" as="geometry">
            <mxPoint x="-24" y="4" as="offset" />
          </mxGeometry>
        </mxCell>
        <mxCell id="sBjSpITZdoOLeIIE-7B9-68" value="&lt;p style=&quot;margin:0px;margin-top:6px;text-align:center;&quot;&gt;&lt;b&gt;RoutingComponent&lt;/b&gt;&lt;/p&gt;&lt;hr size=&quot;1&quot; style=&quot;border-style:solid;&quot;&gt;&lt;p style=&quot;margin:0px;margin-left:8px;&quot;&gt;&lt;span style=&quot;background-color: initial;&quot;&gt;+ IStreamUriRouter&lt;span style=&quot;white-space: pre;&quot;&gt;&#x9;&lt;/span&gt;&lt;span style=&quot;white-space: pre;&quot;&gt;&#x9;&lt;span style=&quot;white-space: pre;&quot;&gt;&#x9;&lt;/span&gt;&lt;/span&gt;&amp;lt;&amp;lt;interface&amp;gt;&amp;gt;&lt;/span&gt;&lt;/p&gt;&lt;p style=&quot;margin: 0px 0px 0px 8px;&quot;&gt;&lt;span style=&quot;background-color: initial;&quot;&gt;+ IContentRouter&lt;span style=&quot;white-space: pre;&quot;&gt;&#x9;&lt;/span&gt;&lt;span style=&quot;white-space: pre;&quot;&gt;&#x9;&lt;span style=&quot;white-space: pre;&quot;&gt;&#x9;&lt;/span&gt;&lt;/span&gt;&amp;lt;&amp;lt;interface&amp;gt;&amp;gt;&lt;/span&gt;&lt;/p&gt;&lt;p style=&quot;margin: 0px 0px 0px 8px;&quot;&gt;&lt;span style=&quot;background-color: initial;&quot;&gt;+ IUserRouter&lt;span style=&quot;white-space: pre;&quot;&gt;&#x9;&lt;/span&gt;&lt;span style=&quot;white-space: pre;&quot;&gt;&#x9;&lt;/span&gt;&lt;span style=&quot;white-space: pre;&quot;&gt;&#x9;&lt;span style=&quot;white-space: pre;&quot;&gt;&#x9;&lt;/span&gt;&lt;/span&gt;&amp;lt;&amp;lt;interface&amp;gt;&amp;gt;&lt;/span&gt;&lt;/p&gt;&lt;p style=&quot;margin: 0px 0px 0px 8px;&quot;&gt;&lt;span style=&quot;background-color: initial;&quot;&gt;+ IContentCommentRouter: &lt;span style=&quot;white-space: pre;&quot;&gt;&#x9;&lt;/span&gt;&amp;lt;&amp;lt;interface&amp;gt;&amp;gt;&lt;/span&gt;&lt;/p&gt;&lt;p style=&quot;margin: 0px 0px 0px 8px;&quot;&gt;&lt;span style=&quot;background-color: initial;&quot;&gt;+ IPaymantRouter&lt;span style=&quot;white-space: pre;&quot;&gt;&#x9;&lt;/span&gt;&lt;span style=&quot;white-space: pre;&quot;&gt;&#x9;&lt;/span&gt;&lt;span style=&quot;white-space: pre;&quot;&gt;&#x9;&lt;/span&gt;&amp;lt;&amp;lt;interface&amp;gt;&amp;gt;&lt;/span&gt;&lt;/p&gt;&lt;div&gt;&lt;span style=&quot;background-color: initial;&quot;&gt;&lt;br&gt;&lt;/span&gt;&lt;/div&gt;&lt;div&gt;&lt;span style=&quot;background-color: initial;&quot;&gt;&lt;br&gt;&lt;/span&gt;&lt;/div&gt;" style="align=left;overflow=fill;html=1;dropTarget=0;whiteSpace=wrap;" parent="1" vertex="1">
          <mxGeometry x="2850" y="-1710" width="260" height="150" as="geometry" />
        </mxCell>
        <mxCell id="sBjSpITZdoOLeIIE-7B9-69" value="" style="shape=component;jettyWidth=8;jettyHeight=4;" parent="sBjSpITZdoOLeIIE-7B9-68" vertex="1">
          <mxGeometry x="1" width="20" height="20" relative="1" as="geometry">
            <mxPoint x="-24" y="4" as="offset" />
          </mxGeometry>
        </mxCell>
        <mxCell id="sBjSpITZdoOLeIIE-7B9-70" value="&lt;p style=&quot;margin:0px;margin-top:6px;text-align:center;&quot;&gt;&lt;span style=&quot;font-weight: 700;&quot;&gt;AuthorizationServiceAPI&lt;/span&gt;&lt;br&gt;&lt;/p&gt;&lt;hr size=&quot;1&quot; style=&quot;border-style:solid;&quot;&gt;&lt;p style=&quot;margin:0px;margin-left:8px;&quot;&gt;+&amp;nbsp;&lt;span style=&quot;font-weight: 700; text-align: center;&quot;&gt;AuthorizationAPI&lt;span style=&quot;white-space: pre;&quot;&gt;&#x9;&lt;/span&gt;&lt;span style=&quot;white-space: pre;&quot;&gt;&#x9;&lt;/span&gt;&amp;lt;&amp;lt;class&amp;gt;&amp;gt;&lt;/span&gt;&lt;/p&gt;&lt;p style=&quot;margin:0px;margin-left:8px;&quot;&gt;&lt;span style=&quot;font-weight: 700; text-align: center;&quot;&gt;&lt;br&gt;&lt;/span&gt;&lt;/p&gt;&lt;p style=&quot;margin:0px;margin-left:8px;&quot;&gt;+&amp;nbsp;&lt;span style=&quot;text-align: center;&quot;&gt;Authorize&lt;/span&gt;(string, string, string): boolean&lt;br&gt;&lt;/p&gt;" style="align=left;overflow=fill;html=1;dropTarget=0;whiteSpace=wrap;" parent="1" vertex="1">
          <mxGeometry x="3340" y="-2060" width="290" height="90" as="geometry" />
        </mxCell>
        <mxCell id="sBjSpITZdoOLeIIE-7B9-71" value="" style="shape=component;jettyWidth=8;jettyHeight=4;" parent="sBjSpITZdoOLeIIE-7B9-70" vertex="1">
          <mxGeometry x="1" width="20" height="20" relative="1" as="geometry">
            <mxPoint x="-24" y="4" as="offset" />
          </mxGeometry>
        </mxCell>
        <mxCell id="sBjSpITZdoOLeIIE-7B9-102" value="&lt;p style=&quot;margin:0px;margin-top:6px;text-align:center;&quot;&gt;&lt;b&gt;ContentMetadataServiceAPI&lt;/b&gt;&lt;br&gt;&lt;/p&gt;&lt;hr size=&quot;1&quot; style=&quot;border-style:solid;&quot;&gt;&lt;p style=&quot;margin:0px;margin-left:8px;&quot;&gt;+ TODO: Type&lt;br&gt;+ Attribute2: Type&lt;/p&gt;" style="align=left;overflow=fill;html=1;dropTarget=0;whiteSpace=wrap;" parent="1" vertex="1">
          <mxGeometry x="3340" y="-1840" width="260" height="90" as="geometry" />
        </mxCell>
        <mxCell id="sBjSpITZdoOLeIIE-7B9-103" value="" style="shape=component;jettyWidth=8;jettyHeight=4;" parent="sBjSpITZdoOLeIIE-7B9-102" vertex="1">
          <mxGeometry x="1" width="20" height="20" relative="1" as="geometry">
            <mxPoint x="-24" y="4" as="offset" />
          </mxGeometry>
        </mxCell>
        <mxCell id="sBjSpITZdoOLeIIE-7B9-104" value="&lt;p style=&quot;margin:0px;margin-top:6px;text-align:center;&quot;&gt;&lt;span style=&quot;font-weight: 700;&quot;&gt;LicenseProxyAPI&lt;/span&gt;&lt;br&gt;&lt;/p&gt;&lt;hr size=&quot;1&quot; style=&quot;border-style:solid;&quot;&gt;&lt;p style=&quot;margin:0px;margin-left:8px;&quot;&gt;+ TODO: Type&lt;br&gt;+ Attribute2: Type&lt;/p&gt;" style="align=left;overflow=fill;html=1;dropTarget=0;whiteSpace=wrap;" parent="1" vertex="1">
          <mxGeometry x="3340" y="-1710" width="260" height="90" as="geometry" />
        </mxCell>
        <mxCell id="sBjSpITZdoOLeIIE-7B9-105" value="" style="shape=component;jettyWidth=8;jettyHeight=4;" parent="sBjSpITZdoOLeIIE-7B9-104" vertex="1">
          <mxGeometry x="1" width="20" height="20" relative="1" as="geometry">
            <mxPoint x="-24" y="4" as="offset" />
          </mxGeometry>
        </mxCell>
        <mxCell id="sBjSpITZdoOLeIIE-7B9-106" value="&lt;p style=&quot;margin:0px;margin-top:6px;text-align:center;&quot;&gt;&lt;span style=&quot;font-weight: 700;&quot;&gt;StreamingServiceAPI&lt;/span&gt;&lt;br&gt;&lt;/p&gt;&lt;hr size=&quot;1&quot; style=&quot;border-style:solid;&quot;&gt;&lt;p style=&quot;margin:0px;margin-left:8px;&quot;&gt;+ RemoveContentFromRepository(&lt;span style=&quot;background-color: initial;&quot;&gt;contentName: String&lt;/span&gt;&lt;span style=&quot;background-color: initial;&quot;&gt;): String&lt;br&gt;&lt;/span&gt;+&amp;nbsp;&lt;span style=&quot;text-align: center;&quot;&gt;ContentExistInRepository&lt;/span&gt;(contentId: guid): boolean&lt;span style=&quot;background-color: initial;&quot;&gt;&lt;br&gt;&lt;/span&gt;&lt;/p&gt;" style="align=left;overflow=fill;html=1;dropTarget=0;whiteSpace=wrap;" parent="1" vertex="1">
          <mxGeometry x="3340" y="-1574" width="400" height="74" as="geometry" />
        </mxCell>
        <mxCell id="sBjSpITZdoOLeIIE-7B9-107" value="" style="shape=component;jettyWidth=8;jettyHeight=4;" parent="sBjSpITZdoOLeIIE-7B9-106" vertex="1">
          <mxGeometry x="1" width="20" height="20" relative="1" as="geometry">
            <mxPoint x="-24" y="4" as="offset" />
          </mxGeometry>
        </mxCell>
        <mxCell id="sBjSpITZdoOLeIIE-7B9-108" value="&lt;p style=&quot;margin:0px;margin-top:6px;text-align:center;&quot;&gt;&lt;span style=&quot;font-weight: 700;&quot;&gt;StreamGatewayAPI&lt;/span&gt;&lt;br&gt;&lt;/p&gt;&lt;hr size=&quot;1&quot; style=&quot;border-style:solid;&quot;&gt;&lt;p style=&quot;margin:0px;margin-left:8px;&quot;&gt;+ GetStreamUri(contentName: String): String&lt;br&gt;+ GetUploadUri(&lt;span style=&quot;background-color: initial;&quot;&gt;contentName: String&lt;/span&gt;&lt;span style=&quot;background-color: initial;&quot;&gt;): String&lt;/span&gt;&lt;/p&gt;" style="align=left;overflow=fill;html=1;dropTarget=0;whiteSpace=wrap;" parent="1" vertex="1">
          <mxGeometry x="3340" y="-1440" width="260" height="90" as="geometry" />
        </mxCell>
        <mxCell id="sBjSpITZdoOLeIIE-7B9-109" value="" style="shape=component;jettyWidth=8;jettyHeight=4;" parent="sBjSpITZdoOLeIIE-7B9-108" vertex="1">
          <mxGeometry x="1" width="20" height="20" relative="1" as="geometry">
            <mxPoint x="-24" y="4" as="offset" />
          </mxGeometry>
        </mxCell>
        <mxCell id="sBjSpITZdoOLeIIE-7B9-112" value="" style="endArrow=block;dashed=1;endFill=0;endSize=12;html=1;rounded=0;entryX=1;entryY=0.5;entryDx=0;entryDy=0;edgeStyle=orthogonalEdgeStyle;exitX=0;exitY=0.5;exitDx=0;exitDy=0;" parent="1" source="sBjSpITZdoOLeIIE-7B9-102" target="sBjSpITZdoOLeIIE-7B9-68" edge="1">
          <mxGeometry width="160" relative="1" as="geometry">
            <mxPoint x="3350" y="-1905" as="sourcePoint" />
            <mxPoint x="3120" y="-1655" as="targetPoint" />
          </mxGeometry>
        </mxCell>
        <mxCell id="sBjSpITZdoOLeIIE-7B9-113" value="" style="endArrow=block;dashed=1;endFill=0;endSize=12;html=1;rounded=0;entryX=1;entryY=0.5;entryDx=0;entryDy=0;edgeStyle=orthogonalEdgeStyle;exitX=0;exitY=0.5;exitDx=0;exitDy=0;" parent="1" source="sBjSpITZdoOLeIIE-7B9-104" target="sBjSpITZdoOLeIIE-7B9-68" edge="1">
          <mxGeometry width="160" relative="1" as="geometry">
            <mxPoint x="3350" y="-1776" as="sourcePoint" />
            <mxPoint x="3120" y="-1655" as="targetPoint" />
          </mxGeometry>
        </mxCell>
        <mxCell id="sBjSpITZdoOLeIIE-7B9-116" value="" style="endArrow=block;dashed=1;endFill=0;endSize=12;html=1;rounded=0;exitX=-0.001;exitY=0.604;exitDx=0;exitDy=0;exitPerimeter=0;entryX=1;entryY=0.5;entryDx=0;entryDy=0;edgeStyle=orthogonalEdgeStyle;" parent="1" source="sBjSpITZdoOLeIIE-7B9-106" target="sBjSpITZdoOLeIIE-7B9-68" edge="1">
          <mxGeometry width="160" relative="1" as="geometry">
            <mxPoint x="2724" y="-1655" as="sourcePoint" />
            <mxPoint x="3210" y="-1480" as="targetPoint" />
          </mxGeometry>
        </mxCell>
        <mxCell id="sBjSpITZdoOLeIIE-7B9-118" value="" style="endArrow=block;dashed=1;endFill=0;endSize=12;html=1;rounded=0;exitX=0.01;exitY=0.576;exitDx=0;exitDy=0;exitPerimeter=0;edgeStyle=orthogonalEdgeStyle;entryX=1;entryY=0.5;entryDx=0;entryDy=0;" parent="1" source="sBjSpITZdoOLeIIE-7B9-108" target="sBjSpITZdoOLeIIE-7B9-68" edge="1">
          <mxGeometry width="160" relative="1" as="geometry">
            <mxPoint x="3130" y="-1395.34" as="sourcePoint" />
            <mxPoint x="3210" y="-1460" as="targetPoint" />
          </mxGeometry>
        </mxCell>
        <mxCell id="sBjSpITZdoOLeIIE-7B9-147" value="" style="endArrow=classic;html=1;rounded=0;exitX=1;exitY=0.5;exitDx=0;exitDy=0;entryX=0;entryY=0.5;entryDx=0;entryDy=0;" parent="1" source="sBjSpITZdoOLeIIE-7B9-66" target="sBjSpITZdoOLeIIE-7B9-68" edge="1">
          <mxGeometry width="50" height="50" relative="1" as="geometry">
            <mxPoint x="3130" y="-1760" as="sourcePoint" />
            <mxPoint x="3180" y="-1810" as="targetPoint" />
          </mxGeometry>
        </mxCell>
        <mxCell id="sBjSpITZdoOLeIIE-7B9-149" value="&amp;nbsp;+&amp;nbsp;&lt;span style=&quot;font-weight: 700; text-align: center;&quot;&gt;UserAPI&lt;span style=&quot;white-space: pre;&quot;&gt;&#x9;&lt;/span&gt;&lt;span style=&quot;white-space: pre;&quot;&gt;&#x9;&lt;/span&gt;&lt;span style=&quot;white-space: pre;&quot;&gt;&#x9;&lt;/span&gt;&lt;span style=&quot;white-space: pre;&quot;&gt;&#x9;&lt;/span&gt;&amp;nbsp; &amp;lt;&amp;lt;class&amp;gt;&amp;gt;&lt;br&gt;&amp;nbsp;&lt;br&gt;&lt;/span&gt;&lt;div&gt;&lt;span style=&quot;font-weight: 700; text-align: center;&quot;&gt;&amp;nbsp;&lt;/span&gt;&lt;span style=&quot;background-color: initial;&quot;&gt;+&amp;nbsp;&lt;/span&gt;&lt;span style=&quot;background-color: initial; text-align: center;&quot;&gt;AddUser&lt;/span&gt;&lt;span style=&quot;background-color: initial;&quot;&gt;(User): boolean&lt;/span&gt;&lt;/div&gt;&lt;p style=&quot;margin: 0px 0px 0px 4px;&quot;&gt;+&amp;nbsp;&lt;span style=&quot;text-align: center;&quot;&gt;RemoveUser&lt;/span&gt;(int):&amp;nbsp;&lt;span style=&quot;background-color: initial;&quot;&gt;boolean&lt;/span&gt;&lt;br&gt;&lt;/p&gt;&lt;p style=&quot;margin: 0px 0px 0px 4px;&quot;&gt;+&amp;nbsp;&lt;span style=&quot;text-align: center;&quot;&gt;EditUser&lt;/span&gt;(int, User):&amp;nbsp;&lt;span style=&quot;background-color: initial;&quot;&gt;boolean&lt;/span&gt;&lt;/p&gt;" style="rounded=0;whiteSpace=wrap;html=1;align=left;verticalAlign=top;horizontal=1;" parent="1" vertex="1">
          <mxGeometry x="3340" y="-1972" width="290" height="90" as="geometry" />
        </mxCell>
        <mxCell id="sBjSpITZdoOLeIIE-7B9-163" value="" style="endArrow=block;dashed=1;endFill=0;endSize=12;html=1;rounded=0;exitX=0;exitY=0.75;exitDx=0;exitDy=0;entryX=1;entryY=0.5;entryDx=0;entryDy=0;edgeStyle=orthogonalEdgeStyle;" parent="1" source="sBjSpITZdoOLeIIE-7B9-70" target="sBjSpITZdoOLeIIE-7B9-68" edge="1">
          <mxGeometry width="160" relative="1" as="geometry">
            <mxPoint x="3350" y="-1785" as="sourcePoint" />
            <mxPoint x="3160" y="-1625" as="targetPoint" />
          </mxGeometry>
        </mxCell>
        <mxCell id="sBjSpITZdoOLeIIE-7B9-167" value="&lt;p style=&quot;margin:0px;margin-top:4px;text-align:center;&quot;&gt;&lt;i&gt;&amp;lt;&amp;lt;Interface&amp;gt;&amp;gt;&lt;/i&gt;&lt;br&gt;&lt;b&gt;IContentMetadata&lt;/b&gt;&lt;b style=&quot;background-color: initial;&quot;&gt;Contract&lt;/b&gt;&lt;br&gt;&lt;/p&gt;&lt;hr size=&quot;1&quot; style=&quot;border-style:solid;&quot;&gt;&lt;p style=&quot;margin: 0px 0px 0px 4px;&quot;&gt;+&amp;nbsp;&lt;span style=&quot;text-align: center;&quot;&gt;GetContentMetadataByName&lt;/span&gt;(contentName: string): Content&lt;br&gt;&lt;/p&gt;&lt;p style=&quot;margin: 0px 0px 0px 4px;&quot;&gt;+&amp;nbsp;&lt;span style=&quot;text-align: center;&quot;&gt;EditContentMetadata&lt;/span&gt;(contentName: string, content: Content): boolean&lt;br&gt;&lt;/p&gt;&lt;p style=&quot;margin: 0px 0px 0px 4px;&quot;&gt;+&amp;nbsp;&lt;span style=&quot;text-align: center;&quot;&gt;AddContentMetadata&lt;/span&gt;(content: Content): boolean&lt;br&gt;&lt;/p&gt;&lt;p style=&quot;margin: 0px 0px 0px 4px;&quot;&gt;+&amp;nbsp;&lt;span style=&quot;text-align: center;&quot;&gt;DeleteContentMetadata&lt;/span&gt;(content: Content): boolean&lt;/p&gt;" style="verticalAlign=top;align=left;overflow=fill;html=1;whiteSpace=wrap;fillColor=#fff2cc;strokeColor=#d6b656;" parent="1" vertex="1">
          <mxGeometry x="1674.38" y="504" width="403.75" height="132.5" as="geometry" />
        </mxCell>
        <mxCell id="sBjSpITZdoOLeIIE-7B9-168" value="&lt;p style=&quot;margin:0px;margin-top:4px;text-align:center;&quot;&gt;&lt;i&gt;&amp;lt;&amp;lt;Interface&amp;gt;&amp;gt;&lt;/i&gt;&lt;br&gt;&lt;b&gt;ILicense&lt;/b&gt;&lt;b style=&quot;background-color: initial;&quot;&gt;Contract&lt;/b&gt;&lt;br&gt;&lt;/p&gt;&lt;hr size=&quot;1&quot; style=&quot;border-style:solid;&quot;&gt;&lt;p style=&quot;margin: 0px 0px 0px 4px;&quot;&gt;+ Assign&lt;span style=&quot;text-align: center;&quot;&gt;Li&lt;/span&gt;&lt;span style=&quot;background-color: initial; text-align: center;&quot;&gt;cense&lt;/span&gt;&lt;span style=&quot;background-color: initial;&quot;&gt;(userId: Guid, contentId: Guid): License&lt;/span&gt;&lt;/p&gt;&lt;p style=&quot;margin: 0px 0px 0px 4px;&quot;&gt;+&amp;nbsp;&lt;span style=&quot;text-align: center;&quot;&gt;IssueLicense&lt;/span&gt;(license: License): boolean&lt;br&gt;&lt;/p&gt;&lt;p style=&quot;margin: 0px 0px 0px 4px;&quot;&gt;+&amp;nbsp;&lt;span style=&quot;text-align: center;&quot;&gt;VerifyLicense&lt;/span&gt;(userId: Guid, contentId: Guid): boolean&lt;br&gt;&lt;/p&gt;&lt;p style=&quot;margin: 0px 0px 0px 4px;&quot;&gt;+&amp;nbsp;&lt;span style=&quot;text-align: center;&quot;&gt;DeleteLicense&lt;/span&gt;(licenseId: Guid): boolean&lt;/p&gt;" style="verticalAlign=top;align=left;overflow=fill;html=1;whiteSpace=wrap;fillColor=#fff2cc;strokeColor=#d6b656;" parent="1" vertex="1">
          <mxGeometry x="1951.2500000000002" y="670" width="403.75" height="132.5" as="geometry" />
        </mxCell>
      </root>
    </mxGraphModel>
  </diagram>
</mxfile>
